<svg width="1224" height="800" viewBox="0 0 1224 800" fill="none" xmlns="http://www.w3.org/2000/svg">
<path d="M1029.93 387.747H1029.72L957.003 482.817L811.73 530.263H811.545L738.805 625.31L593.648 672.778H593.441L520.724 767.826L423.053 799.732H426.003L521.369 768.809H521.553L594.293 673.762L739.451 626.294H739.658L812.375 531.247L957.532 483.779H957.74L1030.46 388.731L1175.73 341.263H1175.91L1223.77 278.658V276.736L1175.08 340.302L1029.93 387.747ZM1011.72 375.875H1011.54L938.754 470.989L793.597 518.457H793.412L720.672 613.505L575.515 660.973H575.307L502.59 756.02L368.562 799.799H371.488L503.374 756.713H503.558L576.022 661.733L721.179 614.265H721.364L794.104 519.195L939.261 471.75H939.468L1012.19 376.68L1157.46 329.234H1157.64L1223.68 242.929V241.006L1156.95 328.34L1011.72 375.875ZM1084.21 138.29L1011.49 233.359L866.337 280.827H866.129L793.412 375.875L648.14 423.343H647.955L575.215 518.39L430.058 565.858H429.85L357.133 660.928L211.976 708.373H211.792L141.632 799.933H143.084L212.46 709.268L357.733 661.8H357.917L430.657 566.752L575.814 519.284H576.022L648.739 424.237L793.896 376.769H794.104L866.82 281.722L1011.98 234.254H1012.16L1085.22 138.938L1223.95 93.5718V92.6328L1084.42 138.29H1084.21ZM1102.41 150.162L1029.67 245.21L884.516 292.677H884.309L811.499 387.814L666.227 435.282H666.042L593.302 530.397L448.145 577.865H447.938L375.221 672.912L230.063 720.38H229.856L168.89 799.933H170.364L230.639 721.14L375.912 673.672H376.096L448.836 578.603L593.994 531.157H594.201L666.918 436.087L812.191 388.642H812.375L885.115 293.594L1030.27 246.126H1030.46L1103.2 151.079L1223.95 111.459V110.497L1102.6 150.117L1102.41 150.162ZM1193.31 494.734L1120.59 589.782L975.32 637.272H975.136L902.396 732.32L757.238 779.788H757.031L741.709 799.799H743.183L758.022 780.414L903.202 733.035H903.409L976.126 637.965L1121.28 590.52H1121.49L1194.21 495.472L1223.88 485.769V484.852L1193.52 494.69L1193.31 494.734ZM1211.49 506.607L1138.77 601.677L993.499 649.122H993.315L920.575 744.215L775.417 791.66H775.21L768.989 799.799H770.464L776.201 792.309L921.358 744.841H921.566L994.283 649.793L1139.56 602.325H1139.74L1212.46 507.211L1223.98 503.454V502.493L1211.72 506.518L1211.49 506.607ZM1066.33 411.492H1066.12L993.407 506.54L848.042 554.164H847.858L775.118 649.212L629.96 696.68H629.776L557.036 791.727L532.106 799.866H535.032L557.819 792.443H558.004L630.744 697.373L775.901 649.927H776.109L848.826 554.88L994.098 507.412H994.283L1067.02 412.364L1212.18 364.897H1212.36L1223.88 349.871V347.971L1211.49 364.114L1066.33 411.492ZM1048.15 399.62H1047.94L975.228 494.667L829.955 542.135H829.771L756.939 637.339L611.781 684.807H611.597L538.765 779.989L477.476 800H480.402L539.548 780.682H539.732L612.472 685.634L757.63 638.167H757.837L830.646 542.985L975.919 495.517H976.103L1048.82 400.335L1194.09 352.935H1194.28L1223.95 314.142V312.219L1193.31 352.286L1048.15 399.62ZM1175.08 197.719L1102.37 292.767L957.21 340.235H957.026L884.286 435.282L739.128 482.75H738.921L666.204 577.798L521.046 625.265H520.862L447.845 720.514L302.688 767.96H302.504L278.08 799.866H279.532L303.471 768.563L448.629 721.096H448.836L521.553 626.048L666.826 578.58H667.01L739.75 483.533L884.908 436.065H885.115L957.832 341.017L1102.99 293.549H1103.2L1175.91 198.48L1223.77 182.828V181.867L1175.31 197.652L1175.08 197.719ZM1211.49 221.487L1138.77 316.534L993.499 364.114H993.315L920.575 459.162L775.417 506.629H775.21L702.493 601.699L557.336 649.145H557.128L484.227 744.215L339.069 791.66H338.885L332.641 799.799H334.093L339.83 792.309L485.102 744.841H485.287L558.004 649.793L703.276 602.325H703.461L776.109 507.211L921.266 459.743H921.473L994.19 364.695L1139.56 317.16H1139.74L1212.46 222.113L1223.98 218.357V217.395L1211.72 221.42L1211.49 221.487ZM1193.31 209.592L1120.59 304.639L975.32 352.107H975.136L902.396 447.155L757.238 494.623H757.031L684.314 589.804L539.156 637.272H538.972L466.255 732.32L320.982 779.788H320.798L305.476 799.799H306.927L321.766 780.414L466.923 732.946H467.131L539.848 637.876L685.12 590.43H685.305L758.045 495.405L903.202 447.937H903.409L976.103 352.935L1121.26 305.467H1121.47L1194.19 210.419L1223.86 200.715V199.754L1193.52 209.525L1193.31 209.592ZM1120.59 162.079L1047.85 257.127L902.695 304.595H902.488L829.771 399.665L684.613 447.11H684.429L611.505 542.292L466.347 589.737H466.163L393.308 684.874L248.15 732.32H247.943L196.17 799.933H197.645L248.841 733.035L393.999 685.567H394.183L466.923 590.52L612.081 543.052H612.288L685.005 448.004L830.278 400.537H830.462L903.202 305.489L1048.36 258.021H1048.54L1121.28 162.974L1223.68 129.435V128.474L1120.78 162.012L1120.59 162.079ZM1066.24 126.305H1066.03L993.315 221.487L848.042 268.932H847.858L775.118 364.114L629.96 411.56H629.776L557.036 506.607L411.879 554.075H411.671L338.701 649.212L193.543 696.68H193.359L120.596 791.794L95.6657 799.933H98.5919L121.356 792.51H121.564L194.281 697.44L339.553 649.994H339.738L412.432 554.813L557.589 507.345H557.773L630.513 412.297L775.671 364.83H775.878L848.595 269.782L993.868 222.314H994.052L1067.02 127.11L1212.18 79.6423H1212.36L1223.88 64.6171V62.7166L1211.42 79.0162L1066.24 126.305ZM1138.77 174.064L1066.03 269.111L920.874 316.579H920.667L847.904 411.582L702.631 459.05H702.447L629.684 554.164L484.411 601.632H484.227L411.487 696.68L266.329 744.148H266.122L223.496 799.933H224.948L267.067 744.908L412.224 697.44H412.432L485.149 602.392L630.306 554.924H630.513L703.23 459.855L848.503 412.387H848.687L921.635 317.16L1066.79 269.715H1067L1139.72 174.645L1223.93 147.144V146.115L1138.96 173.885L1138.77 174.064ZM1175.08 482.884L1102.37 577.932L957.21 625.4H957.026L884.216 720.514L739.059 767.96H738.852L714.267 799.933H715.719L739.658 768.631L884.815 721.163H885.023L957.74 626.115L1102.9 578.647H1103.1L1175.82 483.6L1223.68 467.949V466.965L1175.04 482.862L1175.08 482.884ZM1193.26 67.0095L1048.11 114.477H1047.9L975.136 209.592L829.863 257.06H829.679L756.939 352.107L611.781 399.575H611.597L538.857 494.623L393.699 542.091H393.492L320.591 637.339L175.433 684.807H175.249L102.394 779.989L41.1049 800H44.0311L103.177 780.682H103.384L176.101 685.634L321.259 638.167H321.443L394.275 542.985L539.433 495.517H539.617L612.357 400.447L757.515 352.979H757.722L830.439 257.909L975.712 210.464H975.896L1048.82 115.17L1194.09 67.725H1194.28L1223.95 28.9324V27.0319L1193.26 67.0095ZM1156.95 185.824L1084.21 280.894L939.054 328.34H938.846L866.129 423.387L720.972 470.855H720.764L648.047 565.903L502.775 613.371H502.59L429.85 708.418L284.693 755.886H284.486L250.984 799.665H252.459L285.476 756.512L430.634 709.066H430.841L503.558 614.019L648.716 566.551H648.9L721.64 471.504L866.798 424.036H866.982L939.722 328.988L1084.88 281.52H1085.09L1157.8 186.473L1223.84 164.897V163.935L1157.02 185.78L1156.95 185.824ZM1120.59 732.387L1068.89 799.933H1070.36L1121.56 733.035L1223.95 699.497V698.535L1120.78 732.253L1120.59 732.387ZM1138.77 744.282L1096.17 799.933H1097.64L1139.74 744.908L1223.95 717.384V716.445L1138.96 744.215L1138.77 744.282ZM1084.21 708.619L1014.35 799.933H1015.83L1085.22 709.268L1223.98 663.924V662.963L1084.44 708.552L1084.21 708.619ZM1156.95 756.154L1123.45 799.933H1124.9L1157.92 756.78L1223.95 735.271V734.332L1157.14 756.154H1156.95ZM1066.24 696.68H1066.03L993.315 791.727L968.385 799.866H971.311L994.098 792.443H994.283L1067.02 697.373L1212.18 649.927H1212.36L1223.88 634.902V632.979L1211.42 649.279L1066.24 696.68ZM1211.4 791.794L1205.18 799.933H1206.63L1212.36 792.443L1223.88 788.686V787.725L1211.63 791.727L1211.4 791.794ZM1193.31 779.989L1177.99 800H1179.46L1194.28 780.615L1223.95 770.933V769.972L1193.52 779.855L1193.31 779.989ZM1156.95 470.989L1084.21 566.037L939.054 613.505H938.846L866.129 708.552L720.972 756.02H720.764L687.079 799.933H688.553L721.548 756.78L866.705 709.335H866.89L939.63 614.287L1084.79 566.819H1084.99L1157.71 471.772L1223.75 450.196V449.078L1156.93 470.9L1156.95 470.989ZM1175.08 768.027L1150.66 799.933H1152.14L1176.05 768.631L1223.91 752.979V752.018L1175.27 767.893L1175.08 768.027ZM1048.01 684.807H1047.81L975.136 779.989L913.847 800H916.773L975.919 780.682H976.103L1048.82 685.634L1194.09 638.167H1194.28L1223.95 599.396V597.473L1193.31 637.541L1048.01 684.807ZM1102.37 435.349L1029.63 530.397L884.47 577.865H884.262L811.499 672.979L666.227 720.447H666.042L605.261 799.866H606.735L667.01 721.073L812.283 673.605H812.467L885.207 578.535L1030.36 531.09H1030.55L1103.29 436.02L1223.86 396.624V395.685L1102.51 435.327L1102.37 435.349ZM1138.73 459.117L1066.03 554.164L920.874 601.632H920.667L847.904 696.747L702.585 744.215H702.401L659.798 799.866H661.273L703.369 744.841L848.641 697.373H848.826L921.635 602.325L1066.79 554.857H1067L1139.72 459.788L1223.93 432.286V431.191L1138.93 458.96L1138.73 459.117ZM1120.55 447.222L1047.81 542.292L902.649 589.737H902.442L829.725 684.807L684.567 732.253H684.383L632.702 799.799H634.154L685.189 733.035L830.462 685.567H830.646L903.386 590.52L1048.54 543.052H1048.73L1121.47 448.004L1223.86 414.466V413.527L1120.68 447.222H1120.55ZM1084.17 423.477L1011.49 518.524L866.337 565.992H866.129L793.412 661.062L648.14 708.508H647.955L578.072 799.821H579.547L648.923 709.156L794.081 661.688H794.288L867.005 566.641L1012.16 519.173H1012.35L1085.22 424.103L1223.98 378.759V377.798L1084.44 423.41L1084.17 423.477ZM1029.93 672.912H1029.72L957.003 767.96L859.332 799.866H862.258L957.717 768.809H957.924L1030.64 673.762L1175.91 626.294H1176.1L1223.95 563.689V561.766L1175.08 625.444L1029.93 672.912ZM1011.72 661.04H1011.54L938.8 756.087L804.795 799.866H807.721L939.584 756.78H939.791L1012.51 661.733L1157.78 614.265H1157.96L1224 527.937V526.037L1157 613.617L1011.72 661.04ZM1102.46 720.514L1041.68 799.933H1043.13L1103.43 721.14L1224 681.744V680.783L1102.64 720.447L1102.46 720.514ZM85.2512 340.928L230.409 293.46H230.593L303.333 198.39L448.491 150.945H448.698L521.415 55.8748L666.826 8.3175H667.01L673.254 0.0894354H671.78L666.042 7.60201L520.724 55.0699H520.539L447.845 150.184L302.688 197.652H302.504L229.671 292.767L84.5139 340.235H84.3065L11.5204 435.349L0 439.106V440.134L12.4651 436.042L85.2512 340.928ZM48.8236 459.743L121.564 364.695L266.721 317.228H266.928L339.645 222.18L485.01 174.645H485.195L557.912 79.5975L703.184 32.1297H703.369L727.792 0.0894354H726.34L702.401 31.3918L557.243 78.8597H557.036L484.227 174.064L339.069 221.532H338.885L266.145 316.579L120.78 364.114H120.596L47.8559 459.117L0 474.746V475.707L48.6393 459.81L48.8236 459.743ZM175.917 542.985H176.101L248.841 447.87L393.999 400.402H394.183L466.923 305.355L612.081 257.887H612.288L685.005 162.84L830.278 115.372H830.462L903.386 20.123L964.675 0H961.749L902.603 19.4298H902.396L829.679 114.544L684.314 162.012H684.13L611.505 257.127L466.347 304.595H466.163L393.308 399.709L248.15 447.155H247.943L175.111 542.292L29.9531 589.737H29.7688L0 628.597V630.497L30.6444 590.453L175.917 542.985ZM157.738 531.112H157.922L230.639 436.042L375.912 388.597H376.096L448.836 293.549L593.994 246.082H594.201L666.918 151.034L812.191 103.566H812.375L885.207 8.25042L910.114 0.0894354H907.188L884.401 7.53493H884.193L811.499 102.672L666.227 150.117H666.042L593.302 245.232L448.145 292.7H447.938L375.128 387.814L229.971 435.282H229.764L156.954 530.397L11.7969 577.865H11.6126L0.0921635 592.89V594.79L12.5573 578.491L157.738 531.112ZM37.4184 0.0894354H34.5613L11.6817 7.53493L11.5204 7.60201L0 22.6272V24.55L12.4651 8.25042L37.4184 0.0894354ZM103.384 495.405L176.101 400.335L321.259 352.868H321.443L394.16 257.798L539.318 210.352H539.502L612.242 115.282L757.399 67.8368H757.607L809.61 0.0894354H808.159L756.939 67.0095L611.781 114.477H611.597L538.765 209.592L393.607 257.06H393.4L320.683 352.107L175.525 399.575H175.341L102.394 494.757L0 528.206V529.167L103.177 495.45L103.384 495.405ZM85.2512 483.51L157.968 388.463L303.126 340.995H303.333L376.05 245.947L521.323 198.48H521.507L594.247 103.432L739.405 55.9642H739.612L782.353 0.0894354H780.878L738.759 55.1369L593.51 102.515H593.302L520.585 197.719L375.428 245.187H375.221L302.504 340.257L157.346 387.703H157.162L84.2144 482.884L0 510.386V511.347L84.9978 483.577L85.2512 483.51ZM67.0489 471.638L139.789 376.568L284.946 329.122H285.154L357.871 234.053L503.028 186.607H503.213L576.022 91.3359L721.179 43.8681H721.364L755.072 0.0894354H753.598L720.58 43.2644L575.423 90.7099H575.215L502.406 185.824L357.133 233.292H356.949L284.209 328.34L139.052 375.808H138.867L66.0351 470.989L0 492.566V493.527L66.8185 471.705L67.0489 471.638ZM48.8236 744.908L121.564 649.86L266.721 602.392H266.928L339.738 507.211L485.01 459.81H485.195L557.912 364.762L703.184 317.16H703.369L776.109 222.113L921.266 174.645H921.473L994.19 79.5975L1139.46 32.1297H1139.65L1164.16 0.0894354H1162.69L1138.77 31.3918L993.499 78.8373H993.315L920.575 174.064L775.417 221.532H775.21L702.493 316.579L557.336 364.047H557.128L484.411 459.094L339.254 506.562H339.069L266.329 601.632L121.172 649.078H120.988L47.8559 744.215L0 759.866V760.827L48.6393 744.93L48.8236 744.908ZM30.6444 733.035L103.384 637.965L248.542 590.52H248.749L321.466 495.472L466.624 448.004H466.831L539.732 352.935L685.005 305.467H685.189L758.045 210.24L903.202 162.884H903.409L976.126 67.8368L1121.28 20.3689H1121.49L1136.81 0.245947H1135.36L1120.52 19.6534L975.32 66.9424H975.136L902.396 162.079L757.238 209.525H757.031L684.314 304.639L539.156 352.107H538.972L466.255 447.155L320.775 494.69H320.591L247.851 589.737L102.693 637.205H102.486L29.6766 732.387L0 742.091V743.052L30.46 733.035H30.6444ZM85.2512 626.093L230.409 578.625H230.593L303.333 483.577L448.491 436.11H448.698L521.415 341.062L666.688 293.594H666.872L739.612 198.524L884.769 151.079H884.977L957.694 56.0089L1102.85 8.56344H1103.06L1109.28 0.402459H1108.27L1102.53 7.91504L957.371 55.3829H957.187L884.216 150.184L739.059 197.652H738.852L666.135 292.7L520.977 340.168H520.793L448.053 435.215L302.895 482.683H302.711L229.671 577.932L84.5139 625.4H84.3065L11.5204 720.514L0 724.271V725.21L12.4651 721.14L85.2512 626.093ZM194.142 554.857H194.327L267.067 459.788L412.224 412.32H412.432L485.195 317.16L630.352 269.715H630.56L703.276 174.645L848.641 127.11H848.826L921.635 32.0179L1019.24 0.0894354H1016.31L920.782 31.3918H920.575L847.904 126.417L702.585 173.885H702.401L629.684 268.932L484.411 316.4H484.227L411.487 411.448L266.329 458.916H266.122L193.313 554.164L48.1554 601.632H47.9711L0 664.237V666.16L48.8236 602.325L194.142 554.857ZM85.2512 768.675L157.968 673.628L303.126 626.16H303.333L376.05 531.112L521.323 483.645H521.507L594.247 388.597L739.405 341.129H739.612L812.329 246.082L957.486 198.614H957.694L1030.41 103.566L1175.68 56.0984H1175.87L1218.7 0.0894354H1217.25L1175.08 55.1369L1029.93 102.515H1029.72L956.956 197.719L811.684 245.187H811.499L738.759 340.257L593.602 387.703H593.395L520.678 482.772L375.52 530.218H375.313L302.596 625.265L157.438 672.733H157.254L84.2144 768.027L0 795.64V796.601L84.9978 768.809L85.2512 768.675ZM212.322 566.752H212.506L285.246 471.705L430.403 424.237H430.611L503.328 329.19L648.485 281.722H648.67L721.387 186.674L866.544 139.206H866.728L939.468 44.1587L1073.7 0.0894354H1070.78L938.961 43.1973H938.754L866.037 138.29L720.88 185.757H720.672L647.955 280.827L502.59 328.34H502.406L429.666 423.41L284.509 470.855H284.301L211.492 566.037L66.3347 613.505H66.1273L0 699.877V701.733L67.0028 614.153L212.322 566.752ZM121.564 507.211L194.281 412.163L339.553 364.695H339.738L412.432 269.648L557.589 222.18H557.773L630.652 127.11L775.809 79.6423H776.016L836.89 0.0894354H835.416L775.118 78.9044L629.96 126.35H629.776L556.944 221.487L411.786 268.932H411.579L338.701 364.114L193.543 411.515H193.359L120.596 506.629L0 546.048V546.987L121.356 507.345L121.564 507.211ZM67.0028 756.78L139.743 661.733L284.9 614.265H285.108L357.825 519.195L502.982 471.75H503.167L576.022 376.568L721.179 329.122H721.364L794.104 234.053L939.261 186.607H939.468L1012.46 91.3359L1157.73 43.8681H1157.92L1191.44 0.0894354H1189.97L1156.95 43.2644L1011.68 90.7099H1011.49L938.754 185.824L793.597 233.292H793.412L720.58 328.34L575.423 375.808H575.215L502.406 470.989L357.133 518.39H356.949L284.209 613.438L139.052 660.906H138.867L66.0351 756.154L0 777.753V778.714L66.8185 756.87L67.0028 756.78ZM30.6444 447.87L103.384 352.935L248.542 305.467H248.749L321.466 210.419L466.808 162.884H467.015L539.732 67.8368L685.005 20.1901H685.189L700.512 0.0670766H699.06L684.314 19.4969L539.156 66.9424H538.972L466.048 162.079L320.775 209.525H320.591L247.851 304.639L102.693 352.107H102.486L29.6766 447.222L0 456.926V457.887L30.46 447.937L30.6444 447.87ZM67.0028 186.473L139.743 91.3359L284.9 43.8681H285.108L318.701 0.0894354H317.25L284.209 43.2644L139.052 90.7099H138.867L66.0351 185.824L0 207.401V208.362L66.8185 186.54L67.0028 186.473ZM103.384 210.24L176.101 115.17L321.259 67.725H321.443L373.262 0.0894354H371.81L320.591 67.0095L175.433 114.477H175.249L102.394 209.592L0 243.063V244.002L103.177 210.307L103.384 210.24ZM121.564 222.113L194.281 127.11L339.553 79.6423H339.738L400.519 0.0894354H399.068L338.701 78.9044L193.543 126.35H193.359L120.596 221.487L0 260.883V261.845L121.356 222.18L121.564 222.113ZM85.2512 198.345L157.922 103.298L303.08 55.8301H303.287L345.982 0.0894354H344.507L302.411 55.1369L157.139 102.515H156.954L84.2144 197.719L0 225.243V226.182L84.9978 198.413L85.2512 198.345ZM139.743 233.985L212.46 138.938L357.733 91.4701H357.917L427.8 0.0894354H426.256L356.949 90.777L211.676 138.29H211.492L138.775 233.359L0 278.703V279.665L139.536 234.053L139.743 233.985ZM91.9561 0.0894354H89.0299L29.9531 19.4298H29.7688L0 58.2672V60.19L30.6444 20.123L91.9561 0.0894354ZM201.055 0.0894354H198.151L66.2425 43.1973H66.0351L0 129.57V131.582L67.0028 43.8904L201.055 0.0894354ZM146.494 0.0894354H143.568L48.0402 31.3918H47.8559L0 93.9296V95.8077L48.8236 32.0179L146.494 0.0894354ZM157.738 246.037H157.922L230.639 150.833L375.912 103.365H376.096L448.836 8.25042L473.766 0.0894354H470.84L448.053 7.53493H447.845L375.128 102.672L229.971 150.117H229.764L156.954 245.232L11.7969 292.7H11.6126L0.0921635 307.725V309.625L12.5573 293.348L157.738 246.037ZM48.8236 174.578L121.564 79.5305L266.721 32.0626H266.928L291.444 0.0894354H289.969L266.03 31.3918L120.872 78.8597H120.688L47.8559 174.064L0 189.581V190.542L48.6393 174.645L48.8236 174.578ZM212.276 281.587H212.46L285.2 186.54L430.357 139.072H430.565L503.282 44.0246L637.403 0.0894354H634.476L502.59 43.1973H502.406L429.666 138.29L284.509 185.757H284.301L211.492 280.894L66.2425 328.34H66.0351L0 414.734V416.635L67.0028 329.055L212.276 281.587ZM175.917 257.82H176.101L248.841 162.705L393.999 115.238H394.183L467.015 20.123L528.327 0H525.332L466.232 19.4298H466.048L393.308 114.544L248.15 162.012H247.943L175.111 257.127L29.9531 304.595H29.7688L0 343.432V345.355L30.6444 305.288L175.917 257.82ZM194.096 269.715H194.281L267.021 174.645L412.178 127.2H412.385L485.102 32.152L582.934 0.0894354H579.939L484.411 31.3918H484.227L411.487 126.417L266.329 173.885H266.122L193.313 268.999L48.1554 316.467H47.9711L0 379.072V380.995L48.8236 317.16L194.096 269.715ZM30.6444 162.705L103.384 67.6579L248.542 20.1901H248.749L264.071 0.0670766H262.666L247.828 19.4746L102.67 66.9201H102.463L29.6766 162.079L0 171.828V172.789L30.46 162.884L30.6444 162.705ZM85.2512 55.763L230.409 8.3175H230.593L236.883 0.0894354H235.432L229.671 7.60201L84.5139 55.0699H84.3065L11.5204 150.184L0 153.941V154.902L12.4651 150.833L85.2512 55.763ZM139.743 519.15L212.46 424.103L357.733 376.635H357.917L430.657 281.587L575.814 234.12H576.022L648.831 138.938L793.988 91.4701H794.196L864.148 0.0894354H862.696L793.32 90.777L648.047 138.29H647.863L575.123 233.337L429.966 280.805H429.758L357.041 375.852L211.884 423.32H211.699L138.775 518.524L0 563.868V564.83L139.536 519.217L139.743 519.15Z" fill="#2C2C2C"/>
</svg>
