<svg width="232" height="456" viewBox="0 0 232 456" fill="none" xmlns="http://www.w3.org/2000/svg">
<path fill-rule="evenodd" clip-rule="evenodd" d="M175.63 160.79L126.63 209.87H122V63.2801L150.25 35.0701L115.58 0.310059L80.9101 35.0701L109.19 63.2801V209.87H105L56.0001 160.79L0.110107 216.57L47.0001 263.46H60.1801L25.6201 298L72.8701 345.2H84.8701L50.4601 379.7L97.5901 426.9H109.19V448.84L115.58 455.25L122 448.84V426.9H126.73L154.44 399.1L141.44 385.98L148.17 386.09L195.17 339.01L160.4 304.27H169.9L172.78 304.38L220 257.07L205.43 242.61L231.43 216.61L175.63 160.79ZM98.9301 35.1601L115.47 18.5001L132 35.1601L115.47 51.7001L98.9301 35.1601ZM121.43 414.1H102.89L68.5601 379.7L103 345.17H109.18V373.4L103 379.59L109.27 385.98H123.2L136.45 399.1L121.43 414.1ZM177.08 339L142.73 373.28L121.88 373.19V345.19H135.8L142.19 338.8L135.8 332.41H78.0601L43.6101 298L78.1701 263.6L109.08 263.49V291.49H84.4501L78.0601 297.88L84.4501 304.29H142.3L177.08 339ZM167.47 291.46H121.88V263.46H160.74L167.13 257.07L160.74 250.66L52.3401 250.77L18.1201 216.69L55.8701 179L86.7801 209.89H58.4101L52.0001 216.26L58.4101 222.65H167.41L201.85 257.18L167.47 291.46ZM196.28 233.67L172.66 210H144.66L175.57 179.13L213.34 216.73L196.28 233.67ZM122 151.16V109.16V151.16ZM109.19 151V109V151Z" fill="#FF003F"/>
</svg>
