<svg id="Layer_1" data-name="Layer 1" xmlns="http://www.w3.org/2000/svg" viewBox="86.75 86.77 258.5 258.45"><defs><style>.cls-1{fill:#ff003f;}</style></defs><polygon class="cls-1" points="280.81 114.32 264.76 98.28 242.07 98.28 242.07 86.78 269.52 86.78 288.93 106.19 280.81 114.32"></polygon><polygon class="cls-1" points="151.19 114.32 143.07 106.19 162.48 86.78 189.93 86.78 189.93 98.28 167.24 98.28 151.19 114.32"></polygon><path class="cls-1" d="M106.76,289.5l-20-20V241.67H98.27v23.1l16.62,16.61Zm-8.49-99.17H86.78V162.48l20-20,8.13,8.12L98.27,167.24Z"></path><polygon class="cls-1" points="189.93 345.21 162.48 345.21 143.07 325.81 151.19 317.68 167.24 333.73 189.93 333.73 189.93 345.21"></polygon><polygon class="cls-1" points="269.52 345.21 242.07 345.21 242.07 333.73 264.76 333.73 280.81 317.68 288.93 325.81 269.52 345.21"></polygon><path class="cls-1" d="M325.24,289.5l-8.13-8.12,16.62-16.61v-23.1h11.49v27.85Zm20-99.17H333.73V167.24l-16.62-16.62,8.13-8.12,20,20Z"></path></svg>