<svg width="239" height="203" viewBox="0 0 239 203" fill="none" xmlns="http://www.w3.org/2000/svg">
<path fill-rule="evenodd" clip-rule="evenodd" d="M67.0817 64.5356L94.1678 37.4754L86.8604 30.175L52.467 64.5356H44.4776L82.8657 26.1841L75.607 18.9324L30.009 64.5356H21.9709L71.6123 14.9415L64.5972 7.98178L7.9894 64.5356L0 64.5843L64.5972 0L116.626 51.9789V30.029L104.155 17.5697L119.451 2.23879L134.748 17.5697L122.277 30.029V52.0276L174.354 0L239 64.5843H231.011L174.354 7.98178L167.095 15.2335L216.396 64.5843L208.406 64.5356L163.101 19.2244L155.793 26.5248L193.792 64.5843H185.754L151.799 30.5644L144.686 37.6701L171.529 64.5843H163.588L140.691 41.661L122.277 60.0094V94.7106H124.323L145.953 73.0527L170.603 97.6795L159.106 109.165L165.536 115.541L144.686 136.42L143.419 136.372H139.23L154.575 151.702L133.822 172.484L130.851 172.436L136.599 178.227L124.372 190.492H122.277V200.177L119.451 203L116.626 200.177V190.492H111.511L90.7089 169.661L105.908 154.428H100.598L79.7479 133.597L94.9959 118.364H89.1987L68.4945 97.6795L93.1447 73.0527L114.775 94.7106H116.626V59.9607L98.1625 41.4663L75.0711 64.5356H67.0817ZM122.813 172.436H116.674L113.898 169.613L116.626 166.887V154.428H113.898L98.6983 169.661L113.849 184.846H122.033L128.659 178.227L122.813 172.436ZM131.241 136.372H105.713L102.888 133.549L105.713 130.726H116.577V118.364L102.937 118.413L87.6885 133.597L102.888 148.782H128.366L131.192 151.605L128.366 154.428H122.228V166.79L131.435 166.839L146.586 151.702L131.241 136.372ZM157.498 115.59L142.299 100.356H94.2165L91.391 97.5335L94.2165 94.7106H106.736L93.096 81.0832L76.4352 97.7281L91.5371 112.767L139.376 112.718L142.202 115.541L139.376 118.364H122.228V130.726H142.348L157.498 115.59ZM132.264 94.7593H144.637L155.063 105.223L162.565 97.7281L145.904 81.1319L132.264 94.7593ZM112.095 17.6183L119.403 24.9187L126.71 17.6183L119.403 10.2692L112.095 17.6183Z" fill="#FF003F"/>
</svg>
