<svg version="1.1" id="Initial_Setup_Screens" xmlns="http://www.w3.org/2000/svg" 
    xmlns:xlink= "http://www.w3.org/1999/xlink"
    style="enable-background:new 0 0 579.233 308.725;" viewBox="97.3 104.27 384.62 100.12"
>
<g>	
<g>		
    <path style="fill:#FF003F;" d="M234.498,166.881l6.629-39.05h10.047l7.821,20.82l7.769-20.82h10.047l6.629,39.05H273.34    l-3.367-22.477l-9.218,22.477h-4.04l-8.752-22.477l-3.367,22.477H234.498z">
    </path>		
    <path style="fill:#FF003F;" d="M297.608,155.176c0,4.04,1.898,6.059,5.697,6.059c2.037,0,3.573-0.829,4.609-2.486h9.063    c-1.831,6.077-6.406,9.115-13.725,9.115c-2.245,0-4.298-0.337-6.163-1.01c-1.865-0.674-3.462-1.632-4.79-2.874    c-1.33-1.243-2.357-2.727-3.082-4.454c-0.725-1.726-1.087-3.659-1.087-5.801c0-2.209,0.345-4.203,1.036-5.982    c0.69-1.778,1.674-3.289,2.952-4.532c1.276-1.243,2.822-2.201,4.634-2.874c1.813-0.673,3.859-1.01,6.137-1.01    c2.244,0,4.264,0.337,6.06,1.01c1.795,0.673,3.314,1.649,4.557,2.926c1.243,1.277,2.192,2.84,2.849,4.687    c0.655,1.848,0.984,3.928,0.984,6.241v0.984H297.608z M308.588,149.738c-0.311-1.312-0.951-2.365-1.917-3.159    c-0.967-0.794-2.141-1.191-3.522-1.191c-1.45,0-2.633,0.38-3.547,1.139c-0.915,0.76-1.494,1.83-1.736,3.211H308.588z">
    </path>		
    <path style="fill:#FF003F;" d="M343.722,123.895h9.426v42.986h-9.426v-2.952c-2.003,2.521-4.713,3.781-8.131,3.781    c-1.935,0-3.712-0.362-5.335-1.087c-1.623-0.725-3.038-1.726-4.247-3.004c-1.209-1.277-2.149-2.779-2.822-4.506    c-0.674-1.726-1.01-3.59-1.01-5.593c0-1.898,0.319-3.703,0.958-5.412s1.545-3.202,2.719-4.48c1.173-1.277,2.58-2.287,4.221-3.03    c1.64-0.742,3.444-1.114,5.413-1.114c3.314,0,6.059,1.157,8.235,3.47V123.895z M331.913,153.519c0,0.864,0.156,1.666,0.466,2.408    c0.311,0.743,0.733,1.39,1.269,1.942c0.534,0.553,1.173,0.984,1.916,1.295c0.742,0.311,1.545,0.466,2.408,0.466    c0.829,0,1.613-0.156,2.356-0.466c0.743-0.311,1.381-0.742,1.917-1.295c0.534-0.552,0.966-1.191,1.295-1.916    c0.328-0.725,0.491-1.502,0.491-2.33s-0.164-1.614-0.491-2.356c-0.329-0.742-0.76-1.39-1.295-1.942    c-0.536-0.552-1.174-0.984-1.917-1.295c-0.743-0.311-1.527-0.466-2.356-0.466s-1.614,0.155-2.357,0.466    c-0.743,0.311-1.381,0.743-1.916,1.295c-0.535,0.553-0.967,1.183-1.295,1.89C332.077,151.922,331.913,152.69,331.913,153.519z">
    </path>		
    <path style="fill:#FF003F;" d="M361.139,127.831h15.019c2.659,0,5.153,0.536,7.484,1.606c2.331,1.071,4.367,2.495,6.111,4.272    c1.743,1.779,3.116,3.851,4.118,6.215c1.001,2.365,1.501,4.842,1.501,7.432c0,2.556-0.491,5.016-1.476,7.38    c-0.984,2.365-2.348,4.446-4.091,6.241c-1.744,1.795-3.781,3.228-6.111,4.299c-2.331,1.071-4.843,1.605-7.536,1.605h-15.019    V127.831z M371.289,158.284h2.331c1.761,0,3.331-0.276,4.713-0.829c1.38-0.552,2.546-1.312,3.496-2.279    c0.949-0.966,1.674-2.115,2.175-3.444c0.501-1.329,0.751-2.788,0.751-4.377c0-1.554-0.259-3.004-0.776-4.35    c-0.518-1.347-1.253-2.503-2.202-3.47c-0.95-0.966-2.115-1.726-3.496-2.278c-1.382-0.552-2.935-0.829-4.661-0.829h-2.331V158.284z    ">
    </path>		
    <path style="fill:#FF003F;" d="M424.281,160.096H409.78l-2.331,6.784h-10.824l14.864-39.05h11.083l14.864,39.05h-10.824    L424.281,160.096z M421.588,152.38l-4.558-12.999l-4.558,12.999H421.588z">
    </path>		
    <path style="fill:#FF003F;" d="M438.662,147.356c0-2.9,0.534-5.601,1.605-8.105c1.07-2.503,2.555-4.687,4.454-6.552    c1.898-1.864,4.169-3.322,6.81-4.376c2.642-1.053,5.55-1.58,8.727-1.58c3.142,0,6.041,0.527,8.701,1.58    c2.659,1.054,4.946,2.512,6.862,4.376c1.916,1.865,3.409,4.049,4.479,6.552c1.07,2.504,1.606,5.205,1.606,8.105    c0,2.901-0.536,5.602-1.606,8.105c-1.071,2.504-2.563,4.687-4.479,6.551c-1.917,1.865-4.204,3.324-6.862,4.377    c-2.659,1.053-5.559,1.579-8.701,1.579c-3.177,0-6.085-0.526-8.727-1.579c-2.641-1.053-4.912-2.512-6.81-4.377    c-1.899-1.864-3.384-4.048-4.454-6.551C439.197,152.958,438.662,150.256,438.662,147.356z M449.279,147.356    c0,1.554,0.293,2.987,0.88,4.299c0.587,1.313,1.381,2.452,2.382,3.418c1.001,0.967,2.166,1.718,3.497,2.253    c1.328,0.536,2.735,0.802,4.221,0.802c1.484,0,2.891-0.267,4.221-0.802c1.329-0.535,2.504-1.286,3.522-2.253    c1.018-0.966,1.821-2.105,2.408-3.418c0.587-1.312,0.881-2.745,0.881-4.299c0-1.554-0.294-2.986-0.881-4.299    c-0.588-1.312-1.39-2.451-2.408-3.418c-1.018-0.966-2.192-1.717-3.522-2.253c-1.329-0.535-2.736-0.803-4.221-0.803    c-1.485,0-2.892,0.268-4.221,0.803c-1.33,0.536-2.495,1.287-3.497,2.253c-1.001,0.967-1.795,2.107-2.382,3.418    C449.572,144.37,449.279,145.802,449.279,147.356z">
    </path>	
</g>	
<g>					
<rect x="142.227" y="147.12" transform="matrix(0.7071 -0.7071 0.7071 0.7071 -62.7757 144.6343)" style="fill:#FF003F;" width="1.949" height="1.949">
</rect>					
<rect x="168.259" y="147.12" transform="matrix(0.7071 -0.7071 0.7071 0.7071 -55.1509 163.0459)" style="fill:#FF003F;" width="1.949" height="1.949">
</rect>		
<path style="fill:#FF003F;" d="M134.296,136.113 M134.304,136.108l11.371-11.374l9.105,9.105v17.129h-0.919L143.2,140.307    l-12.136,12.136l10.202,10.201l2.845-0.002l-7.498,7.498l10.265,10.269h2.623l-7.503,7.503l10.265,10.268l2.513,0.004v4.784    l1.392,1.392l1.391-1.392v-4.78l1.035,0.001l6.034-6.035l-2.854-2.854l1.47,0.003l10.234-10.234l-7.561-7.561h2.049l0.623,0.019    l10.281-10.281l-3.155-3.155l5.649-5.649l-12.136-12.136l-10.662,10.662h-1.004v-17.097l9.059-9.059l11.302,11.302l3.912-0.005    l-13.246-13.264l3.507-3.507l16.748,16.772h3.949l-18.729-18.74l3.599-3.599l22.326,22.326l3.937,0.013l-24.295-24.307    l3.591-3.591l27.898,27.897h3.94l-31.837-31.834l-25.66,25.66v-10.847l6.15-6.15l-7.542-7.541l-7.541,7.541l6.15,6.15v10.816    l-25.629-25.629l-31.826,31.834l3.939-0.011l27.887-27.887l3.447,3.447l-24.444,24.45l3.939-0.01l22.473-22.473l3.574,3.574    l-18.918,18.908h3.936l16.951-16.941l3.599,3.599l-13.352,13.342 M160.693,192.154l-3.25,3.25l-4.026-0.006l-7.484-7.486    l7.503-7.503h1.339v6.137l-1.353,1.353l1.385,1.385l3.023,0.007L160.693,192.154z M169.543,179.07l-7.448,7.448l-4.536-0.01    v-6.098h3.017l1.392-1.392l-1.392-1.392h-12.545l-7.483-7.486l7.501-7.501l6.726-0.006v6.092l-5.357,0.001l-1.392,1.391    l1.392,1.392l12.563-0.001L169.543,179.07z M167.457,168.725h-9.897v-6.095l8.445-0.01l1.392-1.392l-1.394-1.389l-23.584,0.021    L135,152.443l8.2-8.2l6.726,6.726h-6.186l-1.392,1.392l1.392,1.392h23.7l7.495,7.495L167.457,168.725z M169.229,144.243l8.2,8.2    l-3.681,3.681l-5.155-5.155h-6.09L169.229,144.243z M156.172,109.333l3.605,3.605l-3.605,3.605l-3.605-3.605L156.172,109.333z"></path>	</g>	<g>		<path style="fill:#FF003F;" d="M236.781,190.493h-2.158v-15.106h2.158V190.493z M245.65,183.76h-9.085v-1.878h9.085V183.76z     M245.455,175.387h2.158v15.106h-2.158V175.387z"></path>		<path style="fill:#FF003F;" d="M256.936,190.622c-1.223,0-2.298-0.252-3.226-0.755c-0.928-0.503-1.648-1.194-2.158-2.072    c-0.511-0.878-0.766-1.884-0.766-3.021c0-1.136,0.248-2.144,0.745-3.021c0.496-0.878,1.179-1.564,2.05-2.061    c0.87-0.496,1.852-0.744,2.946-0.744c1.108,0,2.085,0.245,2.935,0.734c0.848,0.489,1.514,1.176,1.996,2.061    c0.482,0.885,0.723,1.917,0.723,3.097c0,0.086-0.004,0.187-0.011,0.302c-0.007,0.115-0.018,0.223-0.032,0.324h-9.733v-1.489h8.654    l-0.842,0.518c0.014-0.733-0.137-1.388-0.453-1.964c-0.317-0.575-0.752-1.025-1.306-1.349c-0.554-0.324-1.198-0.486-1.931-0.486    c-0.72,0-1.36,0.162-1.921,0.486c-0.561,0.324-1,0.777-1.316,1.36c-0.317,0.582-0.475,1.248-0.475,1.996v0.345    c0,0.763,0.176,1.442,0.529,2.039c0.352,0.597,0.845,1.061,1.478,1.392c0.633,0.331,1.359,0.496,2.179,0.496    c0.676,0,1.291-0.115,1.845-0.345c0.553-0.23,1.039-0.575,1.457-1.036l1.143,1.338c-0.518,0.604-1.162,1.065-1.931,1.381    C258.744,190.464,257.885,190.622,256.936,190.622z"></path>		<path style="fill:#FF003F;" d="M268.07,190.622c-0.849,0-1.594-0.144-2.233-0.432c-0.64-0.287-1.133-0.687-1.478-1.197    c-0.345-0.511-0.518-1.09-0.518-1.737c0-0.618,0.148-1.179,0.443-1.683c0.295-0.503,0.777-0.906,1.446-1.208    c0.669-0.302,1.572-0.453,2.708-0.453h3.625v1.489h-3.539c-1.036,0-1.733,0.172-2.093,0.518c-0.36,0.345-0.539,0.762-0.539,1.251    c0,0.561,0.223,1.011,0.669,1.349c0.446,0.338,1.065,0.507,1.856,0.507c0.777,0,1.457-0.172,2.039-0.518    c0.582-0.346,1.004-0.849,1.262-1.511l0.41,1.424c-0.274,0.676-0.755,1.212-1.446,1.607    C269.991,190.424,269.12,190.622,268.07,190.622z M271.825,190.493v-2.417l-0.108-0.453v-4.122c0-0.877-0.255-1.557-0.766-2.039    c-0.511-0.482-1.277-0.723-2.298-0.723c-0.676,0-1.338,0.111-1.986,0.334c-0.647,0.223-1.194,0.522-1.64,0.896l-0.863-1.554    c0.59-0.475,1.298-0.838,2.125-1.09c0.827-0.252,1.694-0.378,2.6-0.378c1.568,0,2.776,0.381,3.625,1.144s1.273,1.928,1.273,3.496    v6.905H271.825z"></path>		<path style="fill:#FF003F;" d="M277.63,190.493v-16.012h2.072v16.012H277.63z"></path>		<path style="fill:#FF003F;" d="M282.29,180.761v-1.705h7.294v1.705H282.29z M287.858,190.622c-1.151,0-2.043-0.309-2.676-0.928    c-0.633-0.619-0.95-1.503-0.95-2.654v-10.487h2.072v10.401c0,0.619,0.155,1.094,0.464,1.424c0.309,0.331,0.751,0.496,1.327,0.496    c0.647,0,1.187-0.18,1.618-0.539l0.647,1.489c-0.316,0.274-0.694,0.475-1.133,0.604    C288.789,190.558,288.333,190.622,287.858,190.622z"></path>		<path style="fill:#FF003F;" d="M298.971,178.948c0.935,0,1.759,0.18,2.471,0.539c0.712,0.36,1.269,0.906,1.672,1.64    c0.403,0.734,0.604,1.662,0.604,2.784v6.582h-2.072v-6.344c0-1.108-0.27-1.942-0.809-2.503c-0.539-0.561-1.299-0.842-2.277-0.842    c-0.734,0-1.374,0.144-1.921,0.432c-0.547,0.288-0.968,0.712-1.262,1.273c-0.295,0.561-0.443,1.259-0.443,2.093v5.891h-2.072    v-16.012h2.072v7.661l-0.41-0.82c0.374-0.748,0.949-1.331,1.726-1.748C297.029,179.156,297.935,178.948,298.971,178.948z"></path>		<path style="fill:#FF003F;" d="M312.544,190.622c-1.165,0-2.205-0.252-3.118-0.755c-0.914-0.503-1.629-1.194-2.147-2.072    c-0.518-0.878-0.777-1.884-0.777-3.021c0-1.136,0.259-2.144,0.777-3.021c0.518-0.878,1.233-1.564,2.147-2.061    c0.913-0.496,1.953-0.744,3.118-0.744c1.036,0,1.96,0.205,2.773,0.615c0.813,0.41,1.442,1.018,1.888,1.824l-1.575,1.014    c-0.374-0.561-0.831-0.974-1.37-1.241c-0.539-0.266-1.119-0.399-1.737-0.399c-0.748,0-1.417,0.166-2.007,0.496    c-0.59,0.331-1.057,0.795-1.403,1.392c-0.346,0.597-0.518,1.305-0.518,2.125c0,0.82,0.172,1.532,0.518,2.136    c0.345,0.604,0.813,1.072,1.403,1.403c0.59,0.331,1.259,0.496,2.007,0.496c0.618,0,1.198-0.133,1.737-0.399    c0.539-0.266,0.996-0.68,1.37-1.241l1.575,0.993c-0.446,0.792-1.076,1.399-1.888,1.824    C314.504,190.41,313.58,190.622,312.544,190.622z"></path>		<path style="fill:#FF003F;" d="M323.226,190.622c-0.849,0-1.594-0.144-2.233-0.432c-0.64-0.287-1.133-0.687-1.478-1.197    c-0.345-0.511-0.518-1.09-0.518-1.737c0-0.618,0.148-1.179,0.443-1.683c0.295-0.503,0.777-0.906,1.446-1.208    c0.669-0.302,1.572-0.453,2.708-0.453h3.625v1.489h-3.539c-1.036,0-1.734,0.172-2.093,0.518c-0.36,0.345-0.539,0.762-0.539,1.251    c0,0.561,0.223,1.011,0.669,1.349c0.446,0.338,1.065,0.507,1.856,0.507c0.777,0,1.457-0.172,2.04-0.518    c0.582-0.346,1.004-0.849,1.262-1.511l0.41,1.424c-0.274,0.676-0.755,1.212-1.446,1.607    C325.146,190.424,324.276,190.622,323.226,190.622z M326.981,190.493v-2.417l-0.108-0.453v-4.122c0-0.877-0.255-1.557-0.766-2.039    c-0.511-0.482-1.277-0.723-2.298-0.723c-0.676,0-1.338,0.111-1.986,0.334c-0.647,0.223-1.194,0.522-1.64,0.896l-0.863-1.554    c0.59-0.475,1.298-0.838,2.125-1.09c0.827-0.252,1.694-0.378,2.6-0.378c1.568,0,2.776,0.381,3.625,1.144    c0.849,0.762,1.273,1.928,1.273,3.496v6.905H326.981z"></path>		<path style="fill:#FF003F;" d="M332.785,190.493v-11.437h1.986v3.108l-0.194-0.777c0.316-0.791,0.848-1.395,1.597-1.813    c0.748-0.417,1.669-0.626,2.762-0.626v2.007c-0.086-0.014-0.169-0.022-0.248-0.022c-0.079,0-0.155,0-0.226,0    c-1.108,0-1.986,0.331-2.633,0.993c-0.647,0.662-0.971,1.618-0.971,2.87v5.697H332.785z"></path>		<path style="fill:#FF003F;" d="M346.466,190.622c-1.223,0-2.298-0.252-3.226-0.755c-0.928-0.503-1.648-1.194-2.158-2.072    c-0.511-0.878-0.766-1.884-0.766-3.021c0-1.136,0.248-2.144,0.745-3.021c0.496-0.878,1.179-1.564,2.05-2.061    c0.87-0.496,1.852-0.744,2.946-0.744c1.108,0,2.085,0.245,2.935,0.734c0.848,0.489,1.514,1.176,1.996,2.061    c0.482,0.885,0.723,1.917,0.723,3.097c0,0.086-0.004,0.187-0.011,0.302c-0.007,0.115-0.018,0.223-0.032,0.324h-9.733v-1.489h8.654    l-0.842,0.518c0.014-0.733-0.137-1.388-0.453-1.964c-0.317-0.575-0.752-1.025-1.306-1.349c-0.554-0.324-1.198-0.486-1.931-0.486    c-0.72,0-1.36,0.162-1.921,0.486c-0.561,0.324-1,0.777-1.316,1.36c-0.317,0.582-0.475,1.248-0.475,1.996v0.345    c0,0.763,0.176,1.442,0.529,2.039c0.352,0.597,0.845,1.061,1.478,1.392c0.633,0.331,1.359,0.496,2.179,0.496    c0.676,0,1.291-0.115,1.845-0.345c0.553-0.23,1.039-0.575,1.457-1.036l1.143,1.338c-0.518,0.604-1.162,1.065-1.931,1.381    C348.275,190.464,347.416,190.622,346.466,190.622z"></path>		<path style="fill:#FF003F;" d="M364.075,190.666c-1.065,0-2.097-0.166-3.097-0.496c-1-0.331-1.816-0.777-2.449-1.338l0.993-1.705    c0.504,0.475,1.158,0.863,1.964,1.165c0.806,0.302,1.669,0.453,2.59,0.453c1.122,0,1.996-0.241,2.622-0.723    s0.939-1.133,0.939-1.953c0-0.791-0.298-1.428-0.895-1.91c-0.597-0.482-1.543-0.723-2.838-0.723h-1.208v-1.511l4.488-5.525    l0.302,0.863h-8.265v-1.877h9.97v1.468l-4.467,5.503l-1.122-0.669h0.712c1.827,0,3.197,0.41,4.111,1.23    c0.913,0.82,1.37,1.863,1.37,3.129c0,0.849-0.209,1.626-0.625,2.33c-0.418,0.705-1.047,1.263-1.888,1.672    C366.438,190.46,365.369,190.666,364.075,190.666z"></path>		<path style="fill:#FF003F;" d="M373.224,190.622c-0.403,0-0.748-0.14-1.036-0.421c-0.288-0.281-0.432-0.637-0.432-1.068    c0-0.432,0.144-0.784,0.432-1.057c0.288-0.273,0.633-0.41,1.036-0.41c0.388,0,0.723,0.137,1.004,0.41    c0.28,0.273,0.421,0.625,0.421,1.057c0,0.432-0.14,0.788-0.421,1.068C373.947,190.482,373.613,190.622,373.224,190.622z"></path>		<path style="fill:#FF003F;" d="M382.611,190.666c-1.18,0-2.233-0.302-3.161-0.907c-0.928-0.604-1.661-1.481-2.201-2.633    c-0.539-1.151-0.809-2.547-0.809-4.186c0-1.64,0.27-3.035,0.809-4.186c0.539-1.151,1.273-2.029,2.201-2.633    c0.928-0.604,1.982-0.907,3.161-0.907c1.165,0,2.215,0.302,3.15,0.907c0.935,0.604,1.669,1.482,2.201,2.633    c0.532,1.151,0.799,2.547,0.799,4.186c0,1.64-0.266,3.035-0.799,4.186s-1.266,2.029-2.201,2.633    C384.827,190.363,383.777,190.666,382.611,190.666z M382.611,188.745c0.791,0,1.485-0.216,2.082-0.647    c0.597-0.432,1.064-1.079,1.403-1.942c0.338-0.863,0.507-1.935,0.507-3.215c0-1.28-0.169-2.352-0.507-3.215    c-0.338-0.863-0.806-1.511-1.403-1.942c-0.597-0.432-1.291-0.647-2.082-0.647c-0.792,0-1.489,0.216-2.093,0.647    c-0.604,0.432-1.076,1.079-1.413,1.942c-0.338,0.863-0.507,1.935-0.507,3.215c0,1.28,0.169,2.352,0.507,3.215    c0.338,0.863,0.809,1.511,1.413,1.942C381.122,188.529,381.82,188.745,382.611,188.745z"></path>	
</g></g></svg>