<svg data-name="Layer 1" viewBox="0 0 432 432">
  <path fill="#ff003f" d="M214.66 315.73h-45.15l-82.3-33.15h62.72l20.93-10.81-13.08-3.17-26.44-36H144l-11.4-6.84-18.83-44.96 13.4 1.87-12.63-13.28-1.72-51.71 75.12 49.87 33.66 7.63v-25.91l33-33h39.71L312 134l30.91-8.09-14.88 23.32 16.73.91-17.86 22.43-8.58 52.65L296.08 266l-38.17 32.83Zm-42.92-11.49h40.75l39.42-15.4L287 258.65l20.3-37.2 8.7-53.69 5.88-7.38-14.13-.77 9.69-15.17-8.92 2.33-19-19h-30.16L233.09 154v35.54l-49.75-11.28-58.29-38.7.83 25 32.31 34-26-3.63 9.56 22.82L185.49 244H154l10.54 14.37 38.92 9.43-50.76 26.22h-6.23Z"/>
</svg>
