<svg xmlns="http://www.w3.org/2000/svg" fill="#ff003f" viewBox="72.4 59.7 670.93 1085.32">
  <path d="M463.19 1145a20.29 20.29 0 0 1-5.71-.91c-2.94-.86-4.85-2.42-5.66-4.62-1.55-4.23 1.62-9.17 1.76-9.38 1.83-2.52 4.84-6.8 5.24-7.72.12-.3.28-.79.46-1.36a26.51 26.51 0 0 1 3.58-7.7c1-1.44 1.63-2.2 2.16-2.89.78-1 1.4-1.81 3.14-4.37a57.73 57.73 0 0 0 6.78-13.14 31.51 31.51 0 0 1 2.39-5.32 50.74 50.74 0 0 0 2.94-6.35 54 54 0 0 0 3.1-13.57c.25-2 .32-4.9.4-8a100.77 100.77 0 0 1 .78-12.34c.8-4.93.68-7.59.39-14-.06-1.38-.13-2.93-.2-4.71a233.48 233.48 0 0 0-8.43-56.3c-2.15-7.5-4.31-14.13-6.41-20.54-4.7-14.38-8.76-26.81-9.59-40.94-.67-11.42-1.27-18.93-1.68-23.9-.3-3.79-.49-6.08-.49-7.48 0-3.14-6.1-16.51-14.09-33.66-9.59-20.61-10.15-24.26-10.52-26.67-.18-1.2-1.54-3.74-2.86-6.19a51.09 51.09 0 0 1-3.2-6.64c-.2-.56-.58-1.51-1.11-2.82a292.42 292.42 0 0 1-16.27-54.84 273.33 273.33 0 0 0-10.52-40 86.61 86.61 0 0 1-3.27-11.21c-.59-3.18-1.91-8.19-3.44-14-2.07-7.84-4.45-16.89-5.74-24.15-1.81 15.83-5.43 45.81-7.92 55.89-2.59 10.47-5.53 31.46-7.1 42.73-.49 3.47-.84 6-1 7a124.64 124.64 0 0 0-.94 13.55c0 1-.06 1.78-.09 2.43v1c-.57 17-2.71 31.43-6.37 42.94 0 0-2.45 9.92-2 16.18.05.76.16 2 .29 3.64 1.08 12.94 3.95 47.32.13 63-4.24 17.42-15 52.31-15.09 52.66s-10.75 37.12-11.33 51.31c-.57 13.92.93 22.86 1.6 26.06.06.26.16.64.28 1.12 1.17 4.55 4.73 18.37-3.8 26.24-.59.6-4.66 3.88-24.15 4.87h-.11c-.1 0-10.22-.54-14.19 1.92-3.29 2-9.39 7.13-12 9.31-1 .88-1.29 1.07-1.42 1.16l-.13.11c-3.14 2.64-10.27 7.21-22.66 8.18a9.53 9.53 0 0 0-4.41 1.18c-3.28 2.1-14.5 8.08-22.64-2.39-2-.23-5.12-1.49-5.47-5.08a6.13 6.13 0 0 1-1.1-7.27 76.22 76.22 0 0 1 3.89-6.89c.11-.17 2.94-4.77 5.89-6.78a47.45 47.45 0 0 1 7.86-3.82c1.7-.71 3.62-1.52 5.74-2.48 1.49-.67 3-1.27 4.67-1.91 5.22-2 10.61-4.15 15.42-9 5.22-5.22 12.43-11.67 16.74-15.53l2.65-2.38.41-.37c3.23-2.91 8.12-7.32 10.06-23.39 2-16.67.94-48.19.44-54-.08-.87-.32-3.17-.67-6.35-1.73-16.1-5.79-53.79-4.8-65 1.22-13.88 5.37-39.08 6.09-41.7.67-2.41.59-7.9-1.18-14.23s-2.26-11.55-2.11-13.93a21.53 21.53 0 0 0-.54-4c-.47-2.57-1-5.49-.62-7.32a47.26 47.26 0 0 0 .13-7.88 43.27 43.27 0 0 1 0-5.34c.27-2.07-.3-12.59-1.77-21a71.48 71.48 0 0 0-3.05-12c-.21-.61-.37-1.08-.47-1.46-.54-2-8.16-39.8-8-63.21v-12.63c-.12-18.69-.24-38 4.62-62.47 5.72-28.71 13.32-60.45 13.74-62.17.13-1.42 1.69-18.18 3.85-27.11a74.78 74.78 0 0 0 1.75-16.51c0-2.31.11-4.49.3-6.54.55-6 2.34-23.65 3.11-29.3.79-5.86 1.28-14.31.59-20-.27-2.15-.62-4.79-1-7.68-.71-5.35-1.53-11.42-2.1-16.87a266 266 0 0 1-.89-30.58c0-1.16.13-2.64.23-4.35.46-8.2 1.31-23-1-30.45-3.79 3.73-16.17 15.92-20 19.88-2.57 2.65-7.52 8.15-11.5 12.57-4.45 5-5.61 6.22-5.91 6.44s-1.6 1.9-2.89 3.51-3 3.7-4.48 5.5c-.45.53-1 1.19-1.61 2a139.19 139.19 0 0 1-23.51 23.45c-14.06 11-27.87 19.62-28 19.71l-47.44 33.44c-2.45 2.69-6.25 7.09-6.85 8.38-.1.22-.23.54-.4.93-1.25 2.91-4.56 10.65-10.42 16.78-4.68 4.89-8.89 9.93-11.16 12.64-1 1.23-1.48 1.78-1.71 2-.58.59-7.86 9.32-9 11.31-.14.23-.27.49-.42.76-1.19 2.23-3.19 5.95-7.93 6.25a1.23 1.23 0 0 1-.27 0 3.81 3.81 0 0 1-2.55-2.1 5 5 0 0 1 0-3.48c-1.76 2.32-3.23 4.28-3.44 4.65-.06.11-.15.29-.26.54-1.17 2.47-4.74 10-11.67 10.16a1.17 1.17 0 0 1-.32 0 4.55 4.55 0 0 1-2.74-2.6 3.21 3.21 0 0 1-.21-.75c-.74 1-1.55 2-2.32 3.06-1.25 2.16-4.85 5.65-9.76 3.79l-.14-.06a3.86 3.86 0 0 1-1.83-2.34 2.69 2.69 0 0 1 .1-1.4 4.49 4.49 0 0 1-3.54-1 3.7 3.7 0 0 1-.85-3 2 2 0 0 1 0-.24 39.39 39.39 0 0 1 2.3-5.34c.58-1 1.77-2.66 2.81-4.13.65-.9 1.45-2 1.57-2.27a100.78 100.78 0 0 1 6.44-11.68c1.23-1.88 2.46-3.5 3.54-4.92 1.61-2.13 2.88-3.8 3.28-5.15a11.77 11.77 0 0 1 2.86-4.38 41.26 41.26 0 0 0 3.18-4c2.08-3.06 5.84-6.63 8.33-9 .92-.87 1.71-1.62 2.1-2.05.62-.69 2-2.07 3.58-3.67 2.22-2.24 4.75-4.79 5.86-6.07.42-.48 1-1.06 1.57-1.71a43.66 43.66 0 0 0 7.16-9.32c2-3.95 8.3-10.52 13.83-16.32 1.46-1.53 2.85-3 4.05-4.29 5.54-6 27.68-31.63 27.9-31.89l18.19-23.2c3.44-4.38 16.57-17.59 25.09-25.24s14.38-13.2 18.5-18.35a196.66 196.66 0 0 0 13.08-19.4c2.94-4.88 7.3-11 10.79-16 1.66-2.34 3.09-4.36 4.16-5.94 3.63-5.37 6.12-9.88 9.64-19.58.87-2.41 1.67-4.88 2.45-7.26 2.51-7.71 5.1-15.69 10.81-24.13 8.63-12.77 22.49-27.71 53.36-29.84 5-.7 15.25-2.34 17.84-3.47l1.64-.69c3.11-1.3 7.32-3.06 9.28-5.26.05-6.14.11-20.56-.11-24.36-2.91-.31-12.16-1.79-14.88-8.12-.21-.58-4.47-12.83-5.16-15.29l-.11-.37c-.72-2.57-1.93-6.88-2.57-10.67-.12-.68-.55-2.39-1-4.2-.64-2.58-1.3-5.24-1.47-6.46-.05-.35-.16-.84-.31-1.48a60.89 60.89 0 0 1-1.39-19.67c.67-8.15.54-8.34 0-9.15a9.85 9.85 0 0 1-1.32-2.64 18.73 18.73 0 0 1-.17-11l.14-.62c0-.12 1.29-4.31 2-8.14.86-4.93 4.44-21.72 14.2-30.61s36.6-22.16 67.15-7.76c1.61.59 34.64 13.61 27 60.9.87 2.32 6 18.14-9.66 29.6-.69 1.87-4.66 13.16-4.66 24.68 0 12.57 1.38 26.77 11.62 36.81.12.13 5.37 6.15 21 11.29 11.44 3.77 14.76 3.83 17.68 3.89a27.8 27.8 0 0 1 4.12.31h.23c18.4 2.85 32.13 10.16 40.8 21.73a155.37 155.37 0 0 1 16.76 27.41c7.52 15.76 24.51 42.63 25.43 43.82 4.19 4.79 20.15 31.55 26.93 43.77.67.71 5.1 5.38 7.11 7.26.19.18 20.36 19.72 39.19 53.58 17 30.52 33 59.19 33.95 60.8.65.84 6.49 8.43 8.11 15.95a23.85 23.85 0 0 0 2.9 5.83c1.84 2.18 21 30.19 24.51 37.59 3.2 6.66 4.39 7.72 4.44 7.77a.61.61 0 0 1 .22.23c7.74 11.27 17 24.95 17.2 26.11a4.8 4.8 0 0 1-.51 3.56c.22 1 2.15 4.48 6 10.27a1.94 1.94 0 0 1-.2 2.31 5.65 5.65 0 0 1-4.21 2.41c.3.34.67.72 1 1.07a1 1 0 0 1 .18 1.26c-.09.14-2.15 3.4-5.55 3.67-2.27.19-4.49-1-6.63-3.42-.36-.49-2.14-2.85-3.83-5.22a5 5 0 0 1-2.26 2.77c-1.48.82-3.35.83-5.57.06l-.16-.08a21.67 21.67 0 0 1-7.59-8.48c-2.33-4.43-3.58-5.77-4.26-6.5a6.34 6.34 0 0 1-.49-.58l-2.76-3.75c-5.22-7.08-9.94-13.48-10.28-14-.15-.2-1.11-1.06-2.05-1.9a87.33 87.33 0 0 1-9.61-9.64 14.15 14.15 0 0 0-8.52-5.29l-.3-.07a36.89 36.89 0 0 0 .36 5.89c.07.42 1.88 11.26-2.14 17.24a6.93 6.93 0 0 1-6.41 3.25c-3.24-.21-6.2-2.3-6.73-3.36-1.58-3.14-1.34-5.72-1.09-8.46.09-.94.18-1.92.19-2.94a51.19 51.19 0 0 1 .28-5.26c.17-1.7.19-1.92-1-8.54a94.92 94.92 0 0 1-.53-24v-.25a20.4 20.4 0 0 1 .7-3.59c.62-2.32 1.15-4.32-.52-9.31-.7-1.19-8.58-14.61-16.15-22.37-3.49-3.58-9.63-9.78-15.56-15.77-10.48-10.6-15.11-15.29-15.45-15.74-.12-.14-1-1-1.93-2-6-6.28-21.92-23-29.23-34a430.8 430.8 0 0 1-7.29-11.32 126.05 126.05 0 0 0-7.65-11.18c-6.23-8.25-19.72-25.39-23.52-30.12-3.07-3.81-19.71-25.65-25.14-37.39-4.22 9.73-21.55 49.64-25.66 59.41-4.66 11.08-15.6 46-16.51 49.33-3.09 11.21-2.9 27.7-2.14 32.27l3.74 26.77c.17.67 2.05 8.27 4.09 13.83s10.31 32.22 9.71 49.63c-.35 10.24 1.19 26.48 2.43 39.53.83 8.66 1.48 15.51 1.32 18-.12 1.73.71 9.61 1.86 20.51 2.79 26.49 7.46 70.84 6.21 97.87-1.12 24.46-.59 34.86-.59 35 0 .27 2.79 31.32 6.66 43.48 2.75 8.75 7.21 22.37 8.18 24 1.06 1.82 17.62 36 19.24 52 0 .15 4.68 24.71-.6 59.35 0 .53-5.32 59.52-6.1 66.74-.72 6.71.22 18.05 1 26a62.49 62.49 0 0 0 1.69 8.33c1.11 4.48 2.25 9.12 2.25 13.63v7.28c.59 1.4 4.31 10.16 5 11.58a19.7 19.7 0 0 1-.39 16 56.45 56.45 0 0 1-4.69 8 13.06 13.06 0 0 0-1.57 2.69c-.68 1.87-6 12.73-11.53 17.36a36.91 36.91 0 0 0-3.88 3.87c-1.77 2-3 3.41-6.07 3.27a4.91 4.91 0 0 1-3.68-1.44 8.42 8.42 0 0 1-4.06 2.53 7.19 7.19 0 0 1-5.35-.88c-1.6 1.13-6.23 3.86-10.36 1.25-1.54.82-5.83 2.88-9 1.91a4.54 4.54 0 0 1-2.11-1.34 10 10 0 0 1-7.01 2.6Zm-75.95-496.86h.11a1 1 0 0 1 .89 1.1c-.66 6.25 3.34 21.44 6.55 33.63 1.54 5.84 2.87 10.89 3.48 14.15a84.1 84.1 0 0 0 3.2 10.93 275.73 275.73 0 0 1 10.59 40.28 289.87 289.87 0 0 0 16.16 54.48c.54 1.33.92 2.3 1.14 2.9a50 50 0 0 0 3.08 6.36c1.52 2.83 2.83 5.28 3.07 6.82.33 2.16.89 5.78 10.36 26.13 9.87 21.22 14.27 31.24 14.27 34.51 0 1.31.19 3.57.49 7.32.4 5 1 12.5 1.68 23.94.81 13.88 4.84 26.19 9.5 40.44 2.1 6.43 4.27 13.07 6.42 20.61a235.62 235.62 0 0 1 8.51 56.78c.07 1.77.14 3.31.2 4.69.29 6.37.42 9.28-.41 14.41a101.73 101.73 0 0 0-.77 12.08c-.07 3.13-.15 6.1-.41 8.18a56.57 56.57 0 0 1-3.2 14 52.55 52.55 0 0 1-3 6.58 30.26 30.26 0 0 0-2.26 5 58.48 58.48 0 0 1-7 13.66c-1.78 2.62-2.45 3.48-3.22 4.48-.52.67-1.09 1.42-2.11 2.83a24.24 24.24 0 0 0-3.3 7.14c-.21.64-.37 1.15-.54 1.53-.61 1.44-4.93 7.4-5.42 8.08 0 0-2.74 4.27-1.53 7.55.58 1.58 2.05 2.72 4.35 3.4 8.69 2.56 11.35-1.63 11.46-1.81a1 1 0 0 1 .92-.48 1 1 0 0 1 .85.57 2.64 2.64 0 0 0 1.68 1.51c2.47.76 6.56-1.22 7.93-2a1 1 0 0 1 1.12.06c3.83 2.92 8.95-1.2 9-1.25a1 1 0 0 1 1.17-.06 5.6 5.6 0 0 0 4.4 1 7.4 7.4 0 0 0 4-3.21 1 1 0 0 1 1.24-.43 1 1 0 0 1 .6 1.17.8.8 0 0 0 .17.58c.19.24.74.66 2.26.74 2.07.1 2.77-.69 4.48-2.61a37.91 37.91 0 0 1 4.08-4c4.91-4.16 10.15-14.37 10.94-16.52a14.49 14.49 0 0 1 1.8-3.13 55.28 55.28 0 0 0 4.54-7.8 17.83 17.83 0 0 0 .4-14.29c-.79-1.58-5-11.45-5.15-11.87a1.09 1.09 0 0 1-.08-.39v-7.49c0-4.27-1.11-8.79-2.19-13.15a62.67 62.67 0 0 1-1.74-8.62c-.78-8-1.73-19.52-1-26.41.78-7.19 6-66.17 6.11-66.76 5.23-34.34.65-58.58.6-58.82-1.6-15.76-17.94-49.51-19-51.3-1.39-2.39-7.65-22.19-8.36-24.44-3.93-12.37-6.63-42.66-6.74-43.94 0-.14-.55-10.62.59-35.2 1.24-26.88-3.42-71.13-6.21-97.57-1.2-11.41-2-19-1.87-20.85.15-2.35-.52-9.47-1.31-17.7-1.24-13.11-2.79-29.42-2.43-39.79.58-17.09-7.55-43.3-9.6-48.87-2.16-5.9-4.15-14-4.17-14.1a.44.44 0 0 0 0-.1l-3.74-26.79c-.71-4.3-1.13-21 2.19-33.11.92-3.31 11.91-38.42 16.6-49.57s26.38-61.06 26.6-61.57a1 1 0 0 1 .94-.6 1 1 0 0 1 .91.65c3.73 10 21.15 33.32 25.75 39 3.8 4.73 17.32 21.9 23.56 30.16a129.06 129.06 0 0 1 7.74 11.33c1.66 2.65 3.72 5.94 7.26 11.28 7.22 10.86 23.62 28 29 33.68 1.61 1.68 2 2.06 2.09 2.23.46.55 8 8.17 15.27 15.53 5.94 6 12.07 12.2 15.57 15.79 8.07 8.27 16.16 22.26 16.5 22.85a.71.71 0 0 1 .08.18c1.9 5.62 1.27 8 .59 10.55a18.33 18.33 0 0 0-.64 3.25v.26a93.18 93.18 0 0 0 .51 23.52c1.15 6.67 1.17 7.11 1 9.08a50 50 0 0 0-.27 5.09c0 1.1-.11 2.11-.2 3.1-.23 2.54-.43 4.74.89 7.37a8.35 8.35 0 0 0 5.38 2.27 4.94 4.94 0 0 0 4.31-2.38c3.57-5.31 1.84-15.71 1.82-15.82-.92-7.17 0-7.84.34-8.13a1.23 1.23 0 0 1 1.23-.15 6.35 6.35 0 0 0 .81.22 16.19 16.19 0 0 1 9.63 6 84.62 84.62 0 0 0 9.38 9.39 18.11 18.11 0 0 1 2.41 2.33c.35.55 6.75 9.23 10.19 13.9l2.77 3.77a5 5 0 0 0 .34.38c.73.79 2.1 2.26 4.56 6.93a20.39 20.39 0 0 0 6.73 7.63 4.78 4.78 0 0 0 3.83.06 3 3 0 0 0 1.3-1.51c-1.81-5.68-1.79-5.69-.81-6 .35-.13 1-.19 1.4.83s4.39 6.52 6.75 9.65c1.65 1.89 3.31 2.8 4.9 2.69a5.5 5.5 0 0 0 3.53-2.1c-2.14-2.16-1.74-2.95-1.56-3.3s.72-.88 1.91-.64a3.12 3.12 0 0 0 2.27-.61 3.22 3.22 0 0 0 1-1.08c-7.14-10.67-6.53-11.55-6.08-12.19a2.65 2.65 0 0 0 .34-2.24c-.69-1.57-10.61-16.23-16.82-25.27-.6-.55-2-2.37-4.88-8.37-3.51-7.3-22.78-35.44-24.24-37.17-1.73-2-3.22-6.34-3.28-6.53a.36.36 0 0 1 0-.11c-1.55-7.36-7.72-15.17-7.78-15.25l-.09-.13c-.16-.3-16.6-29.62-34-60.88-18.68-33.59-38.62-52.91-38.81-53.09-2.21-2.07-7.08-7.22-7.28-7.43a1 1 0 0 1-.15-.21c-6.71-12.1-22.63-38.82-26.77-43.56-.79-.9-18-28.14-25.71-44.25a153 153 0 0 0-16.52-27c-8.38-11.17-21.67-18.22-39.54-21h-.22a25.86 25.86 0 0 0-3.86-.29c-3.06-.06-6.54-.13-18.27-4-16.23-5.35-21.6-11.57-21.82-11.83-10.7-10.49-12.16-25.19-12.16-38.17s4.7-25.16 4.9-25.68a1 1 0 0 1 .35-.45c15.86-11.39 9.4-27 9.12-27.65a1 1 0 0 1-.07-.56c7.75-46.79-25.31-58.86-25.64-59h-.1c-29.6-14-55.46-1.25-65 7.42-9.3 8.46-12.74 24.7-13.58 29.48a82.17 82.17 0 0 1-2 8.29l-.12.56a16.66 16.66 0 0 0 .11 9.85 7.8 7.8 0 0 0 1.08 2.18c1 1.4 1.05 1.91.35 10.45a59.07 59.07 0 0 0 1.31 18.95c.16.68.28 1.23.34 1.63.16 1.13.84 3.86 1.43 6.27.48 1.93.9 3.59 1 4.35a107.32 107.32 0 0 0 2.52 10.49l.1.37c.68 2.4 5.06 15 5.11 15.11 2.65 6.17 13.87 6.91 14 6.91a1 1 0 0 1 .93.84c.4 2.43.23 23.44.21 25.83a1 1 0 0 1-.22.61c-2.17 2.73-6.86 4.69-10.29 6.12-.57.24-1.12.46-1.61.68-3.52 1.53-17.85 3.53-18.46 3.59-30.07 2.08-43.53 16.57-51.91 29-5.54 8.2-8.09 16.05-10.56 23.63-.78 2.4-1.59 4.88-2.47 7.33-3.57 9.84-6.22 14.62-9.87 20-1.08 1.6-2.51 3.63-4.17 6-3.48 4.91-7.81 11-10.72 15.85a198.74 198.74 0 0 1-13.23 19.61c-4.2 5.26-10 10.8-18.73 18.59-9 8.05-21.8 21.11-24.85 25-3.25 4.13-18.17 23.19-18.17 23.19-.25.3-22.42 26-28 32-1.21 1.31-2.61 2.77-4.08 4.31-5.16 5.42-11.59 12.16-13.49 15.86a45.74 45.74 0 0 1-7.48 9.76c-.59.64-1.11 1.19-1.52 1.66-1.15 1.33-3.7 3.9-6 6.17-1.5 1.52-2.92 2.95-3.51 3.6-.44.49-1.22 1.22-2.2 2.16-2.43 2.3-6.1 5.78-8.06 8.67a42.58 42.58 0 0 1-3.32 4.21 10.54 10.54 0 0 0-2.46 3.63c-.5 1.71-1.86 3.51-3.6 5.79-1.06 1.41-2.26 3-3.46 4.82a100.49 100.49 0 0 0-6.2 11.24 17.25 17.25 0 0 1-1.8 2.7c-1 1.36-2.18 3.06-2.71 4a35.32 35.32 0 0 0-2.09 4.88 1.8 1.8 0 0 0 .3 1.33c.46.48 1.63.41 2.4.37s1.72-.1 2.12.66a1.43 1.43 0 0 1-.29 1.59.91.91 0 0 0-.27.77 1.85 1.85 0 0 0 .8 1c4.53 1.65 7.15-2.8 7.27-3a.53.53 0 0 1 .06-.1c5.62-7.57 5.78-7.47 6.69-6.87s.33 1.51-.14 2.35a3.13 3.13 0 0 0-.53 2.61 2.46 2.46 0 0 0 1.3 1.21c5.59-.26 8.69-6.84 9.72-9 .15-.31.26-.54.33-.67.61-1.06 7.56-10 8.35-11a1.1 1.1 0 0 1 .22-.21 1.19 1.19 0 0 1 1.52 0c.68.62.7 1.42-2 6-1.06 1.8-1.44 3.29-1 4.2a1.74 1.74 0 0 0 1 .93c3.52-.3 5-3.12 6.13-5.18.15-.29.3-.56.44-.81 1.24-2.17 8.55-11 9.32-11.73.17-.17.79-.92 1.59-1.87 2.28-2.73 6.52-7.8 11.25-12.74 5.6-5.87 8.7-13.1 10-16.19.18-.41.32-.74.43-1 .92-2 6.61-8.26 7.26-9a1.07 1.07 0 0 1 .16-.14l47.58-33.54c.18-.12 13.9-8.7 27.88-19.62a137 137 0 0 0 23.19-23.13c.63-.78 1.17-1.45 1.63-2 1.51-1.78 3.14-3.82 4.45-5.46a36.17 36.17 0 0 1 3.25-3.86c.31-.28 3-3.28 5.62-6.18 4-4.43 8.95-9.95 11.55-12.63 4.54-4.68 21-20.83 21.15-21a1 1 0 0 1 .89-.27 1 1 0 0 1 .73.58c3.09 7.22 2.18 23.21 1.63 32.77-.09 1.69-.18 3.16-.22 4.31a263.12 263.12 0 0 0 .88 30.29c.57 5.43 1.38 11.48 2.09 16.81.39 2.9.75 5.55 1 7.7.71 5.86.22 14.51-.59 20.5-.76 5.62-2.55 23.27-3.1 29.21-.18 2-.24 4.14-.29 6.41a77.48 77.48 0 0 1-1.8 16.93c-2.18 9-3.8 26.72-3.82 26.9a.78.78 0 0 1 0 .14c-.08.32-7.9 32.83-13.74 62.16-4.82 24.25-4.7 43.48-4.58 62.07 0 4.12.05 8.39 0 12.65-.14 23.22 7.41 60.72 7.95 62.67.09.35.24.78.43 1.34a73.67 73.67 0 0 1 3.13 12.35c1.44 8.18 2.12 19.07 1.78 21.58a48.34 48.34 0 0 0 0 5 45.7 45.7 0 0 1-.17 8.35c-.3 1.45.21 4.28.63 6.55a22.67 22.67 0 0 1 .57 4.54c-.12 1.79.18 6.6 2 13.26s2 12.55 1.18 15.31c-.7 2.51-4.84 27.9-6 41.34-1 11.05 3.08 48.61 4.8 64.64.35 3.2.59 5.5.67 6.4.5 5.87 1.58 37.62-.45 54.43s-7.25 21.52-10.7 24.63l-.4.37-2.66 2.39c-4.3 3.84-11.49 10.28-16.66 15.45s-11 7.4-16.11 9.41c-1.61.63-3.13 1.22-4.58 1.88-2.14 1-4.08 1.78-5.79 2.5a45.65 45.65 0 0 0-7.5 3.62c-2.6 1.78-5.3 6.15-5.33 6.2a76 76 0 0 0-3.8 6.72 4.17 4.17 0 0 0 .92 5.13 1 1 0 0 1 .37.74c.11 3.37 3.65 3.6 4.06 3.61a1 1 0 0 1 .77.41c6.93 9.32 16.45 4.69 20.23 2.26a11.21 11.21 0 0 1 5.41-1.48c11.76-.93 18.5-5.24 21.46-7.72l.3-.24c.11-.08.56-.47 1.25-1 2.63-2.2 8.81-7.36 12.22-9.47 4.38-2.72 14.37-2.27 15.3-2.22 19.21-1 22.73-4.23 22.77-4.27 7.74-7.1 4.39-20.08 3.29-24.34-.13-.51-.23-.92-.29-1.21-.69-3.27-2.23-12.4-1.65-26.55.59-14.43 11-50.28 11.42-51.8.11-.37 10.83-35.21 15.05-52.56 3.75-15.36.8-50.74-.17-62.36-.14-1.65-.24-2.91-.29-3.67-.45-6.58 2-16.44 2.09-16.86 3.62-11.4 5.73-25.67 6.29-42.46v-1.07c0-.65.05-1.47.08-2.41a123.68 123.68 0 0 1 1-13.83c.17-1 .51-3.48 1-6.92 1.58-11.32 4.52-32.37 7.13-42.94 3.33-13.46 8.89-64.65 9-65.61a1 1 0 0 1 1.03-.92Zm349.51-58.91Z"/>
  <path d="M380.21 207.61c-9.31 0-12.51-5.5-12.66-5.76a1 1 0 0 1 1.74-1c.15.25 3.53 5.89 14.08 4.52 8-1 11.19-4.26 13.73-6.84a14.94 14.94 0 0 1 2.81-2.47 19.88 19.88 0 0 1 3.43-1.82 17 17 0 0 0 2.12-1c2.91-1.69 14-10.24 14.43-17.06a1 1 0 1 1 2 .14c-.58 8.28-13.14 17.33-15.43 18.65a15.92 15.92 0 0 1-2.34 1.16 19.42 19.42 0 0 0-3.15 1.68 14.35 14.35 0 0 0-2.43 2.17c-2.61 2.66-6.19 6.3-14.91 7.43a28 28 0 0 1-3.42.2Zm54.01-25.34a1 1 0 0 1-1-.75c-1.47-5.79-9.87-12.08-9.95-12.14a1 1 0 1 1 1.19-1.61c.37.27 9.05 6.78 10.69 13.25a1 1 0 0 1-.72 1.22 1 1 0 0 1-.21.03Z"/>
  <path d="M447.91 221.45a.68.68 0 0 1-.2 0c-7.28-1.51-11.22-11-13.34-16.15-.41-1-.76-1.85-1-2.38-1.51-2.94-7.95-7.84-11.71-9.92-4-2.22-6.1-7.31-6.18-7.52a1 1 0 0 1 1.85-.75s1.92 4.65 5.3 6.52c4 2.2 10.74 7.3 12.52 10.76.31.6.67 1.45 1.11 2.53 2 4.77 5.65 13.66 11.89 14.95a1 1 0 0 1 .78 1.18 1 1 0 0 1-1.02.78Zm13.2 21.69h-.21a1 1 0 0 1-.76-1.19c.14-.67 0-.87 0-.87a.76.76 0 0 1-.26 0c-8.73-1.15-19.43-9.95-25.18-14.68-1.36-1.12-2.44-2-3.17-2.54a29.73 29.73 0 0 1-3.09-2.75c-3.32-3.22-7.45-7.24-15.62-8.1s-13.28.5-19.37 2.06c-2.24.57-4.55 1.17-7.12 1.68-7.39 1.46-9.65-.2-11.65-1.67a8.12 8.12 0 0 0-1.9-1.14c-2.23-.84-3.17.58-3.26.75a1 1 0 0 1-1.37.35 1 1 0 0 1-.37-1.34 4.48 4.48 0 0 1 5.7-1.63 9.77 9.77 0 0 1 2.38 1.4c1.75 1.28 3.55 2.6 10.08 1.31 2.52-.49 4.8-1.08 7-1.65 6-1.53 11.7-3 20.08-2.1 8.86.93 13.45 5.39 16.8 8.65a28.8 28.8 0 0 0 2.87 2.56c.78.56 1.88 1.47 3.27 2.61 5.57 4.59 15.92 13.1 24.07 14.24a2.07 2.07 0 0 1 1.58.64 2.85 2.85 0 0 1 .45 2.64 1 1 0 0 1-.95.77ZM571.5 418.85a1 1 0 0 1-1-.83c-1.4-8.45 4.89-19.16 17.7-30.17 12.25-10.53 22.15-6.29 22.57-6.1a1 1 0 1 1-.82 1.82c-.37-.16-9.2-3.87-20.45 5.8-12.26 10.53-18.3 20.59-17 28.32a1 1 0 0 1-.82 1.15Zm9.08 13.03a1 1 0 0 1-1-.77c-2.17-9.25 9.21-22.32 9.7-22.87 20-22 32-13.85 32.53-13.49a1 1 0 0 1-1.15 1.63c-.13-.09-11.24-7.33-29.89 13.19-.1.12-11.18 12.84-9.24 21.08a1 1 0 0 1-.74 1.2Zm12.23 14.29a1 1 0 0 1-1-1v-.5c-1.33-12.42 3.92-22.94 15.17-30.4 18.66-12.37 27.37-2.28 27.73-1.84a1 1 0 0 1-1.54 1.28c-.32-.38-8-9.09-25.08 2.23-10.59 7-15.53 16.88-14.29 28.52 0 .34.06.58.06.71a1 1 0 0 1-1 1ZM608 462.39a1 1 0 0 1-.94-.67c-3.59-10.52 4.22-25.34 16.73-31.73 12.74-6.51 21.69.58 22.06.89a1 1 0 0 1-1.26 1.55c-.34-.27-8.35-6.56-19.89-.66s-19 19.83-15.75 29.3a1 1 0 0 1-.62 1.27 1 1 0 0 1-.33.05Zm16.77 17.01a1 1 0 0 1-.95-.7c-2.07-6.44-2.29-20.18 11.64-26.1 14.79-6.28 22.52.33 22.84.61a1 1 0 0 1-1.33 1.5c-.29-.25-7.18-6-20.73-.27-15.75 6.69-10.57 23.48-10.52 23.65a1 1 0 0 1-.65 1.26 1 1 0 0 1-.3.05Zm12.51 12.7a1 1 0 0 1-1-.83c-.6-3.36 2.82-15.57 15.11-19.4s18.83 2.9 19.11 3.18a1 1 0 0 1-1.44 1.4c-.24-.25-6.12-6.07-17.07-2.67s-14.25 14.3-13.74 17.14a1 1 0 0 1-.81 1.16Zm11.19 14.23a1 1 0 0 1-.92-.59 7.59 7.59 0 0 1 .12-6.4c1.88-4.15 7.21-8 13.9-10 9.39-2.86 18.15 2.61 18.52 2.84a1 1 0 0 1 .3 1.38 1 1 0 0 1-1.38.31c-.08 0-8.36-5.21-16.86-2.62-6.06 1.84-11 5.36-12.66 8.95a5.54 5.54 0 0 0-.11 4.75 1 1 0 0 1-.5 1.32 1 1 0 0 1-.41.06Zm5.53 8.77a1 1 0 0 1-1-.92c-.31-3.73 3.87-10 16.67-11.9 12.14-1.83 17.6 3.4 17.83 3.62a1 1 0 0 1 0 1.42 1 1 0 0 1-1.41 0c-.07-.07-5.07-4.74-16.13-3.08-11.36 1.71-15.22 6.9-15 9.77a1 1 0 0 1-.91 1.08Z"/>
  <path d="M655.18 521.1a1 1 0 0 1-.84-1.54c.29-.45 7.46-10.93 36.1-6.15a1 1 0 1 1-.33 2c-27.17-4.53-34 5.18-34.1 5.28a1 1 0 0 1-.83.41Zm-1.3 7.39a1 1 0 0 1-.44-.1 1 1 0 0 1-.46-1.33 9.33 9.33 0 0 1 5.52-4.38c3.69-1.12 8.16-.23 13.26 2.67 7-1.61 22.39-5 24.18-4.36a1 1 0 0 1 .58 1.28 1 1 0 0 1-1.29.59c-1.44-.27-14.56 2.48-23.4 4.53a1.06 1.06 0 0 1-.72-.11c-4.74-2.75-8.77-3.66-12-2.7a7.28 7.28 0 0 0-4.34 3.36 1 1 0 0 1-.89.55ZM661 577a10.41 10.41 0 0 1-4.28-.91.94.94 0 0 1-.4-.31 7.45 7.45 0 0 1-1.19-4 4.58 4.58 0 0 1 1-3.18 5.73 5.73 0 0 1 4.23-1.82c2.79-.18 5 .66 6.33 2.34a6 6 0 0 1 .69 5.67 1 1 0 0 1-.4.52A12 12 0 0 1 661 577Zm-3.2-2.62a9.62 9.62 0 0 0 7.83-.56 3.85 3.85 0 0 0-.48-3.45c-.87-1.13-2.55-1.7-4.62-1.58a3.9 3.9 0 0 0-2.82 1.1 2.54 2.54 0 0 0-.58 1.75 6.18 6.18 0 0 0 .68 2.73Zm-3.92-25.29a1 1 0 0 1-.78-1.64c2.26-2.76 13.66-2.34 16.9-2.16 16.47-15.21 33.29-12.24 34-12.11a1 1 0 0 1-.37 2c-.17 0-16.78-2.92-32.58 11.89a1 1 0 0 1-.74.27c-6.79-.42-14.5 0-15.66 1.41a1 1 0 0 1-.77.34Z"/>
  <path d="M672.73 554.65a1.45 1.45 0 0 1-.29 0 1 1 0 0 1-.67-1.25c1.76-5.92-1.41-12.53-1.8-13.31-2.77-3.51-5.68-5.31-8.63-5.35h-.11c-4.15 0-7.07 3.45-7.1 3.48a1 1 0 0 1-1.41.13 1 1 0 0 1-.13-1.41c.15-.17 3.56-4.2 8.63-4.2h.15c3.61 0 7 2.14 10.24 6.2l.09.15c.17.31 4.08 7.83 2 14.88a1 1 0 0 1-.97.68Z"/>
  <path d="M655.18 555.68a1 1 0 0 1-.44-.1 1 1 0 0 1-.46-1.34c2.53-5.1 11.27-3.52 14.36-2.77.38-2.18.71-4.38.73-5a10.86 10.86 0 0 0-5.68-4.25c-3-1-6.13-.36-9.24 1.78a1 1 0 1 1-1.14-1.65c5.35-3.67 9.88-2.75 12.75-1.32s5.26 4.18 5.31 5.26-.78 5.69-.94 6.62a1 1 0 0 1-1.27.78c-3-.89-11.2-2.36-13.08 1.45a1 1 0 0 1-.9.54Zm14.22-9.17Zm-14.11 15.27a1 1 0 0 1-.76-.35 1 1 0 0 1 .1-1.4c.07-.07 7.13-6 15.15-1a1 1 0 0 1 .31 1.38 1 1 0 0 1-1.38.31c-6.74-4.26-12.53.58-12.77.79a1 1 0 0 1-.65.27Zm-.29 6.01a1 1 0 0 1-.71-.29 1 1 0 0 1 0-1.41c7-7.05 15.92-.15 16-.08a1 1 0 0 1-1.24 1.57c-.31-.24-7.59-5.86-13.35-.08a1 1 0 0 1-.7.29Z"/>
  <path d="M663.33 569.06a1.12 1.12 0 0 1-.43-.1 1 1 0 0 1-.47-1.33 20 20 0 0 0 1.67-9.3c-.46-3.88-.8-15.54.24-17.16.45-.71 3.42-8 4.85-11.53.84-2 1.25-3 1.43-3.46-.18-1.73-3.44-13.35-7-21.94-3.7-8.86-12.71-30.81-12.8-31l-27.18-63.62-9.71-21.5a1 1 0 1 1 1.82-.82l9.72 21.52 27.19 63.65c.1.23 9.11 22.17 12.81 31 2.89 6.93 7.74 22 7.06 23.39-.09.19-.75 1.82-1.45 3.54-2.91 7.14-4.57 11.14-5 11.84-.48 1.1-.54 10.8.05 15.86a21.41 21.41 0 0 1-1.85 10.38 1 1 0 0 1-.95.58Zm57.98 27.72a1 1 0 0 1-.9-.57c-.74-1.56-3.18-6.7-3.38-7.62s-3.29-7-4.15-8.61c-.46-.86-10-19.33-10.6-21.24-.57-1.71-7.78-16.51-8.2-17.27-.13-.23-13.37-25.62-13.71-28.17a74.63 74.63 0 0 0-2.44-10c-.64-1.49-19.07-45-19.26-45.44a1 1 0 0 1 1.84-.78c.19.44 18.62 43.95 19.26 45.43a74.44 74.44 0 0 1 2.58 10.49c.33 2 12.4 25.55 13.47 27.47.39.69 7.72 15.71 8.35 17.61.54 1.62 9.64 19.36 10.48 20.92.5.94 4.08 8 4.33 9.12.13.53 1.75 4.08 3.23 7.2a1 1 0 0 1-.47 1.33.94.94 0 0 1-.43.13Z"/>
  <path d="M721.14 602.7a3.39 3.39 0 0 1-.88-.12c-2.3-.61-4.35-3.52-4.82-5.84a3.23 3.23 0 0 1 .55-2.62c1.2-1.62 3.72-1.9 4-1.93a1 1 0 0 1 1.08.9 1 1 0 0 1-.89 1.09 4.28 4.28 0 0 0-2.6 1.14 1.2 1.2 0 0 0-.19 1c.37 1.81 2 3.94 3.37 4.3a1.18 1.18 0 0 0 1.31-.43 1 1 0 0 1 1.41-.09 1 1 0 0 1 .09 1.41 3.19 3.19 0 0 1-2.43 1.19Zm15.75 1.3a1 1 0 0 1-.91-.6c-.12-.27-2.86-6.54-3.74-8.8-.53-1.34-3-6.25-5-10.18-1.27-2.54-2.37-4.73-2.69-5.44-.45-1-4-6.93-6.56-11.25-2.12-3.54-3.32-5.57-3.56-6s-1.32-3.44-3.17-8.54-4.62-12.77-5.06-13.5a1 1 0 0 1 .34-1.38 1 1 0 0 1 1.35.3c.42.66 2 4.82 5.25 13.9 1.4 3.87 2.86 7.88 3.08 8.32s1.8 3.1 3.49 5.92c3.49 5.85 6.2 10.42 6.67 11.46.29.67 1.39 2.83 2.65 5.35 2.11 4.18 4.49 8.92 5.05 10.36.87 2.22 3.68 8.65 3.71 8.71a1 1 0 0 1-.52 1.32.93.93 0 0 1-.38.05Z"/>
  <path d="M736.34 608.13a4.63 4.63 0 0 1-.67-.06c-1.64-.32-3.07-1.77-3.92-4a3.72 3.72 0 0 1 0-3 5.82 5.82 0 0 1 3.25-2.6 1 1 0 0 1 1.25.65 1 1 0 0 1-.64 1.26 3.79 3.79 0 0 0-2 1.56 1.71 1.71 0 0 0 0 1.4c.58 1.51 1.52 2.55 2.44 2.73a2.36 2.36 0 0 0 2.1-1 1 1 0 0 1 1.47 1.36 4.43 4.43 0 0 1-3.28 1.7Zm-54.51-45.82a1 1 0 0 1-1-.79c-1.47-7 2.18-13 9.29-15.28 5.05-1.61 18.57-2.28 19.15-2.31a1 1 0 0 1 1 1 1 1 0 0 1-1 1c-.14 0-13.83.68-18.63 2.22-4.6 1.48-9.45 5.75-7.94 13a1 1 0 0 1-.78 1.18.68.68 0 0 1-.09-.02Zm9.01 8.52h-.1a1 1 0 0 1-.9-1.09c0-.11 1.17-11.4 13.77-11.42a1 1 0 0 1 0 2c-10.75 0-11.74 9.21-11.78 9.6a1 1 0 0 1-.99.91Z"/>
  <path d="M702.93 558.69a1 1 0 0 1-.89-.56 1 1 0 0 1 .45-1.34c1.32-.65 8-3.86 10.74-3 1.61.53 2.14.14 2.14.13a1 1 0 0 1 1.38-.11 1 1 0 0 1 .11 1.44c-.2.24-1.33 1.4-4.26.44-1.41-.47-6.24 1.4-9.22 2.87a1 1 0 0 1-.45.13Zm6.4 13.19a1 1 0 0 1-.88-1.47c1.64-3.09 5-4 7.17-4.6a8.31 8.31 0 0 0 1.63-.55c.8-1.25 3.59-2.24 4.42-2.51a1 1 0 1 1 .62 1.9 9.18 9.18 0 0 0-3.42 1.76c-.45.71-1.4 1-2.73 1.33-2 .54-4.69 1.28-5.92 3.6a1 1 0 0 1-.89.54Z"/>
  <path d="M698 580.57a1.17 1.17 0 0 1-.26 0 1 1 0 0 1-.71-1.22c0-.11 3.07-11.14 11.83-10.48a1 1 0 0 1-.15 2c-7.07-.52-9.72 8.9-9.74 9a1 1 0 0 1-.97.7Zm5.61 7.58a1 1 0 0 1-.73-1.69c.24-.25 5.74-6 12-5.15 1.25-1.1 5.36-4.43 9.89-4.82a42.07 42.07 0 0 0 5.71-.7 1 1 0 0 1 .61 1.91 39.44 39.44 0 0 1-6.14.78c-4.63.4-9 4.57-9.07 4.61a1 1 0 0 1-.88.26c-5.39-1-10.64 4.43-10.7 4.49a1 1 0 0 1-.69.31Zm5.39 8.01a1 1 0 0 1-.63-.22 1 1 0 0 1-.15-1.4c.21-.26 5.22-6.48 10.15-6.21a5.54 5.54 0 0 0 3.76-1.2 11.24 11.24 0 0 1 7.09-2c4.51.1 5.33-.9 5.41-1a1 1 0 0 1 1-.89 1 1 0 0 1 1 1 2 2 0 0 1-.66 1.42c-1.08 1.09-3.38 1.61-6.8 1.53a9.19 9.19 0 0 0-6 1.67 7.49 7.49 0 0 1-4.93 1.51c-3.21-.19-7.23 3.89-8.49 5.46a1 1 0 0 1-.75.33Zm25.63-11.91Zm0 0Zm-10.41 17.08a1.11 1.11 0 0 1-.43-.09 1 1 0 0 1-.47-1.34c1.89-4 8.34-5.41 9.78-5.68 1.3-1.05 3.45-2.59 4.66-2.45a1 1 0 0 1-.25 2 13 13 0 0 0-3.35 2.17.92.92 0 0 1-.48.22c-1.91.31-7.19 1.73-8.55 4.61a1 1 0 0 1-.91.56Zm-67.75-81.6a1 1 0 0 1-1-.7c-.08-.25-8.32-26.18-22.46-47.82-.27-.43-26.89-41.95-32.15-51-5.36-9.24-11.75-24.32-13.69-32.27a46.71 46.71 0 0 1-1.17-14.26v-1.13c0-.28 0-.62.07-1.06.23-2.39.77-8-3.8-18.13-1.64-2.81-31.86-54.95-32.76-62.25a1 1 0 0 1 2-.25c.7 5.77 23.71 46.38 32.52 61.54l.05.09c4.82 10.68 4.24 16.64 4 19.19 0 .36-.06.65-.06.87v1.23a44.41 44.41 0 0 0 1.2 13.66c1.9 7.81 8.2 22.64 13.48 31.74s31.83 50.52 32.1 50.94c14.29 21.87 22.61 48 22.69 48.31a1 1 0 0 1-.65 1.26 1 1 0 0 1-.37.04Z"/>
  <path d="M642.77 498.41a1 1 0 0 1-.85-.46l-11.14-17.29-15.35-21.84c-7-9.17-26.12-38.14-26.31-38.43-4.84-9.21-15.63-23.67-18.34-25.28-.91 1.69-2 9.46-2.45 16.2a1 1 0 0 1-1.07.92 1 1 0 0 1-.92-1.07c.82-11.31 2.07-17.39 3.73-18.07.74-.3 2.12-.86 9.77 9.37a141.65 141.65 0 0 1 11 16.91c.14.21 19.21 29.12 26.2 38.27l15.39 21.9 11.18 17.33a1 1 0 0 1-.84 1.54Z"/>
  <path d="M569.86 395.77a1 1 0 0 1-.52-.15 1 1 0 0 1-.34-1.37c10.57-17.3 30.71-22.18 31.56-22.38a1 1 0 0 1 .46 1.95c-.2.05-20.19 4.91-30.31 21.47a1 1 0 0 1-.85.48Zm-19.95-7.09a1 1 0 0 1-1-.91C548.49 382.89 550 373.2 565 363c16-10.87 27.55-4.45 28-4.17a1 1 0 1 1-1 1.73c-.44-.25-11-6-25.92 4.09-14.15 9.62-15.61 18.49-15.22 22.93a1 1 0 0 1-.91 1.08Zm-12.85-16.31a1 1 0 0 1-1-.75c-1-3.89.07-16.23 16.39-26.5s29.1-4.62 29.64-4.38a1 1 0 0 1-.82 1.83c-.12-.06-12.48-5.38-27.75 4.24s-16.4 20.82-15.52 24.32a1 1 0 0 1-1 1.24ZM523.51 354a1 1 0 0 1-1-.73c-1.62-5.78 1.44-17.56 16.51-26.31a43.62 43.62 0 0 1 30.63-4.75 1 1 0 0 1 .72 1.21 1 1 0 0 1-1.22.72c-.15 0-14.9-3.7-29.12 4.55-14 8.12-17 19.05-15.59 24a1 1 0 0 1-.69 1.23.9.9 0 0 1-.24.08Z"/>
  <path d="M558 399.12a1 1 0 0 1-.66-.25 1 1 0 0 1-.1-1.41c2.27-2.63 16.46-23.77 16.6-24 5.12-8.12-.76-18.42-2.69-21.8-.32-.55-.52-.92-.64-1.18-.53-1.15-11.93-19.24-20.25-32.45l-6.28-10a69.14 69.14 0 0 0-17.16 5.41c-16 7.27-15.09 15-14.75 17.88 0 .24 0 .45.07.63a1 1 0 0 1-.71 1 1 1 0 0 1-1.16-.47l-6.5-11.62c-5.42-7.83-5.64-14-5.73-16.6V304a9.86 9.86 0 0 0-.51-3.18A67.51 67.51 0 0 0 477 273.27c-.05 0-10.05-7-13.66-8.54l-.87-.35c-3.5-1.42-10-4.06-11.78-8.93a8.12 8.12 0 0 1 .73-6.79c.28-.45 6.34-9.94 25.77-10.67 17.91-.68 31.72 7.45 43.43 25.57.2.36 16.91 30.35 20.6 36.37.64 1.05 2 3.15 3.7 5.93 9.41-1.36 14.78.36 15.11.47a1 1 0 0 1-.63 1.9c-.08 0-4.85-1.53-13.29-.48L552 317c11.25 17.86 19.89 31.6 20.39 32.71.09.2.28.54.55 1 2.08 3.64 8.4 14.72 2.63 23.88-.6.9-14.42 21.47-16.77 24.2a1 1 0 0 1-.8.33ZM479.25 240h-1.94c-18.28.69-24.06 9.58-24.11 9.67a6.07 6.07 0 0 0-.59 5.1c1.46 4 7.67 6.55 10.66 7.76l.89.37c3.8 1.6 13.66 8.48 14.07 8.77a68.27 68.27 0 0 1 21.16 28.47A11.21 11.21 0 0 1 500 304v.3c.09 2.66.29 8.19 5.42 15.62L510 328c.44-4.22 3.24-10.51 16-16.31a72.52 72.52 0 0 1 16.82-5.45c-1.53-2.43-2.68-4.27-3.27-5.23-3.71-6.06-20.43-36.08-20.6-36.39-10.83-16.78-23.5-24.62-39.7-24.62Z"/>
  <path d="M415.65 361.35c-12.57 0-28.57-3.42-48-14l-3.07 1.79a1 1 0 0 1-.67.12 57.94 57.94 0 0 0-15.93-.29 1.11 1.11 0 0 1-.54-.07l-4.17-1.75c-4.57 2.16-30.52 14.18-37.66 12.29a1 1 0 0 1-.69-.64c-.22-.66-5.52-16.09-6-28.07s-.14-29.72 0-32v-.49c.19-2.68.69-9.81-3.37-14.93-1-1.3-2.07-2.47-3.06-3.61-3.41-3.89-6.35-7.24-7.19-13.12a1 1 0 1 1 2-.28c.75 5.28 3.38 8.28 6.71 12.08 1 1.16 2.06 2.35 3.13 3.69 4.54 5.72 4 13.41 3.79 16.31v.48c-.15 2.28-.45 19.78 0 31.82.38 10.44 4.72 24.08 5.67 26.94 6.37.86 28.13-8.61 36.19-12.45a1.06 1.06 0 0 1 .82 0l4.32 1.82a58.87 58.87 0 0 1 15.93.28l3.23-1.89a1 1 0 0 1 1 0c43 23.45 68.57 11.67 77.56 5.52 8.55-5.85 20.22-22.23 26.87-34.67 6.95-13 14.41-19.25 14.72-19.51l.14-.09c16.85-9.61 58.41-12.16 60.17-12.26a1 1 0 0 1 1.05.93 1 1 0 0 1-.94 1.06c-.42 0-42.7 2.62-59.21 12-.73.62-7.74 6.82-14.17 18.86-6.76 12.64-18.69 29.34-27.5 35.37-5.16 3.47-15.49 8.76-31.13 8.76Z"/>
  <path d="M373 282.36c-11.06 0-26.66-8.4-33.63-12.51l-.25-.15c-1.86-1.09-7.42-10.62-9.08-13.52-4.31-7.65 11.22-19.33 13-20.64a1 1 0 0 1 1.58.92c-1.38 13.17 1.59 16.13 9.07 22.14 7.33 5.9 22.62 7.29 29.18 6.73 7-.6 21.54-4.68 41.08-11.48a244.39 244.39 0 0 0 24.73-9.85c2.31-1.06 4.31-2 6.46-2.79 6.41-2.43 21.69-8.87 21.84-8.93a1 1 0 0 1 1.27.45 1 1 0 0 1-.32 1.3c-4.15 2.8-8.76 6.11-9.3 6.79a5.93 5.93 0 0 0-.47.93c-.89 2-2.74 6.09-10 11.07-6.7 4.56-24.51 10.58-35.16 14.18-3.47 1.17-6.2 2.1-7 2.46-1.38.62-5.63 1.89-11.51 3.63-8 2.38-19 5.64-25.92 8.36a15.29 15.29 0 0 1-5.57.91Zm-30.56-43.82c-5 4.06-13.24 12.08-10.66 16.65 3.32 5.81 7.36 12.18 8.35 12.78l.26.15c6.24 3.69 27.39 15.4 37.43 11.45 7-2.74 17.58-5.88 26.08-8.41 5.37-1.59 10-3 11.25-3.53.89-.41 3.53-1.3 7.18-2.53 9.85-3.33 28.19-9.53 34.63-13.94 6.82-4.66 8.46-8.28 9.34-10.23a6.67 6.67 0 0 1 .72-1.35 16.74 16.74 0 0 1 2.3-2c-4.7 1.94-10.24 4.21-13.51 5.45-2.09.79-4 1.65-6.34 2.74a246.07 246.07 0 0 1-24.86 9.92c-19.68 6.85-34.44 11-41.56 11.58-6.15.53-22.37-.54-30.61-7.16-7.19-5.77-10.83-9.3-9.96-21.57Z"/>
  <path d="M382.1 628.52c-8.28 0-14.91-2.42-19.74-7.22-4.68-4.65-10-14-8.94-32.31v-.33c.27-4.75-.09-12.41-.26-16.1v-.79c-.09-2-.3-4.07-.65-7.49-.21-2.11-.49-4.76-.82-8.27-.65-6.82-1.23-14.31-1.65-19.78-.16-2.06-.3-3.89-.42-5.35-.44-5.46-.61-20.25 0-25.18.23-1.83.37-4.55.52-7.42.23-4.46.46-9.08 1.09-11.08s.38-17.14 0-26.7c-.15-2 0-55.09.74-64.53.1-1.24.3-3.24.55-5.84.87-8.81 2.32-23.57 3-38.31.9-19.47 7.23-48 9.22-53.48s7.49-19.86 15-32.42c7.26-12.12 5.5-25.33 5.48-25.46s-2.52-16-3.86-24-4.7-14.65-7.53-15a21.12 21.12 0 0 1-7.19-2.5 1 1 0 0 1 1-1.72 19.63 19.63 0 0 0 6.42 2.23c4.55.57 8 9 9.26 16.67 1.33 8 3.84 23.9 3.86 24.06a44.43 44.43 0 0 1-5.73 26.8c-7.45 12.35-12.85 26.51-14.84 32-1.9 5.27-8.23 34-9.1 52.9-.69 14.78-2.14 29.57-3 38.41-.25 2.58-.45 4.57-.54 5.8-.76 9.4-.89 62.26-.74 64.26.1 2.5.91 24.24-.1 27.41-.55 1.76-.79 6.45-1 10.58-.15 2.91-.29 5.66-.53 7.57-.59 4.73-.42 19.51 0 24.76.12 1.47.26 3.3.42 5.36.43 5.47 1 12.95 1.65 19.75.33 3.5.6 6.15.82 8.25.35 3.46.57 5.55.66 7.61v.79c.17 3.72.53 11.45.26 16.3v.34c-1.05 17.53 4 26.41 8.35 30.77 5 4.94 12.1 7.15 21.19 6.55a1 1 0 0 1 1.06.93 1 1 0 0 1-.93 1.06c-1.01.09-2.01.12-2.98.12Z"/>
  <path d="M387.24 650.14a1 1 0 0 1-1-1c0-2.06-2-21.71-3.08-31.94a1.44 1.44 0 0 0-.79-.77 2.61 2.61 0 0 0-2 .6c-.32.22-.68.49-1.08.78-3.79 2.79-10.84 8-21.09 2.37-11.05-6-26.47-35.53-30.62-49.19-1.33-4.4-3.13-9.84-5-15.59-3.78-11.45-7.69-23.29-8.59-28.87a38.78 38.78 0 0 0-5.06-14.7c-.86-1.58-1.74-3.21-2.69-5.29a1 1 0 0 1 .49-1.32 1 1 0 0 1 1.32.49c.93 2 1.8 3.62 2.63 5.17A40.82 40.82 0 0 1 316 526.2c.87 5.42 4.75 17.18 8.51 28.56 1.91 5.77 3.71 11.21 5.05 15.64 4 13 19.21 42.29 29.66 48 9.13 5 15.27.48 18.95-2.23.42-.31.8-.59 1.14-.82a4.22 4.22 0 0 1 3.72-.85 3.52 3.52 0 0 1 2.07 2.08 1 1 0 0 1 .05.23c.13 1.21 3.16 29.63 3.11 32.33a1 1 0 0 1-1.02 1Zm-19.65-302.89a1 1 0 0 1-1-1c0-.27.24-27 8.5-45.76.39-1.11 10.29-29.11 16.64-38.57l.94-1.39c5.68-8.45 8-11.95 10.94-18.78 1.89-4.45 7.2-14.85 11.47-23.21 2.75-5.38 5.13-10 5.82-11.58 1.68-3.79 7-20.73 8.71-32.19s6.74-17.44 6.95-17.69a1 1 0 0 1 1.53 1.29c0 .06-4.87 5.87-6.5 16.7-1.75 11.62-7.15 28.84-8.86 32.71-.71 1.59-3.1 6.26-5.86 11.67-4.26 8.33-9.56 18.7-11.42 23.08-3 7-5.37 10.55-11.12 19.11l-.94 1.4c-6.21 9.24-16.34 37.9-16.44 38.19-8.12 18.42-8.36 44.77-8.36 45a1 1 0 0 1-1 1.02Z"/>
  <path d="M431.32 161.55h-.17a4.4 4.4 0 0 1-3.37-1.74 1 1 0 1 1 1.57-1.25 2.38 2.38 0 0 0 1.87 1c2.52.09 6-3.05 7.09-4.27a1 1 0 0 1 1.48 1.35c-.19.19-4.55 4.91-8.47 4.91Z"/>
  <path d="M579.4 374.82c-10.13 0-14.21-9.26-14.72-10.51l-12.49-17.77c-.05-.07-10.05-12.31-19.49-25.26a71.81 71.81 0 0 0-23.19-20.34C496 297.15 489 303.62 486 307.82a51 51 0 0 0-3.27 6.28c-2.47 5.19-5.53 11.66-9.95 16.57-1.72 1.91-3.59 4.4-5.56 7-5.64 7.51-12.67 16.87-22.27 21-12.79 5.5-34 6.53-53.92 2.62-19.45-3.8-27.4-12-27.72-12.31a1 1 0 0 1-.26-.49c-.08-.41-1.92-10.09 1-25.85 2.79-14.9 9.42-33.61 13.2-42.55a66.17 66.17 0 0 1 6.14-11.34c.76-1.16 1.47-2.27 2.11-3.41 2.13-3.8 9.75-22.31 12.7-32.45 2.24-7.71 7.75-21.5 10.71-28.91 1-2.42 1.73-4.32 2-5.11.62-1.68 3.06-6.28 5.64-11.15s5.28-10 6.37-12.54c2.18-5.13 6-15.2 6-15.3a1 1 0 0 1 1.87.7c0 .11-3.84 10.21-6 15.38-1.13 2.66-3.83 7.76-6.45 12.7-2.43 4.59-4.95 9.34-5.52 10.89-.29.82-1 2.65-2 5.17-2.95 7.38-8.44 21.11-10.65 28.73-3 10.25-10.71 29-12.87 32.87-.68 1.2-1.41 2.33-2.19 3.52a64.72 64.72 0 0 0-6 11c-3.75 8.86-10.32 27.4-13.09 42.14-2.6 13.85-1.37 23.06-1.09 24.79 1.35 1.27 9.36 8.19 26.45 11.53 19.29 3.78 40.49 2.77 52.75-2.5 9.12-3.92 16-13 21.46-20.36 2-2.67 3.89-5.19 5.67-7.17 4.23-4.69 7.22-11 9.63-16.09a51.47 51.47 0 0 1 3.45-6.57c3.27-4.64 11-11.81 25.76-7.62a.49.49 0 0 1 .17.06 72.06 72.06 0 0 1 24 21c9.4 12.89 19.37 25.1 19.47 25.22l12.6 17.93a.9.9 0 0 1 .12.24c.15.42 3.88 10.28 14.42 9.25 1.08-.25 13.41-3 18.07-2.82a1 1 0 0 1-.07 2c-4.55-.15-17.49 2.75-17.62 2.78h-.12c-.57.14-1.14.17-1.74.17Z"/>
  <path d="M487.18 626.48a1 1 0 0 1-.84-.45c-10.86-16.5-13.13-41.35-13.22-42.4a258.64 258.64 0 0 0-6.47-38.1c-1.19-4.48-5-13.66-8.11-21-1.86-4.44-3.46-8.27-4.13-10.22-1.79-5.22-3.67-23.82-3.75-24.61S448 468 447.85 460s6.53-39.66 6.82-41c.1-.47 9.9-46.41 10.19-47.86s1.12-5.57 9.6-18.76c6.81-10.6 11.9-23.93 14.64-31.09.49-1.3.9-2.38 1.23-3.17 1.94-4.8 4.13-10.23 9.81-8.72 4.82 1.29 24.78 27 27 30 .24.32 23.27 30.82 26.05 34.62s17.78 19.11 17.93 19.26a1 1 0 1 1-1.43 1.4c-.62-.63-15.3-15.62-18.11-19.48s-25.8-34.28-26-34.59c-8.37-10.86-22.83-28.41-26-29.25-3.7-1-5.28 2.19-7.44 7.54-.32.78-.72 1.85-1.21 3.13-2.77 7.23-7.91 20.69-14.83 31.46-5.49 8.55-8.63 14.63-9.32 18.07-.29 1.47-9.79 46-10.2 47.88-.06.33-6.91 32.78-6.77 40.55s2.77 29.23 2.8 29.45 1.93 19.18 3.65 24.18c.65 1.89 2.24 5.69 4.08 10.1 3.11 7.43 7 16.67 8.2 21.29a259.87 259.87 0 0 1 6.53 38.43c0 .26 2.33 25.41 12.9 41.48a1 1 0 0 1-.28 1.38.94.94 0 0 1-.51.18Z"/>
  <path d="M416.2 358.84c-8.73 0-15.53-2.83-17.52-5.24a14.19 14.19 0 0 1-3-11c.71-4.4 3.58-8.21 8.53-11.31 8-5.31 21.09-5.16 39 .46l1.29.39c.07 0 3.39.51 8.71 1.67q1.93-2.8 4.08-6.28c6.22-10.12 16.8-24.84 20.78-30.37l1.31-1.84c1.8-2.56 10.48-10.91 26.35-15.56 16.39-4.79 32.19-6.31 36.86-5.52a1 1 0 0 1-.33 2c-4.57-.77-20.47.94-36 5.47S482.42 294.53 481 296.5c-.2.29-.66.93-1.33 1.85-4 5.53-14.51 20.2-20.7 30.25-1.28 2.09-2.51 4-3.68 5.71a199.14 199.14 0 0 1 25.92 7.8c17.62 6.71 21.92 7.09 22.09 7.1a1 1 0 0 1-.12 2c-.18 0-4.55-.32-22.69-7.23a199.88 199.88 0 0 0-26.43-7.89c-7.85 11.15-12.8 14.31-13.05 14.46a41.79 41.79 0 0 1-24.81 8.29Zm3.28-29.4c-5.86 0-10.59 1.19-14.16 3.56-4.45 2.8-7 6.14-7.64 9.95a12.32 12.32 0 0 0 2.55 9.38c2.6 3.16 21.7 9.75 39.71-3.43.1-.07 4.72-3 12-13.27-4.73-1-7.68-1.47-7.74-1.48-.24 0-.59-.15-1.6-.46-8.99-2.84-16.73-4.25-23.12-4.25Z"/>
  <path d="M417.57 353.72a13.19 13.19 0 0 1-3-.33c-2.92-.67-4.8-2.32-5.18-4.5-.31-1.82-.51-4.48 1.33-6.63 2-2.3 5.79-3.35 11.63-3.24 4 .08 6.4 1 7.47 2.75 1.32 2.17 0 4.73-.65 6.11-.08.18-.16.33-.22.46a1.62 1.62 0 0 1-.1.18c-2.63 3.6-7.25 5.2-11.28 5.2Zm3.88-12.72c-4.67 0-7.77.86-9.23 2.56-1 1.14-1.26 2.72-.88 5 .33 1.92 2.67 2.67 3.66 2.89 3.86.9 9.44-.36 12.15-4l.21-.43c.52-1 1.47-3 .73-4.18s-2.67-1.72-5.81-1.79Zm6.57 6.92Zm82.36-14.79c-2.25 0-8.63-.87-24.39-7.52-14.29-6-19.4-7.64-22.15-8.5a20.48 20.48 0 0 1-2.71-1c-2.64-1.24-22.56-7.87-47-7.29-11.3.27-22.5.34-32.39.4-11.56.07-20.69.13-24.72.48-10.75.95-26.46 0-35.84-.57-3.68-.22-6.59-.4-7.48-.35h-.91c-3.45.16-9.22.41-12.06 4.72a1 1 0 0 1-1.38.29 1 1 0 0 1-.29-1.39c3.4-5.16 10.06-5.46 13.64-5.61l.88-.05c1-.05 3.68.11 7.72.35 9.33.57 24.94 1.52 35.54.58 4.12-.36 13.29-.42 24.89-.49 9.88-.06 21.07-.13 32.35-.4 24.83-.6 45.17 6.21 47.88 7.48a20.22 20.22 0 0 0 2.45.88c2.79.87 8 2.49 22.34 8.56 19.34 8.18 24 7.37 24.15 7.34a1 1 0 0 1 1.19.74 1 1 0 0 1-.69 1.2 5 5 0 0 1-1.02.15Zm-202.71 24.5a4.37 4.37 0 0 1-3.52-1.62c-3.89-1-34.82-9.7-45.46-32.67a1 1 0 0 1 1.82-.84c10.71 23.12 44.14 31.58 44.47 31.66a1 1 0 0 1 .6.42 2.4 2.4 0 0 0 2.35 1 7 7 0 0 0 5.13-3.34c1.23-2.55 3.28-16.33-1.33-21.94-4.17-5.1-11-.06-11.24.16a1 1 0 0 1-1.21-1.59c3-2.25 9.68-5.11 14 .16 5.29 6.46 3 21.1 1.58 24.09a8.82 8.82 0 0 1-6.79 4.45Z"/>
  <path d="M303.46 340.05a1 1 0 0 1-1-.87 119.66 119.66 0 0 1 .86-29.95c1.57-10.14 2.56-14.18 3.28-17.12a48.25 48.25 0 0 0 1.1-5.39c.14-1 .34-2.13.54-3.31.95-5.45 2.13-12.24-.37-15.79-3.25-4.62-6.34-14.22-3-21.12a1 1 0 0 1 1.33-.47 1 1 0 0 1 .47 1.34c-2.95 6.16-.1 14.88 2.87 19.1s1.72 11.47.7 17.28c-.2 1.16-.39 2.26-.53 3.25a47.91 47.91 0 0 1-1.14 5.58c-.71 2.92-1.69 6.9-3.25 17a118.2 118.2 0 0 0-.85 29.38 1 1 0 0 1-.86 1.12Z"/>
  <path d="M502.42 317.8a.94.94 0 0 1-.51-.14c-.09-.05-9.37-5.5-16.41-10.81-8.22-6.2-42.12-25.92-46.41-24.64-1.88.55-5.36 1.24-9.77 2.11-7.79 1.55-18.45 3.67-29.4 6.75-15.34 4.33-40.78 4.62-41 4.62h-.11c-23.78-2.51-31.43-7.41-36-10.33-2-1.32-3.29-2.13-5.1-2.07-5 .11-14 8.76-17 12.08a1 1 0 1 1-1.48-1.35c.47-.51 11.6-12.57 18.44-12.73 2.43 0 4 1 6.23 2.38 4.42 2.83 11.81 7.56 35.07 10 1.34 0 25.72-.38 40.46-4.54 11-3.11 21.73-5.24 29.55-6.79 4.36-.86 7.8-1.55 9.59-2.07 6-1.75 42.57 20.73 48.19 25 6.94 5.24 16.12 10.64 16.21 10.69a1 1 0 0 1-.5 1.86Z"/>
  <path d="M299.68 317.41a1 1 0 0 1-.52-.14c-1.92-1.19-18.77-11.81-17.51-19.49.13-.8.23-1.71.35-2.72.92-7.84 2.64-22.45 22.67-36.56.57-.32 12.18-6.78 25.49-5.44a1 1 0 0 1 .9 1.1 1 1 0 0 1-1.1.89c-12.69-1.28-24.11 5.08-24.22 5.14-19.21 13.54-20.8 27-21.75 35.11-.12 1-.24 2-.37 2.8-.88 5.4 11.68 14.44 16.59 17.46a1 1 0 0 1 .33 1.38 1 1 0 0 1-.86.47ZM419.15 341a1 1 0 0 1-1-1c0-.36.31-8.9.63-11.64.25-2.1 8.45-22.48 9.39-24.8 8.6-21.32 9.68-23 10.25-23.22 1.59-1 22.14-18.26 32.77-29a94.67 94.67 0 0 1 22.73-16.78 1 1 0 0 1 .89 1.79 92.93 92.93 0 0 0-22.2 16.39c-9.11 9.24-29.68 27.05-33.13 29.29-1.84 2.88-18.39 44-18.72 46.6s-.61 11.38-.61 11.47a1 1 0 0 1-1 .9Zm20.29-59a2.06 2.06 0 0 1-.37.2 1 1 0 0 0 .37-.2ZM428 342.29a1 1 0 0 1-.57-1.82c.08-.05 7.47-5.16 10.58-9.55 2.13-3 6.51-12.2 9.41-18.29 1.69-3.56 2.67-5.6 3.05-6.21l.66-1.1c11.45-19.16 20.1-31 25-34.35 1.22-.82 2.65-2 4.3-3.26 7.75-6.12 20.72-16.37 43.15-19.48a1 1 0 0 1 1.13.86 1 1 0 0 1-.85 1.12c-21.89 3-34.6 13.07-42.19 19.07-1.68 1.33-3.14 2.48-4.42 3.35-3.27 2.19-10.15 9.83-24.42 33.72l-.68 1.13c-.34.54-1.55 3.08-2.94 6-3.11 6.52-7.36 15.45-9.59 18.58-3.31 4.68-10.76 9.83-11.07 10.05a1 1 0 0 1-.55.18Zm-13-.49a1 1 0 0 1-.82-.42l-7-9.91c-3.47-.68-28.94-5.68-37.6-7-5.56-.88-16.15-.61-29.83.75l-.57.06c-1.27.11-19.2 3.32-26.64 4.66l-5 9.93a1 1 0 1 1-1.78-.9l5.24-10.42a1 1 0 0 1 .71-.53c1.05-.19 25.66-4.62 27.31-4.77l.55-.06c13.85-1.38 24.62-1.64 30.34-.74 9.29 1.47 37.79 7.08 38.07 7.14a1 1 0 0 1 .62.4l7.27 10.23a1 1 0 0 1-.23 1.39 1 1 0 0 1-.64.19Z"/>
  <path d="M409 347.36c-5.22 0-19.6-3-22.84-4-4.73-1.41-16.23-5.8-17.61-6.33-.88-.1-6.82-.65-18.26 0-12.37.72-34.23 8.35-34.45 8.43a.92.92 0 0 1-.33.06h-6.81a1 1 0 0 1 0-2h6.62c2.19-.77 22.61-7.77 34.83-8.49 12.6-.73 18.5 0 18.74 0a1.05 1.05 0 0 1 .24.06c.12 0 12.72 4.88 17.58 6.33 5.44 1.62 21.33 4.44 23 3.89a1 1 0 0 1 1.33.4 1 1 0 0 1-.42 1.38 4.06 4.06 0 0 1-1.62.27Z"/>
  <path d="M309.34 363.18a16.82 16.82 0 0 1-2.62-.19 1 1 0 1 1 .32-2c11.74 1.89 37.33-12.21 40-13.72.62-1.11 3.6-6.84 4.75-17.83 1.35-13 5.35-29 8.09-35.21s8.61-21.49 8.66-21.64 4.39-13 5.11-23.46c.64-9.24-3.84-29.12-5.45-35.36a1 1 0 1 1 1.93-.5c.07.24 6.3 24.67 5.52 36-.74 10.69-5 23.46-5.22 24-.08.19-6 15.5-8.71 21.77-2.69 6.11-6.61 21.82-7.94 34.6s-5 18.66-5.18 18.91a1.07 1.07 0 0 1-.34.33c-1.06.64-25.17 14.3-38.92 14.3ZM347.79 348Z"/>
  <path d="M383.94 250.62c-14.62 0-17.95-1.08-19-2l-.74-.61c-2.93-2.36-3.68-3.65-1.74-17.41a1 1 0 0 1 2 .28c-1.87 13.25-1.08 13.88 1 15.57l.79.66c1 .87 6.94 2.18 35.3 1.16h.9c5.58-.19 32.47-8.06 38.31-13.54a168.31 168.31 0 0 1 13-10.79 1 1 0 0 1 1.19 1.61 163.67 163.67 0 0 0-12.8 10.63c-6.25 5.87-33.71 13.89-39.61 14.09h-.9c-7.27.24-13.06.35-17.7.35Z"/>
  <path d="M417.66 234.27c-6.11 0-24.8-1.56-25-1.58-.85-.08-6 .35-10.61.73-7.86.65-11.67.94-12.54.76-1.7-.34-3.19-2.74-3.58-4.26a1.93 1.93 0 0 1 .43-2.12 1 1 0 0 1 1.45 1.36c0 .79 1.33 2.91 2.1 3.06s7.26-.4 12-.79c6.2-.52 10-.82 11-.73 3.13.32 24.37 1.91 26.07 1.53 4-1 8.85-2.74 10.24-4.83 2-3 13-12.22 13.43-12.61a1 1 0 0 1 1.41.12 1 1 0 0 1-.12 1.41c-3.11 2.6-11.51 9.87-13.06 12.19-2.09 3.14-8.69 5-11.44 5.66a9.12 9.12 0 0 1-1.78.1Z"/>
  <path d="M407.75 331.57a1 1 0 0 1-1-1.29c.08-.28 8.49-28.66 11.43-36.48 3-8 4.15-21.33 3.16-27.48-.13-.8-.29-1.78-.48-2.89-1.39-8.18-4-23.39-2.73-30.4 1.07-6.07 5.78-14 8.59-18.72.8-1.35 1.49-2.51 1.69-3 3.3-7.66 6.29-19.18 4.79-28.53a1 1 0 1 1 2-.32c1.57 9.78-1.52 21.72-4.92 29.64-.25.58-.87 1.62-1.81 3.2-2.56 4.31-7.34 12.34-8.34 18-1.18 6.67 1.36 21.66 2.73 29.71.19 1.13.36 2.11.48 2.91 1 6.4-.16 20.24-3.26 28.5-2.91 7.76-11.3 36.07-11.38 36.35a1 1 0 0 1-.95.8Z"/>
  <path d="M364.15 563.23a1.52 1.52 0 0 1-1.06-.45c-4.69-4.69-8.57-25.28-8.57-33.81 0-1.74.59-31.1.79-33.38.09-.94-1.63-3.35-3.48-5.35l-5 4.72c-.22 2.83-1.55 20.45-1.55 26.53 0 1.74.32 5.07.68 8.93 1.39 14.68 2.27 27.09-1 30.21a1.87 1.87 0 0 1-1.94.49c-2.84-.93-5.4-9.84-9.47-32.88-.42-2.35-.75-4.21-.88-4.72-.9-3.36-2.77-21.08-1.41-36.4.89-10.09.87-19.47.86-26.33 0-3.6 0-6.45.12-8.14.39-4.62-.39-59.24-.39-59.79 0-.3-.48-29.86-2.52-40.9-2.08-11.23-3.21-32.09 2.18-43.56.48-1.42 9.3-27.19 24.2-47.42l.15-.16c3.8-3.29 9.85-9.57 9.93-12.41.14-4.32 1.46-15.8 1.51-16.29l.3-5.16a1 1 0 0 1 1.06-.94 1 1 0 0 1 .94 1.06l-.31 5.21c0 .18-1.36 11.94-1.5 16.19-.14 4.53-9.12 12.55-10.53 13.78-15 20.42-23.78 46.56-23.87 46.83v.11c-5.22 11-4.09 31.4-2.05 42.4 2.06 11.2 2.53 40 2.55 41.23 0 2.26.78 55.27.39 60-.14 1.6-.13 4.41-.12 8 0 6.89 0 16.33-.87 26.51-1.4 15.86.66 33.1 1.35 35.7.16.6.46 2.31.92 4.89 3.5 19.84 6.21 30.36 8 31.3 2.83-2.87 1.31-19 .4-28.58-.38-4.07-.69-7.28-.69-9.12 0-6.66 1.52-26.24 1.58-27.07a1 1 0 0 1 .31-.65l6-5.66a1 1 0 0 1 1.4 0c.83.84 5 5.14 4.73 7.64-.2 2.13-.79 31.54-.79 33.2 0 8.54 3.83 27.5 7.7 32.08 1-1.2 3.1-6.57 3.1-11.2 0-.45.16-2.78.51-7.58.94-12.92 2.89-39.82 2.43-46.92-.2-3.15.08-10.19.43-19.11.7-18.07 1.77-45.37-.21-65.57-1.8-18.38 3.71-43.7 5.52-52 .25-1.17.47-2.18.49-2.38.13-1.72 7.1-29.08 7.78-30.49s9.93-29.89 11.3-35.13c.5-1.9 1.34-5.46 2.32-9.59 1.75-7.44 3.94-16.69 5-19.91 1.66-4.94 14.83-27.5 15.39-28.45a1 1 0 0 1 1.37-.36 1 1 0 0 1 .36 1.37c-.14.23-13.63 23.33-15.22 28.08-1.05 3.13-3.22 12.33-5 19.73-1 4.14-1.82 7.72-2.32 9.64-1.43 5.43-10.69 33.91-11.44 35.48-.61 1.37-7.42 28.09-7.58 29.79 0 .26-.15.84-.54 2.64-1.79 8.25-7.25 33.34-5.48 51.41 2 20.33.92 47.71.21 65.84-.34 8.86-.62 15.85-.42 18.9.47 7.24-1.49 34.23-2.43 47.2-.29 3.93-.51 7-.51 7.43 0 4.76-2.3 12.32-4.56 13.25a1.52 1.52 0 0 1-.55.09Z"/>
  <path d="M372 621.82a1 1 0 0 1-.28 0c-11.87-3.44-9.49-34.93-8.92-37.47.62-2.8.19-17 0-22.2a1 1 0 1 1 2-.08c0 .77.79 19.08 0 22.71s-2.26 32.28 7.53 35.12a1 1 0 0 1-.28 2Zm-8.57-422.76a1 1 0 0 1-.55-.17c-4.85-3.2-4.43-10.63-4.23-14.2 0-.5.05-.93.06-1.27 0-.7.07-1.39.13-2 .18-2 .35-3.81-.84-6a3.74 3.74 0 0 1 .28-4.33c.53-.84.64-1-.13-1.81a7.3 7.3 0 0 1-1.6-7.13c0-.14.06-.25.07-.33v-.16c.51-3.32.24-4.39.11-4.69-2.76.26-6.18-4.67-7.49-8.25s1.6-8.69 4.63-13.21l.2-.29c1.23-1.85 3-9.39-.08-16.17-2.7-5.91-14-.91-14.16-.86a1 1 0 1 1-.82-1.82c.54-.24 13.28-5.86 16.8 1.85 3.25 7.1 1.7 15.44-.08 18.11l-.2.3c-1.52 2.26-5.56 8.29-4.41 11.4 1.44 3.93 4.44 7.11 5.45 6.95a1.72 1.72 0 0 1 1.52.48c.9.9 1.05 2.9.5 6.5v.16c0 .12-.05.28-.1.48a5.35 5.35 0 0 0 1.09 5.29 3 3 0 0 1 .38 4.27c-.5.78-.8 1.25-.22 2.28a11.24 11.24 0 0 1 1.08 7.12c-.06.65-.12 1.27-.12 1.9 0 .36 0 .82-.07 1.35-.19 3.44-.55 9.86 3.34 12.42a1 1 0 0 1-.55 1.84Z"/>
  <path d="M357.61 157.43a1 1 0 0 1-.06-2 20 20 0 0 0 3.36-.41 6.44 6.44 0 0 1 1.08-.23c2-.36 7.44-1.31 7.71-4.34.42-4.86-6.12-5.78-6.4-5.82a1 1 0 1 1 .26-2c4.2.56 8.54 3.29 8.13 8s-6.91 5.71-9.36 6.14c-.34.06-.6.1-.72.14a21.59 21.59 0 0 1-3.94.53Zm29.08-22.84c-3.53 0-8.07-1.23-13.42-5.32a1 1 0 0 1-.39-.71 7.42 7.42 0 0 1 1.83-5.16c1.74-2 4.52-3.07 8.26-3.22 6.31-.25 9.95 1.91 11.88 3.77a7.18 7.18 0 0 1 2.45 4.52c0 1.44-1.91 3.47-4.45 4.72a13.83 13.83 0 0 1-6.16 1.4ZM374.88 128c7.8 5.8 13.53 4.87 16.28 3.78s4.06-2.83 4.14-3.32a5.49 5.49 0 0 0-1.83-3c-1.36-1.3-4.52-3.45-10.42-3.21-3.17.13-5.47 1-6.84 2.54a5.46 5.46 0 0 0-1.33 3.21Z"/>
  <path d="M382.4 130.46c-2.82 0-5-1.69-5-3.84s2.2-4.42 5-4.42 5 2.38 5 4.42-2.18 3.84-5 3.84Zm0-6.26a3 3 0 0 0-3 2.42c0 1 1.42 1.84 3 1.84s3-.86 3-1.84a3 3 0 0 0-3-2.42Zm-33.58 7.8c-2.61 0-4.74-1.73-4.74-3.85a4.75 4.75 0 0 1 9.49 0c0 2.15-2.13 3.85-4.75 3.85Zm0-6.3a2.86 2.86 0 0 0-2.74 2.45c0 1 1.25 1.85 2.74 1.85s2.75-.85 2.75-1.85a2.87 2.87 0 0 0-2.75-2.42Z"/>
  <path d="M356.59 125.73a1 1 0 0 1-.62-.22c-.39-.31-9.63-7.56-14.94-1a1 1 0 1 1-1.55-1.26c5.24-6.45 13.9-2.34 17.74.74a1 1 0 0 1-.63 1.78ZM345 135.17c-2.11 0-3.44-.65-4-2a1 1 0 0 1 .52-1.32 1 1 0 0 1 1.31.52c.46 1 3 1.05 6.75 0a54.25 54.25 0 0 0 6.51-2.3 1 1 0 1 1 .81 1.83 53.45 53.45 0 0 1-6.78 2.4 20.14 20.14 0 0 1-5.12.87Zm37.75-3.32c-3.5 0-7.07-.69-9.49-2.59a1.43 1.43 0 0 1-.56-1.34c.18-1.2 2.23-2.59 6.1-4.12a1 1 0 1 1 .74 1.86A21.9 21.9 0 0 0 375 128c3.16 2.1 8.59 2.11 12.4 1.44 3.06-.54 4.6-1.34 5-1.71-.42-.65-3.59-1.62-6.81-2a1 1 0 1 1 .24-2c3.32.41 8.84 1.51 8.59 4.23-.08.87-.85 1.6-2.35 2.25a25.48 25.48 0 0 1-9.32 1.64Z"/>
  <path d="M347.37 132.27c-3.08 0-5.77-.59-6.26-2.57a3.47 3.47 0 0 1 .37-2.79c1.14-1.85 3.92-2.45 5.95-2.88.43-.1.82-.18 1.13-.27a1.15 1.15 0 0 1 .26 0c.22 0 5.4 0 8.65 3.46a1 1 0 0 1 0 1.42 1 1 0 0 1-1.41 0c-2.41-2.54-6.35-2.81-7.08-2.84l-1.09.25c-1.58.34-4 .86-4.68 2a1.52 1.52 0 0 0-.12 1.25c.4 1.59 7.35 1.23 13.33-.09a1 1 0 0 1 1.19.77 1 1 0 0 1-.76 1.19 48.59 48.59 0 0 1-9.48 1.1Zm53.63 65.3a1 1 0 0 1-.7-1.71c.11-.24.31-.93.46-1.44.58-2 1.25-4.33 2.75-4.82.68-.22 1.61-2.72 2.42-4.92.42-1.14.9-2.44 1.45-3.79 3.6-8.75-1.08-37.35-1.42-38.52-.08-.24-.25-.72-.47-1.35s-.37-1.06-.56-1.59c-12 5.35-18.63 2.7-18.92 2.57-18.75-7.56-20.13-13.44-20.22-14.5a10.08 10.08 0 0 1 1.52-7.26c1.52-2.11 4-3.39 7.28-3.79 13.05-1.58 22 1.82 27.45 10.39.24.35 2.41 3.65 2.76 5.58.14.75.7 2.49 1.3 4.26l1.21-.62 14.58-6.13h.09s4.13-1.46 11-11.06c1.31-1.83 5.18-3.92 8.27-3 1.8.52 4 2.21 4.3 7.33a1 1 0 0 1-.94 1.06 1 1 0 0 1-1.05-.94c-.13-2.19-.73-4.91-2.87-5.53s-5.26 1.12-6.08 2.26c-7 9.75-11.35 11.58-12 11.79l-14.46 6.09c-.48.25-.95.49-1.42.71.23.67.45 1.28.62 1.78s.4 1.14.49 1.39c.35 1.06 5.26 30.43 1.37 39.9-.54 1.32-1 2.59-1.43 3.72-1.24 3.38-2.07 5.61-3.67 6.13-.52.25-1.2 2.59-1.45 3.48-.41 1.4-.61 2.11-1.16 2.44a1 1 0 0 1-.5.09Zm-.52-1.86Zm-19.87-77.65a47.34 47.34 0 0 0-5.77.37c-2.74.33-4.72 1.33-5.9 3a8.24 8.24 0 0 0-1.18 5.78.62.62 0 0 1 0 .19s.74 5.43 19 12.79c.07 0 6.21 2.42 17.51-2.62a45.35 45.35 0 0 1-1.44-4.74 19.66 19.66 0 0 0-2.48-4.86c-4.18-6.71-10.53-9.91-19.71-9.91Z"/>
  <path d="M377.27 203.77a1 1 0 0 1-.23-2c23-5.43 23-43.15 23-43.53 1.32-17.37-8.08-25.15-8.18-25.23a1 1 0 0 1-.15-1.4 1 1 0 0 1 1.4-.16c.42.34 10.33 8.45 8.93 26.86 0 1.53.07 39.61-24.53 45.41Z"/>
  <path d="M357.07 172.32c-3 0-5.39-.32-6.3-1.15l-.49-.44c-2.87-2.61-6.13-5.55-6.83-8.47a1 1 0 0 1 .74-1.2 1 1 0 0 1 1.21.73c.55 2.32 3.69 5.17 6.22 7.45l.49.45c2.12 1.93 22.36-.82 24.63-2a8.9 8.9 0 0 1 2.09-.78c3.25-1 9.29-2.84 11.42-8.11 2.78-6.86-3.5-24.73-3.56-24.91a1 1 0 0 1 1.89-.67c.27.76 6.59 18.78 3.53 26.33-2.5 6.15-9.38 8.26-12.69 9.27a12.23 12.23 0 0 0-1.58.55c-1.18.85-13.03 2.95-20.77 2.95Z"/>
  <path d="M368.51 192.43h-1c-6.92-.29-14.87 0-14.95 0a1 1 0 0 1-.07-2c.08 0 8.1-.29 15.1 0 6.46.27 13.66-2.64 16.93-4.67 2.25-1.4 6.32-8.12 7.31-15.07.54-3.77.39-9.15-3.37-13.35-.71-.65-11.5-10.37-16.84-12.76a53.83 53.83 0 0 1-8.33-4.78 19.13 19.13 0 0 0-2.46-1.53 7.24 7.24 0 0 1-1.61-1.06c-1.1-.89-1.89-1.53-3.88-.53a51.34 51.34 0 0 0-5.06 3.24c-4.41 3-7.23 4.87-9 4.74a1 1 0 0 1 .16-2c1.2.12 5.1-2.61 7.69-4.39a50 50 0 0 1 5.3-3.39c3.14-1.58 4.81-.22 6 .76a5.39 5.39 0 0 0 1.15.79 19.88 19.88 0 0 1 2.78 1.7 51.77 51.77 0 0 0 8 4.61c5.79 2.6 16.94 12.71 17.41 13.14l.07.07c3.4 3.79 4.75 9 3.89 15-1.1 7.73-5.54 14.81-8.24 16.49-2.74 1.77-9.86 4.99-16.98 4.99Z"/>
  <path d="M357 157a1.7 1.7 0 0 1-.54-.09 2.88 2.88 0 0 1-1.76-1.35c-1.51-2.33-1.25-6.92.78-13.62 1.58-4.5 5.67-16.64 5.86-19.27.06-.71.13-1.39.21-2.1a38.37 38.37 0 0 0-.2-11.07c-.22-1.61 1.32-25.74 12.89-39.76 5.17-6.27 11.57-9.64 19-10a1 1 0 1 1 .1 2c-6.87.35-12.79 3.48-17.59 9.29-11.16 13.52-12.66 36.67-12.45 38.2a40.51 40.51 0 0 1 .21 11.58c-.08.68-.15 1.34-.2 2-.25 3.44-5.73 19.08-6 19.75-2.33 7.71-1.68 10.68-1.09 11.77a1.3 1.3 0 0 0 .62.64c.75-.47 2-3.69 2.46-4.93a8.54 8.54 0 0 1 1.08-2.34 47.46 47.46 0 0 0 1.59-4.8c.88-2.86 1.86-6.1 2.75-8.16 1.82-4.24 8.36-7.08 8.63-7.2a1 1 0 1 1 .79 1.84c-.06 0-6.08 2.64-7.58 6.15-.84 2-1.82 5.14-2.67 8-1.22 4-1.58 5.08-2 5.55-.13.22-.45 1.06-.71 1.73-1.01 2.9-2.27 6.19-4.18 6.19Zm3.47-9.27Zm.08-.1Zm-1.06 29.58c-1 0-9.82-.31-12-9.33a1 1 0 0 1 .08-.69c.17-.34 4.11-8.16 10.12-6.27 1.68-.38 9.39-1.48 21.28 6.38a1 1 0 0 1 .39 1.17c-.1.27-2.58 6.6-19.74 8.74Zm-10-9.44c2.09 7.54 9.62 7.45 9.95 7.45 12.35-1.55 16.41-5.27 17.58-6.78-12-7.6-19-5.55-19.11-5.52a1 1 0 0 1-.64 0c-3.92-1.45-7.03 3.52-7.78 4.85Z"/>
  <path d="M374.75 170.27a1 1 0 0 1-.91-.58c-.92-.84-7.41-.95-10.9-1-2 0-3.9-.07-5.4-.17-4.81-.32-6.66 1.16-6.68 1.18a1 1 0 0 1-1.4-.11 1 1 0 0 1 .08-1.4c.24-.21 2.5-2.05 8.14-1.67 1.44.1 3.31.13 5.29.17 8.3.14 12 .39 12.71 2.24a1 1 0 0 1-.58 1.29 1.12 1.12 0 0 1-.35.05Zm-.94-.64Zm16.77 11.51h-.72c-4.85-.16-14.2-8.12-15.25-9a1 1 0 1 1 1.31-1.51c2.7 2.34 10.5 8.43 14 8.54 2.91.1 28.7.11 38.18-28.51a1 1 0 0 1 1.27-.64 1 1 0 0 1 .63 1.26c-9.38 28.31-34.13 29.86-39.42 29.86Z"/>
  <path d="M431.59 151.58a8.09 8.09 0 0 1-2.06-.27 1 1 0 0 1 .52-1.94 6.36 6.36 0 0 0 5.72-1.35c3.33-2.55 5.23-7.24 5.23-8.12a6.94 6.94 0 0 0-4-5.38c-2.87-1.06-2.27-5.2-1.47-7.48a1 1 0 0 1 1.89.67c-.32.9-1.2 4.39.27 4.93a8.86 8.86 0 0 1 5.31 7.26c0 1.75-2.34 6.89-6 9.71a8.81 8.81 0 0 1-5.41 1.97Z"/>
  <path d="M432 156.26a7 7 0 0 1-3.25-.72 1 1 0 1 1 1-1.74c.2.1 4.39 2.22 9.63-3.54 4.2-4.62 7.09-13.31 6.45-19.39-.3-2.89-1.34-5-3.09-6.25a1 1 0 0 1-.23-1.4 1 1 0 0 1 1.4-.22c2.19 1.57 3.55 4.23 3.91 7.66.69 6.57-2.43 16-7 20.94-3.47 3.77-6.64 4.66-8.82 4.66Zm-78.63-38.67a1 1 0 0 1-1-1c0-1.55-.25-38.11 8.19-46.66a1 1 0 1 1 1.42 1.4c-7.86 8-7.62 44.87-7.61 45.24a1 1 0 0 1-1 1Zm-5.58 4.26a1 1 0 0 1-.89-.55l-2.71-5.3a.92.92 0 0 1-.11-.46c0-3.87.24-23.27 1.11-25.42a1 1 0 1 1 1.86.75c-.5 1.28-.87 13.5-1 24.44l2.6 5.1a1 1 0 0 1-.44 1.35 1 1 0 0 1-.42.09Zm29.48 1.76a1 1 0 0 1-.62-.22c-.25-.2-6.21-5-5.57-12.34.08-1 2.31-24.46 23-39.14.12-.11 17-13 42.36 3.56a1 1 0 0 1-1.09 1.68c-24.07-15.78-39.44-4.14-40.08-3.64-16 11.35-21.51 29.63-22.2 37.71-.54 6.29 4.77 10.56 4.82 10.6a1 1 0 0 1 .16 1.41 1 1 0 0 1-.78.38Z"/>
  <path d="M440.43 124.81a1 1 0 0 1-.52-.15 1 1 0 0 1-.33-1.38c5-8.12-2.43-27.44-2.5-27.63-3-7.05-7.11-11.34-12.28-12.74-8.61-2.33-17.37 4.14-17.46 4.21h-.08a48 48 0 0 0-22.75 33.69 1 1 0 1 1-2-.18 50 50 0 0 1 23.66-35.2c.79-.58 9.82-7 19.14-4.5 5.8 1.56 10.38 6.25 13.61 13.92.33.85 7.87 20.47 2.35 29.43a1 1 0 0 1-.84.53Zm-96.89 34.44a1 1 0 0 1-1-.77c-.36-1.61.08-7 .61-12.95.12-1.38.22-2.48.26-3 .13-2.37 2-8.36 2.05-8.62a.61.61 0 0 1 0-.12l1.35-2.91a1 1 0 0 1 1.82.84l-1.33 2.85a54.44 54.44 0 0 0-1.95 8.07c0 .57-.13 1.7-.26 3.11-.34 3.81-1 10.89-.65 12.32a1 1 0 0 1-.75 1.2.86.86 0 0 1-.15-.02Zm31.72 42.65a1 1 0 0 1-.56-1.82 7.6 7.6 0 0 0 2.79-10l-7.68-16.05-2.06-4.73c-.22-.66-.21-2.19 2.12-5.89 2.56-4.07 7.22-12.63 8.16-15.65s2.21-15.17 2.22-15.29a1 1 0 1 1 2 .21c-.05.5-1.28 12.38-2.3 15.67-1.07 3.44-6 12.4-8.38 16.13-1.73 2.74-1.9 3.92-1.91 4.17l2 4.55 7.65 16s3.85 7.47-3.45 12.51a1 1 0 0 1-.6.19Zm-5.61-33.16Z"/>
  <path d="M360.46 199.45a11 11 0 0 1-3.17-.32 1 1 0 0 1-.46-.32 17.62 17.62 0 0 1-3-13.93c1.44-6.79-1.06-9.19-1.09-9.21a1 1 0 0 1-.08-1.41 1 1 0 0 1 1.4-.1c.14.12 3.44 3.08 1.73 11.13a15.91 15.91 0 0 0 2.46 12c5.88 1.38 40.63-4.76 49.84-9.55 8.88-4.62 13.26-14.42 13.6-15.21 3.44-12.29 5.2-13.79 6.09-13.95a21.23 21.23 0 0 0 .47-4.43c.13-3 .22-4.3 1.12-4.73.73-.64 3.07-5.1 3.55-6.53a13.38 13.38 0 0 1-1.23-4.1v-.12c-.08-2.61.32-9.18 5.89-13.76a7.94 7.94 0 0 1 6.27-2.08 9 9 0 0 1 5.54 3.68 1 1 0 0 1-1.67 1.11 7 7 0 0 0-4.18-2.81 6 6 0 0 0-4.69 1.65c-4.88 4-5.23 9.83-5.16 12.14v.19a13.81 13.81 0 0 0 .92 3.08 1.12 1.12 0 0 1 .38.75c.07 1-2.95 7.12-4.47 8.41a20 20 0 0 0-.27 3.2c-.14 3.16-.27 5.13-1.18 6a1.52 1.52 0 0 1-.81.38c-1 1-3.15 7.19-4.66 12.58a.76.76 0 0 1 0 .11c-.18.45-4.68 11.13-14.54 16.26-8.82 4.53-38.06 9.89-48.6 9.89Zm69.86-48.27-.16.09Zm2.82-7.92a1 1 0 0 0 .54.37 1.1 1.1 0 0 1-.54-.37Zm1-1.57.24.09a1.1 1.1 0 0 0-.21-.09Zm0 0Z"/>
  <path d="M421.61 175.92a1 1 0 0 1-1-.93c-.65-9.85-2.82-36.3-5.13-40.32-2.18-3.83-13.82-23.06-28.09-26.39-10.7-2.49-13-1.55-15.06-.71a11.24 11.24 0 0 1-2.25.72c-2.71.52-12.06 2.11-18.8 1.07-5.8-.9-9.37.87-9.41.89a1 1 0 0 1-1.34-.43 1 1 0 0 1 .42-1.34c.17-.09 4.14-2.1 10.63-1.1s15.5-.55 18.13-1a9.89 9.89 0 0 0 1.86-.61c2.32-1 5-2 16.28.62 15.07 3.51 27.11 23.38 29.37 27.33 3 5.25 5.29 39.72 5.38 41.19a1 1 0 0 1-.93 1.06Z"/>
  <path d="M433.93 143.66a1 1 0 0 1-.88-.52l-.2-.36c-.72-1.27-2.92-5.16-9.85-19.74-8.8-18.51-24-31.57-41.71-35.84-20-4.82-32.15.66-34.07 3.09a1 1 0 1 1-1.57-1.29c2.9-3.65 16.46-8.52 36.1-3.78 18.3 4.4 34 17.86 43.06 36.92 6.9 14.51 9.07 18.36 9.78 19.62l.21.38a1 1 0 0 1-.4 1.35.9.9 0 0 1-.47.17Z"/>
  <path d="M435.9 128.37a1 1 0 0 1-1-1c0-.24.53-24.84-17.66-45-19.84-22-36.44-18.92-36.6-18.88a1 1 0 0 1-.51-1.94c4.43-1.15 21 0 38.59 19.48 18.75 20.81 18.18 46.19 18.18 46.45a1 1 0 0 1-1 .89Z"/>
  <path d="M394.66 126.19a1 1 0 0 1-1-.66 1 1 0 0 1 .6-1.28l3.69-1.34c6.42-4.19 16.33-11 17.57-12.58a18.76 18.76 0 0 1 2.36-2.14c6.3-5.31 23-19.42 14.22-34a1 1 0 1 1 1.71-1c9.71 16.08-8 31-14.64 36.59a23 23 0 0 0-2.06 1.84c-1.86 2.43-16.5 12-18.16 13.09a.7.7 0 0 1-.21.11l-3.74 1.31a1.06 1.06 0 0 1-.34.06Zm47.64-7.76a1 1 0 0 1-.43-1.9 16.74 16.74 0 0 0 6.85-7.39 1 1 0 1 1 1.79.89 18.38 18.38 0 0 1-7.79 8.31 1.06 1.06 0 0 1-.42.09Zm-46.14 41.34a15.05 15.05 0 0 1-4.53-.57 1 1 0 1 1 .64-1.89c.12 0 8.75 2.71 22.14-5.69 10.74-6.74 13.84-5.17 15.58-2.48l.19.28a1 1 0 0 1 .6 1.09 1 1 0 0 1-1.16.81 2 2 0 0 1-1.3-1.09c-.75-1.15-2.3-3.54-12.85 3.08-8.47 5.34-15.2 6.46-19.31 6.46Zm-44.03 330.08h-.4a3.39 3.39 0 0 1-2.35-1.95c-3.57-6.38-3.51-30.14-3.14-32.77.12-.91.12-13.06.12-25.92 0-21.52 0-48.29.45-55.42.48-7.7 0-25.53 0-25.71a1 1 0 0 1 1-1 1 1 0 0 1 1 1c0 .18.48 18.1 0 25.89-.44 7.06-.45 33.8-.45 55.29 0 22.77 0 25.7-.18 26.36-.3 1.7-.31 26.9 3.22 31.78a1.18 1.18 0 0 0 .63.52 1 1 0 0 0 .83-.31c4.31-3.83 4.67-30.1 4.44-39.9 0-.51-.2-49.8 0-61.5s5.55-36.95 5.78-38a1 1 0 0 1 2 .42c-.06.26-5.55 26.05-5.74 37.64s0 60.94 0 61.44c.08 3.68.67 36.28-5.11 41.42a3.05 3.05 0 0 1-2.1.72Zm-4.93-34.56Zm134.21 686.47a1 1 0 0 1-1-.67c-2.6-7.45 4.56-20.7 6.91-25 .22-.41.39-.72.48-.9a17.22 17.22 0 0 1 2.06-2.87c1-1.22 2.23-2.74 2.32-3.63.18-1.75 2.74-18.56 3.6-20.92a82 82 0 0 0 1.56-8.34c.6-3.68 1.27-7.86 1.95-10.85 1.34-5.93 1.36-22.85 1.36-23 .47-12.64-.15-34.14-5.78-65a18.08 18.08 0 0 1-.33-2c-.08-.54-1.94-9.38-4.1-19.62-4.11-19.46-9.74-46.12-10.19-49.79-.69-5.63-6.33-42-6.38-42.33a.91.91 0 0 1 0-.33c4.62-24.66-6.15-54-6.26-54.24a1 1 0 0 1 .34-1.15c4.67-3.46 5.13-19 4.92-24.77.42-10.73 1.81-45.61 2.2-47s3-34.15 4.7-55.75c1.84-28.08-1.74-46.73-8.88-83.91l-1.35-7c-6.12-32-23-66-26.09-71.39-3.21-5.63-4.07-20.91-4.07-22.76 0-.26-.13-1.4-.28-2.73-.57-5.09-1.77-15.69-1.36-24.11a246.74 246.74 0 0 1 3.83-31.08c.58-3 2.71-16.5 4.26-26.38 1-6.41 1.81-11.47 2-12.42a152.61 152.61 0 0 0 2.44-33.14c-1.8-6.4-18.22-15.09-24.43-17.91a1 1 0 0 1 .83-1.82c.95.43 23.32 10.68 25.56 19.32v.18a153.68 153.68 0 0 1-2.46 33.74c-.17.92-1 6.22-2 12.36-1.65 10.45-3.69 23.45-4.28 26.46a243.23 243.23 0 0 0-3.79 30.78c-.4 8.27.78 18.76 1.35 23.8.2 1.79.29 2.59.29 2.95 0 1.54.83 16.55 3.81 21.76 3.1 5.43 20.14 39.76 26.31 72l1.35 7c7.18 37.35 10.78 56.09 8.91 84.43-.72 9.15-4.36 54.76-4.76 56.16s-1.43 28.58-2.13 46.45c0 .78.69 20.33-5.15 25.89 1.59 4.54 10.41 31.4 6.15 54.47.42 2.71 5.7 36.75 6.37 42.21.44 3.59 6 30.2 10.15 49.63 3.61 17.07 4.15 19.69 4.15 20 0 .08.14.81.3 1.65 5.66 31 6.28 52.67 5.81 65.37 0 .67 0 17.29-1.41 23.43-.66 2.93-1.33 7.08-1.92 10.73a76 76 0 0 1-1.66 8.7c-.71 1.95-3.26 18.16-3.49 20.44-.15 1.49-1.48 3.12-2.76 4.7a16.49 16.49 0 0 0-1.82 2.49c-.1.2-.28.52-.51 1-6 11.16-8.31 19-6.78 23.44a1 1 0 0 1-.61 1.27 1 1 0 0 1-.24 0Z"/>
  <path d="M466.35 870.15c-3.55 0-8-1-13-4.4a1 1 0 0 1 1.11-1.67c11.69 7.8 19.52 2 19.84 1.76a1.06 1.06 0 0 1 .54-.21c29.92-2.28 37.63-13.45 37.71-13.56a1 1 0 0 1 1.67 1.09c-.31.49-8.12 12-39 14.45a16.11 16.11 0 0 1-8.87 2.54Zm16.8-64.46a2.94 2.94 0 0 1-1.13-.19 8.59 8.59 0 0 1-2.11-1.45c-3.55-2.9-11-8.94-34.61-5.58-7.75 1.19-16.5 3.35-17.18 4.69a1 1 0 0 1-1.88-.66c1-3 13.46-5.2 18.77-6 24.54-3.48 32.39 2.93 36.16 6a8.54 8.54 0 0 0 1.59 1.15c1.54.6 8.35-2.63 13.78-6a1 1 0 1 1 1 1.7c-2.54 1.65-10.54 6.34-14.39 6.34Z"/>
  <path d="M452.1 827.64a60.23 60.23 0 0 1-16.46-2.36 1 1 0 1 1 .6-1.91c.19.06 19.13 5.88 32.81-1.52 6.15-3.32 10.37-8.85 12.54-16.43 0-1.95.16-20.72 1.06-27.57s8.28-103 8.35-104a1 1 0 0 1 1.08-.93A1 1 0 0 1 493 674c-.31 4-7.46 97-8.37 104.08s-1 27.25-1 27.46a1.09 1.09 0 0 1 0 .26c-2.39 8.2-6.95 14.2-13.63 17.82-5.71 3.08-12.15 4.02-17.9 4.02Zm6.47 17.25a33.3 33.3 0 0 1-16.73-4.3 1 1 0 1 1 1.09-1.67c.14.09 14.14 8.93 31.81-.06h.09c12.78-4.92 26.57-11 27.54-12.68a1 1 0 0 1 1.36-.38 1 1 0 0 1 .39 1.34c-1.64 3-22.18 11.12-28.52 13.57a37.35 37.35 0 0 1-17.03 4.18Zm20.48 49.73H479c-.67 0-16.44-1.11-20.26-7.8a1 1 0 0 1 1.74-1c2.71 4.75 14.23 6.5 18.56 6.78 33.73-3.84 44.36-14.18 44.46-14.29a1 1 0 0 1 1.43 1.41c-.44.44-11.12 10.95-45.75 14.88Zm5.18 30.52h-.05c-.62 0-15.3-.88-22.94-7.42a1 1 0 0 1 1.3-1.52c6.87 5.88 20.56 6.87 21.67 6.94 34.18-3.29 45.18-14 45.29-14.07a1 1 0 0 1 1.42 1.41c-.46.46-11.5 11.3-46.59 14.66Zm4.56 30.66c-4.12 0-13.8-.85-20.18-8.26a1 1 0 0 1 1.52-1.31c7.43 8.65 20.27 7.52 20.4 7.51 32.33-3.57 38.71-16.48 38.77-16.61a1 1 0 0 1 1.82.83c-.26.58-6.74 14.06-40.38 17.77-.12.01-.83.07-1.95.07Zm9.58 28.28a40.64 40.64 0 0 1-19.91-5 1 1 0 1 1 1-1.75c21.58 11.91 46.11-2.5 46.35-2.65a1 1 0 1 1 1 1.71c-.19.16-12.98 7.69-28.44 7.69Zm2.12 27.42a31.47 31.47 0 0 1-17-4.8 1 1 0 1 1 1.06-1.69c18 11.29 38.44-2.17 38.65-2.31a1 1 0 0 1 1.38.27 1 1 0 0 1-.27 1.39c-.15.1-10.84 7.14-23.82 7.14Zm.51 25.44a50 50 0 0 1-15.33-2.49 1 1 0 0 1-.65-1.26 1 1 0 0 1 1.26-.65c20.72 6.66 34.77-2.92 34.91-3a1 1 0 0 1 1.4.24 1 1 0 0 1-.25 1.4c-.46.29-8.45 5.76-21.34 5.76Zm13.14 17.68c-4 0-8.52-.18-12.66-.6-10.41-1-15.06-.42-15.93-.16a.94.94 0 0 1-.61.16 1 1 0 0 1-.94-1 1 1 0 0 1 .36-.72c.85-.73 6.78-1.28 17.32-.22a103.87 103.87 0 0 0 21.64.09.88.88 0 0 1 .23-.07 1 1 0 0 1 1.18.77 1 1 0 0 1-.23.88c-.5.52-4.87.87-10.36.87Zm8.64-1.39Zm0 0Zm0-.44a.93.93 0 0 0 0 .44.93.93 0 0 1 0-.44Zm-36.78.3v.11-.11Zm0 0Zm0 0Zm0 0Zm0 0Zm35.47 22.91a23.73 23.73 0 0 1-7.89-1.54c-2-.71-4.06-1.6-6.23-2.53-7.87-3.41-16-6.93-22.56-2a1 1 0 0 1-1.21-1.59c7.49-5.67 16.56-1.74 24.56 1.72 2.14.92 4.15 1.8 6.1 2.49 8.64 3.06 12 .23 12 .2a1 1 0 0 1 1.4.07 1 1 0 0 1 0 1.4c-.15.09-1.97 1.78-6.17 1.78Zm4.99 38.56a1 1 0 0 1-1-.85c0-.24-3.8-24.25-27.51-32.79-.06 0-9.61-2.93-16.21 1.47a1 1 0 0 1-1.11-1.66c7.41-4.94 17.53-1.84 18-1.71 24.9 9 28.81 34.15 28.85 34.4a1 1 0 0 1-.85 1.13Z"/>
  <path d="M523.75 1120a1 1 0 0 1-1-.79c-2.23-10.17-27.95-20.78-28.2-20.88-14.45-4.72-20.15.86-20.21.91a1 1 0 0 1-1.44-1.38c.26-.27 6.51-6.58 22.33-1.41 1.17.47 27 11.14 29.47 22.33a1 1 0 0 1-.7 1.22.83.83 0 0 1-.25 0Zm-8.23 12.24a1 1 0 0 1-1-.88c0-.15-1.75-11.42-23.51-14.37-6.38-1.22-23.8-3.47-28.4.52a1 1 0 1 1-1.31-1.51c6.26-5.44 29.06-1.17 30-1 23.39 3.18 25.12 15.58 25.18 16.11a1 1 0 0 1-.88 1.11Z"/>
  <path d="M491.65 1140.49h-.06a1 1 0 0 1-.94-1 47.55 47.55 0 0 1 2.83-13.13c2.32-5.8 3.44-9.27 3.45-9.31a1 1 0 0 1 1.26-.64 1 1 0 0 1 .64 1.25s-1.14 3.57-3.49 9.44a45.93 45.93 0 0 0-2.69 12.5 1 1 0 0 1-1 .89Zm9.85-2.58a1 1 0 0 1-.95-.67c-.19-.55-.77-2.23 2.91-10.77 1.11-2.57 2.82-5.75 2.89-5.88a1 1 0 1 1 1.76 1s-1.74 3.23-2.82 5.72c-2.66 6.18-3 8.77-2.85 9.33a1 1 0 0 1-.61 1.27 1 1 0 0 1-.33 0Zm-31.13 3.94a1 1 0 0 1-1-.79c-1.2-5.84 2.68-15 4.41-18.75 1.27-2.71 3.57-7.46 3.94-8.22.31-1.41 3.48-15.51 4-18 .05-.25 5.18-25.07 7.11-30 1.55-3.94 2.09-38.8-.06-55.42-2-15.72-19.42-87.23-19.6-87.95-.09-.53-7.23-44.87-8.29-53.48-.73-5.92-5.66-14.74-8.93-20.57a49.55 49.55 0 0 1-2.85-5.49c-1.06-3.08-6.57-15.64-7.41-16.68a.87.87 0 0 0 .51.26c-2.11-.37-3.16-12.94-3.15-13.06v-.22c.07-2.13.2-6.09-2.71-14.19-3.26-9-15.57-54.06-19.38-76.1-1.47-8.51-9.23-68.81-10.24-97.68 0-.33-1.43-33.61-13.29-41.91-.09-.07-11.34-7.27-43.18-5a55.43 55.43 0 0 1-14.78-3c-2.8-.94-5.78.6-7.78 2-4.73 3.41-8.33 9.26-8.33 10.88a1.13 1.13 0 0 1-.05.32c-.15.45-15 46.29-13.84 101.31s3.81 84.75 3.84 85c.15 1.7 1.48 16.62 1.48 17.53.05 2.22 3.34 41.41 4.66 44.85 1.69 4.4-3.16 35.37-5 41.7-2.07 7.12-2.62 45.85-2.62 65.33 0 44.08-3.63 72.2-10.79 83.57-.22.32-4.82 6.85-6.34 8.41-.75.76-6.17 5-14.35 11.3-5.84 4.52-12.46 9.64-13.13 10.31-1.72 1.71-11.67 8.53-18.14 10.59-6 1.91-13.9 9.87-16.7 15.45a1 1 0 1 1-1.78-.89c3-6.06 11.31-14.38 17.88-16.47 6.36-2 16-8.79 17.32-10.09.71-.72 5.51-4.44 13.33-10.48 6.29-4.87 13.43-10.4 14.14-11.12 1.13-1.15 4.49-5.81 6.11-8.12 6.93-11 10.45-38.76 10.45-82.46 0-19.58.57-58.55 2.7-65.89s6.4-36.93 5.05-40.42c-1.64-4.26-4.79-45.24-4.79-45.57 0-.67-.89-10.74-1.48-17.35 0-.29-2.67-29.93-3.84-85.17-1.14-53.89 13-99 13.89-101.85.19-2.71 4.42-8.91 9.16-12.33 3.42-2.47 6.74-3.28 9.59-2.33a54.69 54.69 0 0 0 14.09 2.9c32.58-2.35 43.9 5 44.36 5.32 12.69 8.88 14.1 42.08 14.16 43.49 1 28.79 8.74 88.93 10.21 97.41 3.79 21.95 16.05 66.77 19.29 75.76 3 8.46 2.9 12.84 2.82 14.94v.21a62.45 62.45 0 0 0 2 11.28c.51.51 1.36 2.12 3.86 7.74 1.57 3.54 3.47 8 4.06 9.75a52.12 52.12 0 0 0 2.71 5.16c3.34 6 8.38 15 9.16 21.31 1.06 8.57 8.2 52.88 8.27 53.32.16.65 17.57 72.26 19.62 88.1 2.1 16.17 1.75 51.8-.06 56.41-1.55 3.92-5.58 22.72-7 29.63-.55 2.66-4 18-4 18.18a.81.81 0 0 1-.07.22s-2.6 5.36-4 8.3c-1.28 2.74-5.37 12.1-4.26 17.49a1 1 0 0 1-.77 1.18.75.75 0 0 1-.19.14Z"/>
  <path d="M462.3 1143.15a10.6 10.6 0 0 1-6.51-1.91 5.4 5.4 0 0 1-2-4.33v-.1c0-.15.41-3.75 3-5.41a6.14 6.14 0 0 1 5.48-.36 6.76 6.76 0 0 1 4.93 7.09c-.17 2.47-1.44 4.57-3 4.86a10.1 10.1 0 0 1-1.9.16Zm-6.49-6.18a3.37 3.37 0 0 0 1.25 2.73c1.84 1.51 5.34 1.61 6.81 1.33.34-.07 1.23-1.21 1.35-3a4.73 4.73 0 0 0-3.57-5.06 4.25 4.25 0 0 0-3.75.13c-1.65 1.03-2.04 3.51-2.09 3.9Zm19.56 3.62a5.17 5.17 0 0 1-3.52-1.1 3.09 3.09 0 0 1-.89-2.74c.2-1.85 1.63-3.14 3.82-3.43 1.9-.26 4.3.3 4.84 1.65.65 1.65.75 3.93-2.53 5.43a1 1 0 0 1-.24.07 8.43 8.43 0 0 1-1.48.12Zm1.31-1.1Zm-.95-4.24a4.62 4.62 0 0 0-1.32.18c-1.34.41-1.44 1.27-1.47 1.55a1.16 1.16 0 0 0 .28 1.06c.63.6 2.22.61 3.16.48 1.93-.93 1.73-1.94 1.38-2.81a3.79 3.79 0 0 0-2.03-.46Zm10.02 4.75a4.65 4.65 0 0 1-2.29-.61 3.07 3.07 0 0 1-1.64-3.44 3.78 3.78 0 0 1 2.1-2.82 2.77 2.77 0 0 1 2.51.28c.55.26 2.69 1.42 3 3.16a2.48 2.48 0 0 1-.81 2.26 4 4 0 0 1-2.87 1.17Zm-.88-5a.52.52 0 0 0-.21 0c-.37.14-.7.68-.91 1.47-.17.64.5 1.08.71 1.2a2.3 2.3 0 0 0 2.74-.24c.29-.29.26-.45.25-.51-.09-.56-1.18-1.36-1.93-1.72l-.1-.05a1 1 0 0 0-.55-.23Zm26.13 1.57a1 1 0 0 1-1-.72c-.12-.39-.51-.47-2.18-.45-1.85 0-4.39 0-6.68-1.85-3.33-2.76-7.88-1.37-7.93-1.36a1 1 0 0 1-1-.28c-4.35-4.78-9-2.17-9.14-2.06a1 1 0 0 1-1.13-.07 8.19 8.19 0 0 0-9.47-.56 1 1 0 0 1-1.27-.13 10.66 10.66 0 0 0-13-2.18 1 1 0 0 1-1.38-.33 1 1 0 0 1 .33-1.37 12.69 12.69 0 0 1 15 2 10.17 10.17 0 0 1 10.58.67 9.29 9.29 0 0 1 10.6 2.29c1.57-.35 5.78-.93 9.18 1.89 1.74 1.43 3.67 1.41 5.39 1.39s3.56 0 4.12 1.89a1 1 0 0 1-.68 1.24 1.45 1.45 0 0 1-.34-.01Z"/>
  <path d="M495.83 1138.49s-2.83 0-3.16-1.33a3.17 3.17 0 0 1 .4-2.68 4.17 4.17 0 0 1 2.7-1.54c.56-.19 2.35-.69 3.4.27a2.44 2.44 0 0 1 .52 2.61 3.61 3.61 0 0 1-3.86 2.67Zm-1.3-2.19a4 4 0 0 0 2.38 0 1.36 1.36 0 0 0 .83-1 1.19 1.19 0 0 0 .05-.65 2.78 2.78 0 0 0-1.46.19l-.23.05a2.38 2.38 0 0 0-1.42.72 1 1 0 0 0-.15.69Zm1.45-2.38Zm-58.46-351.16c-12.19 0-18.33-1.74-18.82-1.88a1 1 0 1 1 .57-1.92c.24.07 24.77 6.95 75-7.26a1 1 0 0 1 1.24.69 1 1 0 0 1-.69 1.23c-25.82 7.3-44.76 9.14-57.3 9.14Zm.16-28.76a123.1 123.1 0 0 1-26.45-2.77 1 1 0 1 1 .43-2c42.57 9.35 82.73-8.31 83.13-8.49a1 1 0 1 1 .81 1.82A157.86 157.86 0 0 1 437.68 754Zm-9.02-31.24c-7.6 0-15.72-.36-24.32-1.22a1 1 0 0 1-.89-1.09 1 1 0 0 1 1.09-.9c54.4 5.42 89.92-9.13 90.27-9.27a1 1 0 0 1 1.31.53 1 1 0 0 1-.54 1.31c-.3.13-25.93 10.64-66.92 10.64Zm-24.58-31.07c-3 0-5.8-.07-8.41-.23a1 1 0 1 1 .12-2c32 2 96-9.29 96.68-9.41a1 1 0 0 1 .35 2c-.6.08-54.96 9.64-88.74 9.64Zm-14.97-26.56a1.08 1.08 0 0 1-.61-.2 1 1 0 0 1-.19-1.4c4.28-5.69 85-13.81 101.12-15.38a1 1 0 0 1 .19 2c-37 3.6-96.82 10.75-99.71 14.59a1 1 0 0 1-.8.39Zm-1.87-26.51a1 1 0 0 1-.74-.33 1 1 0 0 1 .06-1.41c15.15-14 96.64-21.77 100.1-22.09a1 1 0 0 1 1.09.9 1 1 0 0 1-.9 1.09c-.85.08-84.28 8.07-98.93 21.57a1 1 0 0 1-.68.27Zm-3.1-20.69a1 1 0 0 1-.71-.29 1 1 0 0 1 0-1.41c18.16-18.31 63.27-29.64 65.18-30.11 32.3-8.42 36.7 4.48 36.88 5a1 1 0 0 1-1.91.6c-.07-.19-4.33-11.55-34.48-3.7-.48.12-46.49 11.68-64.25 29.59a1 1 0 0 1-.71.32Z"/>
  <path d="M433.93 818.15a1.19 1.19 0 0 1-.32 0 1 1 0 0 1-.63-.64l-12.05-36.6-8.36-30.31L401 690.87c-4.69-17.07-12.57-87.18-12.91-90.15 0-.18-5.29-27 18.95-49.82.22-.23 25.36-25.77 68.76-25.77h.94a1 1 0 0 1 1 1 1 1 0 0 1-1 1h-.93c-42.56 0-67.11 24.94-67.35 25.19C385 574.47 390 600.14 390.08 600.4c.1.82 8.22 73 12.89 90l11.55 59.67 8.32 30.19 11.61 35.26 2.44-1.73c3.7-2.63 28.85-2.92 31.7-2.95a1 1 0 0 1 0 2c-10.54.09-28.16.87-30.56 2.58l-3.52 2.58a1.05 1.05 0 0 1-.58.15Zm-117.32 251.23a1 1 0 0 1-.08-2 1.92 1.92 0 0 0 1.25-.86c2.24-2.91 3-11.36 2.28-15.33-.8-4.56.24-9.07 1.69-15.32l.69-3c1.62-7.18 2.94-13.81 2.63-22.33-.29-8.21 0-18.58 0-18.69v-24.2l1.77-74.1c0-15.86 1.89-25 5.37-36.29 1.58-5.16 11.26-25.69 15.91-35.56l1.18-2.52c3.65-7.77 5.91-18.71 5.93-18.82a.84.84 0 0 1 0-.17c3.91-9.9 2.69-46.85 1.42-56.39-1.2-9-3.26-35.14-3.4-45 0-2.18-.1-5.69-.18-9.88-.29-14.85-.73-37.3-.27-41.95.73-7.27.94-30.27-2-33.31-3.85-4-5.08-23-4.82-27.52.28-4.86-2.72-25.89-2.75-26.1a1 1 0 0 1 2-.28c.13.87 3.06 21.43 2.76 26.5-.32 5.56 1.3 22.9 4.28 26 4.18 4.37 2.81 32.06 2.52 34.9-.45 4.53 0 27.81.28 41.71.08 4.2.15 7.71.18 9.89.13 9.58 2.21 36 3.38 44.8 1.1 8.26 2.75 46.33-1.51 57.31-.23 1.13-2.43 11.48-6.06 19.19l-1.18 2.52c-4.63 9.83-14.27 30.28-15.81 35.3-3.42 11.11-5.28 20.1-5.28 35.73l-1.77 74.1v24.2c0 .13-.29 10.45 0 18.59.31 8.76-1 15.52-2.68 22.84l-.69 3c-1.39 6-2.4 10.36-1.67 14.52.78 4.4 0 13.44-2.66 16.9a3.76 3.76 0 0 1-2.68 1.63ZM369.27 776a1 1 0 0 1-1-.9c-1.41-14.11 2.57-64 2.74-66.08 3.36-26 1.87-80.95 1.86-81.5a1 1 0 0 1 1-1 1 1 0 0 1 1 1c0 .55 1.5 55.68-1.87 81.76 0 .46-4.13 51.74-2.74 65.67a1 1 0 0 1-.9 1.09Z"/>
  <path d="M383 616.61a1 1 0 0 1-.71-.3c-6.82-6.86 1.1-34 2-37.06 3.95-14.79 13.33-31.07 20.19-43a135.86 135.86 0 0 0 6.62-12.23c2.29-5.53 3.19-15.16 3.86-22.19a55.1 55.1 0 0 1 1-7.85c.84-2.83 4.83-54.14 6.29-73.67 3.78-30.83-4-67.14-4.11-67.5a1 1 0 1 1 1.95-.43c.08.36 8 37 4.15 68.13-.21 2.83-5.29 70.43-6.37 74a61 61 0 0 0-.92 7.47c-.68 7.16-1.6 17-4 22.77a135.22 135.22 0 0 1-6.74 12.46c-6.8 11.8-16.1 27.94-20 42.5-2.42 8.06-7.59 30-2.53 35.12a1 1 0 0 1-.71 1.7Z"/>
  <path d="M464 813a.87.87 0 0 1-.35-.07 1 1 0 0 1-.59-1.28c2.7-7.28-5.16-30.82-5.24-31.05-9.43-27.19-4.11-82.76-3.88-85.11 2.92-27.37-1.15-75.07-1.19-75.55-2.76-51.42-37-90-41-94.35a237.81 237.81 0 0 1-61.59 4c-1.1 0-27-.81-36.31-8.12-1.88 3.21-7.7 13.53-10.79 23.4a1 1 0 1 1-1.91-.6c3.78-12.07 11.52-24.73 11.6-24.86a1 1 0 0 1 .72-.47 1 1 0 0 1 .82.27c7.82 7.54 35.68 8.37 36 8.38 34.68 2.19 61.34-4.05 61.6-4.11a1 1 0 0 1 .95.28c.39.4 39 40.92 41.93 96 0 .45 4.12 48.34 1.19 75.89 0 .57-5.51 57.48 3.78 84.26.34 1 8.17 24.45 5.23 32.39a1 1 0 0 1-.97.7Z"/>
  <path d="M468.67 870a1 1 0 0 1-.9-.55c-3.1-6.28-14.37-54.79-14.85-56.85a1 1 0 0 1 0-.42c2-9.92-2.37-20.88-6.9-30.29-5-10.43-9.94-28.34-10-28.52-4.32-15-4.37-58-4.37-59.85 0-14.27-4.69-68.74-4.74-69.29-2.85-46-21.13-66.35-23-68.34-2.6-.82-26.13-8.12-34.58-5.05a1 1 0 1 1-.68-1.87c9.54-3.48 35 4.74 36.11 5.09a1 1 0 0 1 .39.24c.85.82 20.73 20.69 23.78 69.79 0 .52 4.74 55.07 4.74 69.43 0 1.81 0 44.55 4.3 59.31.05.19 4.93 17.93 9.86 28.19 4.64 9.65 9.1 20.9 7.1 31.33.82 3.55 11.74 50.34 14.64 56.21a1 1 0 0 1-.45 1.34 1 1 0 0 1-.45.1Zm-172.12-78a1 1 0 0 1-.88-1.47c2.81-5.33.85-30.79-.14-40.15-7.07-63.74-7.1-75.95-7.1-76.44-.93-50.07 11.63-89.81 12.16-91.48.1-.31 10.17-31.39 20.69-34.38a29.56 29.56 0 0 1 16.83 0 1 1 0 1 1-.67 1.89 28 28 0 0 0-15.61 0c-7.83 2.28-16.83 25.24-19.33 33.11-.13.41-13 41.1-12.07 90.85 0 .14.05 12.76 7.08 76.24.15 1.41 3.6 34.34-.08 41.3a1 1 0 0 1-.88.53Z"/>
  <path d="M335.12 847a115.91 115.91 0 0 1-11.81-.64 1.75 1.75 0 0 1-1.38-.88c-1-1.69.6-5.28 3.28-11 .94-2 2.22-4.74 2.22-5.38 0-.83-.8-5.67-1.66-10.79-1.5-8.94-3.36-20.08-3.36-23.78 0-2.76.7-16.3 1.45-30.63.84-16.33 1.8-34.85 1.8-39.11 0-7.1 5.23-98.28 7.7-112 2.41-13.41 6.7-16.34 6.89-16.46a1 1 0 0 1 1.06 0c8.46 5.08 42.64 3.55 47.23 3.32 24.85-38.65 59.77-45.65 60.12-45.76 12.3-3.26 21.83-2.65 28.27 1.81a17.53 17.53 0 0 1 7.4 11.78 1 1 0 0 1-.9 1.1 1 1 0 0 1-1.09-.9 15.84 15.84 0 0 0-6.58-10.36c-5.94-4.09-14.91-4.59-26.66-1.48-.41.08-34.77 7.07-59.15 45.3a1 1 0 0 1-.79.46c-1.56.09-37.72 2.07-48.23-3.22-1 1.09-3.81 4.83-5.6 14.76-2.29 12.69-7.67 102.22-7.67 111.65 0 4.31-.92 22.06-1.81 39.21-.74 14.31-1.44 27.82-1.44 30.53 0 3.54 1.93 15.05 3.33 23.45 1.08 6.47 1.69 10.17 1.69 11.12s-.87 2.94-2.41 6.23c-1.29 2.74-3.65 7.77-3.38 9 27.6 2.82 36.18-5 36.27-5.07a1 1 0 0 1 1.39 1.44c-.3.3-6.7 6.3-26.18 6.3Z"/>
  <path d="M315.6 847.65a17 17 0 0 1-15.72-9.6 1 1 0 1 1 1.85-.76c.22.52 5.22 12.13 21.38 7.11a1 1 0 0 1 1.26.66 1 1 0 0 1-.66 1.25 27.48 27.48 0 0 1-8.11 1.34ZM329.69 804h-.9a7.7 7.7 0 0 1-5.57-2.77c-5.7-7-26.86-15.44-27.07-15.52a1 1 0 0 1-.56-1.3 1 1 0 0 1 1.3-.56c.89.35 21.86 8.77 27.87 16.11a5.68 5.68 0 0 0 4.19 2c6.54.52 16.41-6.26 18.62-8.22 1.33-1.19 4.73-2 10.17-3.29 3.79-.88 9.53-2.2 10.18-3.27a1 1 0 0 1 1.71 1c-1 1.7-5 2.69-11.44 4.18-3.87.89-8.24 1.9-9.29 2.84-1.69 1.57-11.51 8.8-19.21 8.8Zm8.95 27.34a42.72 42.72 0 0 1-10.23-1.21c-2.27.45-19.11 3.54-28.47-2.68a1 1 0 1 1 1.11-1.66c9.13 6.07 27 2.37 27.18 2.34a1 1 0 0 1 .45 0c16.86 4.29 33.4-4.4 33.56-4.49a1 1 0 0 1 .94 1.76 57 57 0 0 1-24.54 5.94Z"/>
  <path d="M314.88 802.39c-5.66 0-12.9-.9-18.88-4.56a1 1 0 0 1 1-1.71c10.76 6.6 26.59 3.53 26.75 3.5a1 1 0 0 1 .4 2 52 52 0 0 1-9.27.77Zm11.76 14.47h-.35c-5.92-.46-10.34-.71-13.89-.92-9.61-.55-11.89-.68-15.43-3.44a1 1 0 1 1 1.22-1.58c3.06 2.38 4.78 2.48 14.32 3 3.57.2 8 .46 13.94.91a3.84 3.84 0 0 0 .82 0h.52c28.13-1.55 38.21-8 38.31-8.07a1 1 0 1 1 1.1 1.67c-.42.28-10.64 6.82-39.3 8.4h-.44a7 7 0 0 1-.82.03Zm10.51-15.12c-.48-.38-.39-.83-.28-1.4 1.59-7.89 6.46-37.27 2.39-83.93a.34.34 0 0 1 0-.1c.05-3.1 1.07-76 1.61-80.29.17-1.36.34-2.67.51-3.95 1.52-11.56 2.61-19.91-1.54-34.63a1 1 0 0 1 1.93-.55c4.23 15.11 3.07 24.11 1.58 35.44q-.25 1.9-.51 3.93c-.52 4.17-1.55 77.7-1.59 80 4.09 46.89-.81 76.49-2.41 84.44a3.26 3.26 0 0 0-.07.36l-1-.16Zm150.53-414.43h-.18c-.31-.06-31.47-5.83-36.32-6.38-4.64-.53-22.6 3.34-27.28 4.69-.86.25-21.46 5.93-50.38-10.91l-.09-.06c-.14-.1-13.9-10.09-25.15-6.73-8.41 2.51-17.22 7.56-21.95 10.27-2.5 1.44-3.17 1.8-3.61 1.87-.18.1-.57.37-.88.59-2.61 1.81-8.71 6.07-14.68 1.9a1 1 0 0 1-.25-1.39 1 1 0 0 1 1.4-.25c4.83 3.37 9.93-.19 12.38-1.9a4.29 4.29 0 0 1 1.68-.92c.37-.15 1.63-.87 3-1.63 4.81-2.76 13.75-7.88 22.38-10.46 12-3.58 25.8 6.24 26.86 7 28.17 16.38 47.95 10.93 48.77 10.69 4.1-1.18 22.89-5.35 28.06-4.76 4.93.56 35.18 6.16 36.47 6.4a1 1 0 0 1-.19 2Zm-165.15-7.25Zm0-2Zm172.54-7.89a1.09 1.09 0 0 1-.25 0c-.82-.21-20-5.26-25.37-7S446.5 353 445.76 352.62c-.05 0-11.44-4.45-16.54-5.23a1 1 0 1 1 .3-2c5.32.8 16.56 5.18 17 5.37.24.12 18.24 8.74 23.51 10.44s25.06 6.92 25.26 7a1 1 0 0 1-.26 2Zm-151.86-23.06h-.19a1 1 0 0 1-.79-1.17c0-.11 2.07-11.09 3.83-21.79 1.7-10.34 14.42-51.9 19.8-59.68 5-7.21 5.19-19.26 4.67-31.2a1 1 0 0 1 1-1.05 1 1 0 0 1 1 1c.54 12.29.3 24.73-5 32.43-5 7.19-17.61 47.5-19.48 58.86-1.76 10.73-3.82 21.73-3.84 21.84a1 1 0 0 1-1 .76Z"/>
  <path d="M417 413.6a52 52 0 0 1-17.73-2.87 107 107 0 0 1-35.85-22l-.28-.26c-4.11-3.87-13.43-8.49-29.68 3.92-2 2-17.43 17.26-24.27 17.26a4.21 4.21 0 0 1-.62-.05 3.13 3.13 0 0 1-2.4-1.74 1 1 0 0 1 .44-1.34 1 1 0 0 1 1.39.48 1.15 1.15 0 0 0 .93.67c4.2.67 16.44-9.89 23.21-16.7l.1-.09c17.46-13.36 27.74-8.13 32.32-3.83l.25.23A105.09 105.09 0 0 0 400 408.85c8.52 3.08 23.72 5.07 47.74-3 9.47-3.15 31.58-1.53 32.52-1.46a1 1 0 0 1 .92 1.07 1 1 0 0 1-1.07.93c-.23 0-22.65-1.67-31.74 1.36-11.59 3.91-22.06 5.85-31.37 5.85Zm-6 22.22c-14.4 0-31.79-3.5-38.7-5.26-1.62-.41-3.18-.91-4.83-1.44-7.45-2.39-15.9-5.1-33.94-.63-19.63 4.86-23 2.87-24.86 1.8a4.45 4.45 0 0 0-.53-.27 1 1 0 1 1 .62-1.9 4.36 4.36 0 0 1 .92.45c1.47.86 4.53 2.64 23.37-2 18.59-4.6 27.33-1.8 35 .67 1.62.52 3.15 1 4.71 1.41 8.21 2.09 34.89 7.34 49.29 4.22s51-8.42 51.35-8.47a1 1 0 0 1 .29 2c-.37 0-36.88 5.34-51.22 8.45a56.15 56.15 0 0 1-11.47.97ZM408 455c-13.63 0-32.68-.9-36-2.77-4-2.25-35.25-2.69-38.33-1.66-2.7.91-19.68 3.8-23.65-2.18a1 1 0 0 1 1.67-1.11c2.94 4.45 17.76 2.6 21.34 1.4 3.74-1.25 35.53-.69 40 1.81 3.69 2.1 39.39 3.28 47.59 2 7.77-1.19 46.33-8.22 46.72-8.29a1 1 0 0 1 1.17.81 1 1 0 0 1-.81 1.16c-.39.07-39 7.11-46.78 8.29A112 112 0 0 1 408 455Zm-15 20.72c-13.76 0-28.53-.71-35.7-2.9-6-1.81-13.79-1.55-23.27.79-.41.1-.68.17-.82.19-.93.17-20 .24-23.23-5.44a1 1 0 0 1 1.73-1c2.34 4.06 19.1 4.77 21.16 4.47l.68-.16c9.83-2.43 18-2.68 24.33-.76 12.2 3.72 48.63 3 60.84 1.91 12.85-1.16 46.08-9.16 46.41-9.24a1 1 0 0 1 .47 1.95c-1.37.33-33.7 8.1-46.7 9.28-5.48.5-15.4.91-25.9.91Zm-13.72 21.37c-12.77 0-22.82-.4-23-.41a1 1 0 0 1-1-1 1 1 0 0 1 1-1c.38 0 38.2 1.54 60.48-1.37s49.33-11.9 49.6-12a1 1 0 0 1 1.27.63 1 1 0 0 1-.63 1.27c-.28.09-27.52 9.14-50 12.07-10.87 1.44-25.54 1.81-37.72 1.81Zm-33.41-1.59c-1.33 0-32.54-1.1-37.86-8.91a1 1 0 0 1 .27-1.39 1 1 0 0 1 1.38.26c3.95 5.79 27.52 7.77 36.27 8a1 1 0 0 1 0 2Zm66.2 29.94a1 1 0 0 1-.54-1.84c.29-.19 29.47-18.48 57.93-22a1 1 0 0 1 .25 2c-28 3.47-56.82 21.54-57.11 21.72a1 1 0 0 1-.53.12Z"/>
  <path d="M312.51 522.74a1 1 0 0 1-1-1c0-1.25.4-30.52 1.08-35.83s2.15-29.88 2-33.52c0-.68-.25-3.11-.55-6.48-1.4-15.74-4.69-52.59-2.51-62.76 2.61-12.2-.6-27.73-5.06-31.9a1 1 0 1 1 1.37-1.46c5.42 5.06 8.21 21.79 5.64 33.78-2.11 9.87 1.16 46.52 2.56 62.17.31 3.51.52 5.84.55 6.57.16 4.14-1.36 28.68-2 33.85s-1.06 35.3-1.06 35.6a1 1 0 0 1-1.02.98Zm-80.9-154.37a2.09 2.09 0 0 1-.51-.07c-1.74-.51-1.66-3.05-1.63-4a1 1 0 0 1 1-1 1 1 0 0 1 1 1 4.19 4.19 0 0 0 .23 2c1.09-.12 4.52-3.18 15.28-21.46l.51-.87c3.3-5.59 29.25-42.7 34.71-44.91 5.15-2.09 17.41 2 17.93 2.15a1 1 0 0 1-.63 1.9c-3.35-1.12-12.84-3.7-16.55-2.2-4.42 1.79-29.66 37.17-33.74 44.07l-.51.87c-10.65 18.15-14.7 22.52-17.09 22.52Z"/>
  <path d="M260.43 407.92a1 1 0 0 1-.38-.08c-19.47-8-23-14.54-24.86-20-1.66-5 17.57-29.71 21.44-34.62 30.76-43.91 42-43.5 43.23-43.31a1 1 0 0 1-.29 2c-.27 0-11.43-.17-41.33 42.52-11.11 14.08-22 30.16-21.15 32.8 1.3 3.9 3.47 10.42 23.72 18.78a1 1 0 0 1-.38 1.93Z"/>
  <path d="M256 394.4c-5.36 0-17.56-4.87-20.2-5.95h-.09c-9.88-5.26-5-20.69-4.82-21.35a1 1 0 0 1 1.91.62c0 .14-4.54 14.44 3.81 18.94 6.57 2.68 17.85 6.59 20.3 5.68 3.25-1.2 33.44-29.62 45.19-44.55a2.43 2.43 0 0 1 1.68-1 3.54 3.54 0 0 1 2.53 1.15c.19.16.45.37.63.49a8.73 8.73 0 0 0 .5-5.95 3.93 3.93 0 0 0-2-2.65c-.7-.33-1-.16-1.12-.09-.9.54-1.42 2.82-1.49 4.27a1 1 0 0 1-1.05.95 1 1 0 0 1-.95-1c0-.47.29-4.6 2.46-5.89a3 3 0 0 1 3 0 5.92 5.92 0 0 1 3.07 3.9 10.48 10.48 0 0 1-.75 7.58 1.9 1.9 0 0 1-1.34 1 3 3 0 0 1-2.26-1c-.29-.25-.83-.72-1-.69 0 0-.14 0-.31.27-11.88 15.1-42.07 43.72-46.06 45.19a4.89 4.89 0 0 1-1.64.08Zm50.85-45.91Z"/>
  <path d="M268.42 398.35a.75.75 0 0 1-.21 0c-.93-.2-9.18-2.07-11.67-4.35-.29-.27-1.1-.85-2.12-1.58-6.61-4.72-24.16-17.24-19.28-29.2a1 1 0 0 1 1.86.78c-4.28 10.5 12.33 22.36 18.59 26.82 1.16.83 1.93 1.38 2.32 1.73 1.77 1.63 8.35 3.35 10.74 3.88a1 1 0 0 1-.22 2Z"/>
  <path d="M279.17 386.46H279c-.36-.05-35.94-5.08-41.63-31.44a1 1 0 1 1 2-.42c5.39 25 39.59 29.83 39.94 29.88a1 1 0 0 1-.14 2Zm12.29-12.75h-.24c-.32-.08-32.39-8.15-43.64-34a1 1 0 0 1 1.84-.8c10.85 24.92 42 32.75 42.27 32.83a1 1 0 0 1-.23 2Zm8.46-39.26a1.06 1.06 0 0 1-.45-.11 106.54 106.54 0 0 1-31.82-24.69 1 1 0 1 1 1.55-1.26 104.34 104.34 0 0 0 31.17 24.16 1 1 0 0 1-.45 1.9Zm-48.79 84.43a1 1 0 0 1-.55-.16c-1.32-.88-32.35-21.62-36.61-39.58a1 1 0 0 1 1.95-.46c4.07 17.19 35.45 38.16 35.76 38.37a1 1 0 0 1 .28 1.39 1 1 0 0 1-.83.44ZM238.47 431a1 1 0 0 1-.61-.21c-1.35-1-33.27-25.56-36.82-39.08a1 1 0 0 1 1.94-.5c3.37 12.86 35.77 37.74 36.1 38a1 1 0 0 1 .19 1.4 1 1 0 0 1-.8.39Zm-15.57 11.77a1 1 0 0 1-.61-.21c-1.36-1.05-33.48-25.78-34-37a1 1 0 0 1 .95-1 1 1 0 0 1 1.05 1c.36 8.55 24.08 28.53 33.18 35.5a1 1 0 0 1-.61 1.8Zm-19.16 13a1 1 0 0 1-.56-.17c-.87-.59-21.4-14.68-29-31.55a1 1 0 0 1 1.83-.82c7.33 16.35 28.06 30.57 28.26 30.71a1 1 0 0 1 .27 1.39 1 1 0 0 1-.8.44Zm-17.91 12.63a1.06 1.06 0 0 1-.51-.14c-.87-.51-21.36-12.64-26-27A1 1 0 0 1 160 440a1 1 0 0 1 1.26.65c4.37 13.66 24.87 25.79 25.07 25.92a1 1 0 0 1-.5 1.86Zm-15.95 11.24a1 1 0 0 1-.43-.1c-.95-.46-23.19-11.39-24.77-21.88a1 1 0 1 1 2-.3c1.43 9.46 23.44 20.28 23.66 20.38a1 1 0 0 1 .46 1.34 1 1 0 0 1-.92.56Zm-12.11 9.21a1 1 0 0 1-.33-.06c-.82-.28-20.21-7.22-24.47-18.36a1 1 0 0 1 .57-1.29 1 1 0 0 1 1.29.58c3.93 10.27 23.08 17.12 23.27 17.19a1 1 0 0 1-.33 1.94Zm-61.59 51.34a5.44 5.44 0 0 1-4-1.48 5.55 5.55 0 0 1-1.63-4.22c.1-.69.71-1.55 2.2-3.49a19 19 0 0 0 2.1-3.08c.22-1 1.49-3.07 3.39-6.11.64-1 1.23-1.95 1.59-2.59s.78-1.27 1.34-2.15c1.41-2.22 4-6.33 4.09-7.74.09-2.35 4.1-11.09 4.56-12.08a1 1 0 1 1 1.81.84c-1.66 3.59-4.31 9.85-4.37 11.32-.08 1.8-2 5-4.4 8.73-.54.85-1 1.57-1.29 2.07-.38.66-1 1.62-1.63 2.66a42.72 42.72 0 0 0-3.14 5.48c-.18.84-1 2-2.46 3.87a19 19 0 0 0-1.82 2.6 3.64 3.64 0 0 0 1.06 2.46 4.1 4.1 0 0 0 3.7.81c4.83-.83 9.91-7.47 11.82-11.7 2.26-5 6.07-7 9.76-8.85.53-.27 1.24-.61 2.09-1 5.18-2.45 16-7.54 21.18-15.11.19-.24 3.59-4.88-3.37-10.79l-12.74-9.78a1 1 0 1 1 1.22-1.58l12.78 9.8c8.51 7.22 3.77 13.47 3.72 13.53-5.47 8-16.59 13.22-21.94 15.74-.82.39-1.51.71-2 1-3.53 1.81-6.87 3.52-8.85 7.9-2.15 4.75-7.7 11.87-13.3 12.84a9 9 0 0 1-1.47.1Z"/>
  <path d="M144.46 498.28a2.34 2.34 0 0 1-.5 0 1 1 0 0 1-.76-1.19 1 1 0 0 1 1.2-.76c.69.12 4.33-.81 7.29-1.76a1 1 0 1 1 .61 1.9c-1.84.53-6.01 1.81-7.84 1.81Zm-30.67 24.57a1 1 0 0 1-.09-2c2.35-.22 21.59-3 21.79-3a1 1 0 0 1 1.13.84 1 1 0 0 1-.85 1.14c-.79.11-19.48 2.82-21.89 3Zm19.65-9.06a7.25 7.25 0 0 1-2.77-.47 1 1 0 1 1 .77-1.85c2.72 1.14 9.2-1.07 11.47-2a1 1 0 0 1 .77 1.85c-.68.28-6.09 2.47-10.24 2.47Zm6.31-6.97a1 1 0 0 1-.7-1.71c.28-.28.37-.37 8.35-1.76a1 1 0 0 1 1.16.82 1 1 0 0 1-.82 1.15c-3.27.57-7 1.25-7.58 1.41a1 1 0 0 1-.41.09Zm-2.58 2.31a1 1 0 0 1-1-.76c0-.09-2.1-8.33-8.61-12.21-3.59-2.15-7.91-2.59-12.82-1.31a1 1 0 1 1-.5-1.93c5.45-1.42 10.28-.91 14.36 1.53 7.23 4.32 9.43 13.07 9.52 13.44a1 1 0 0 1-.74 1.21Zm-11.33 7.15a1 1 0 0 1-1-.85c0-.09-1.49-9.49-7-12.57-2.4-1.34-5.29-1.29-8.59.14a1 1 0 0 1-.8-1.84c3.91-1.69 7.4-1.7 10.37-.05 6.41 3.56 8 13.6 8 14a1 1 0 0 1-.84 1.13ZM78.15 556a1 1 0 0 1-.82-.43 1 1 0 0 1 .24-1.39c.05 0 5.88-4.19 7.81-8.05A18.56 18.56 0 0 1 91 540a9.56 9.56 0 0 0 1.54-1.33 1 1 0 1 1 1.65 1.12 9.62 9.62 0 0 1-2 1.79 16.55 16.55 0 0 0-5.06 5.51c-2.16 4.31-8.19 8.61-8.45 8.79a1 1 0 0 1-.53.12ZM94 537.7h-.11a3.56 3.56 0 0 1-3.23-2 1 1 0 1 1 1.79-.89 1.55 1.55 0 0 0 1.49.92 6.6 6.6 0 0 0 4.88-2.88.71.71 0 0 0 .06-.59c-.33-1.13-2.32-2.57-3.5-3.22a1 1 0 1 1 .95-1.75c.39.21 3.81 2.11 4.47 4.41a2.76 2.76 0 0 1-.23 2.13A8.73 8.73 0 0 1 94 537.7Z"/>
  <path d="M113 514.54a15.68 15.68 0 0 1-7.17-2.1 1 1 0 1 1 1-1.71s5.25 3.11 9 1.17a13.2 13.2 0 0 0 5.53-6.42 1 1 0 0 1 .25-.39l8.79-8.26.08-.07c1.92-1.45 7.13-5.59 8.14-7.38a109.62 109.62 0 0 1 8.75-11.38c1.1-1.15 25.64-29.95 38.46-45l25.22-27.58c.15-.17 17-20.18 18.43-27.81a1 1 0 1 1 2 .37c-1.52 8.14-18.18 27.92-18.89 28.76l-25.22 27.58c-1.49 1.75-37.09 43.6-38.52 45.09a107.13 107.13 0 0 0-8.48 11c-1.36 2.43-7.71 7.27-8.63 8l-8.58 8.07a14.93 14.93 0 0 1-6.39 7.28 8 8 0 0 1-3.77.78Zm-.19 9.22a1 1 0 0 1-.63-.22c-2.83-2.3-7.89-6.09-9.41-6.51a1 1 0 0 1-.69-1.24 1 1 0 0 1 1.23-.69c2.41.67 9.34 6.25 10.13 6.88a1 1 0 0 1 .14 1.41 1 1 0 0 1-.77.37Z"/>
  <path d="M114.26 530.59a41.27 41.27 0 0 1-5.58-.46 1 1 0 0 1-.69-.45c-.61-.67-5.34-3.59-9.61-6a1 1 0 1 1 1-1.74c5.44 3.15 8.76 5.26 9.91 6.31 2.66.37 6.61.62 7.69 0 1.34-.7 4.64-1.26 8.5-1.87 1.38-.22 2.57-.41 3.1-.54a1 1 0 0 1 .49 1.94c-.62.15-1.79.34-3.27.57-2.68.43-6.73 1.07-7.89 1.68a8.82 8.82 0 0 1-3.65.56Zm-6.26-.89Zm0-.09Zm-15 19.64a1 1 0 0 1-.58-.18 1 1 0 0 1-.24-1.4c.23-.32 5.66-8 7-9.69a1 1 0 0 1 1.57 1.23c-1.33 1.7-6.9 9.54-7 9.62a1 1 0 0 1-.75.42Z"/>
  <path d="M113.31 534.45a1 1 0 0 1-.72-1.69l4.14-4.31a1 1 0 0 1 1.44 1.38l-4.17 4.32a1 1 0 0 1-.69.3Zm30.87-37.07a1.08 1.08 0 0 1-.57-.17 1 1 0 0 1-.26-1.39c.69-1 6.74-9.87 7.92-11.1.92-1 33.5-28.15 46.43-35 10.69-5.68 33.06-29.3 40.41-37.06 1.41-1.49 2.26-2.39 2.56-2.67 1.81-1.71 15.66-17.23 15.8-17.39a1 1 0 0 1 1.5 1.34c-.58.64-14.05 15.73-15.93 17.5-.26.25-1.19 1.23-2.48 2.6-7.4 7.81-29.94 31.61-40.92 37.45-12.65 6.73-45 33.7-45.92 34.64s-5.06 6.95-7.72 10.84a1 1 0 0 1-.82.41ZM334.53 770c-15.24 0-31.81-2.84-42-13.06a1 1 0 0 1 1.41-1.41c21.72 21.66 75.42 8.28 76 8.14a1 1 0 0 1 1.22.73 1 1 0 0 1-.72 1.21 160.71 160.71 0 0 1-35.91 4.39Zm5.47-27.37c-13.34 0-30.7-2.31-52.4-9.49a1 1 0 1 1 .62-1.9c58.66 19.39 85.56 2.35 85.82 2.18a1 1 0 0 1 1.39.28 1 1 0 0 1-.28 1.39c-.74.46-11.83 7.54-35.15 7.54Zm2-29.53c-15.41 0-35.1-2.56-58.45-10.88a1 1 0 1 1 .67-1.89c59.75 21.29 95 4.51 95.39 4.34a1 1 0 0 1 1.34.45 1 1 0 0 1-.46 1.34c-.24.11-13.93 6.64-38.49 6.64Zm16.67-25a146.83 146.83 0 0 1-18-1.24c-36.09-4.49-57.73-16.41-57.95-16.53a1 1 0 0 1 1-1.74c.21.11 21.55 11.85 57.21 16.29 34.92 4.34 41.73-4.33 41.79-4.42a1 1 0 0 1 1.4-.23 1 1 0 0 1 .24 1.37c-.28.33-4.82 6.5-25.69 6.5Zm15.07-25.02c-8.29 0-21.68-1.75-43.3-7.62-46.69-12.67-47.2-16.22-47.37-17.39a1.29 1.29 0 0 1 .57-1.3 1 1 0 0 1 1.38.32 1 1 0 0 1 .12.77c.89 1 6.79 5.08 45.82 15.67 48.85 13.25 54.25 5 54.29 4.93a1 1 0 0 1 1.31-.5 1 1 0 0 1 .51 1.34c-.27.61-2.18 3.78-13.33 3.78Zm-89-24.61Zm101.68 3.7h-.09c-.51 0-51.61-5-98.14-33.8a1 1 0 0 1-.32-1.37 1 1 0 0 1 1.38-.33c46.11 28.53 96.76 33.46 97.27 33.51a1 1 0 0 1-.1 2ZM351.6 614a1.24 1.24 0 0 1-.27 0c-26.71-7.21-56.59-35.29-56.89-35.57a1 1 0 0 1 0-1.42 1 1 0 0 1 1.41 0c.3.28 29.83 28 56.05 35.1a1 1 0 0 1-.26 2Zm-12.32-14.16a1 1 0 0 1-.47-.12c-14.67-7.79-37.19-47.68-38.14-49.38a1 1 0 1 1 1.75-1c.23.4 23.18 41.07 37.33 48.59a1 1 0 0 1-.47 1.88Zm-13.02 269c-9.72 0-20.05-1.77-29.18-7.11a1 1 0 1 1 1-1.72c26.32 15.36 63.31.09 63.68-.06a1 1 0 1 1 .78 1.84c-.26.11-17.06 7.05-36.28 7.05Zm3.74 28.61a82 82 0 0 1-35.72-8.06 1 1 0 1 1 .87-1.8c34.83 16.71 67 1.63 67.33 1.48a1 1 0 0 1 .87 1.8 85.06 85.06 0 0 1-33.35 6.58Zm-.65 28.03c-8.64 0-19.25-1.3-32.05-5a1 1 0 0 1 .56-1.93c42 12.13 60.27-2.23 60.45-2.38a1 1 0 0 1 1.41.15 1 1 0 0 1-.14 1.4c-.58.45-9.83 7.76-30.23 7.76Zm1.03 26.88a98 98 0 0 1-30.92-5.24 1 1 0 1 1 .63-1.89c28.85 9.57 48.8 2.68 49 2.61a1 1 0 1 1 .68 1.88c-.5.18-7.6 2.64-19.39 2.64ZM322 977.25a62.12 62.12 0 0 1-21.57-3.9 1 1 0 0 1-.59-1.28 1 1 0 0 1 1.28-.6c22.51 8.32 40.85.12 41 0a1 1 0 0 1 .83 1.82c-.45.27-8.68 3.96-20.95 3.96Zm-4.44 24.11a35.49 35.49 0 0 1-17.56-4.47 1 1 0 0 1 1-1.75c17.15 9.61 35.35-.15 35.53-.25a1 1 0 1 1 1 1.75 46 46 0 0 1-19.97 4.72Zm6.32 18.72c-5.65 0-13.65-1.7-24.57-7.48a1 1 0 1 1 .94-1.76c24.58 13 33.47 4.41 33.56 4.33a1 1 0 0 1 1.44 1.38c-.25.24-3.52 3.53-11.37 3.53Zm-1.23 18.27h-.25c-5.15-.22-16.21-6.27-23.53-10.27-2.31-1.26-4.69-2.57-5.37-2.81a1 1 0 0 1-.83-1.6c.67-.9.91-.76 7.16 2.66 6.72 3.67 18 9.82 22.65 10h.17c5.27 0 9.66-10.63 10.92-14.77a1 1 0 1 1 1.91.58c-.2.68-5 16.21-12.83 16.21Zm-28.39-13.49Zm0 0Zm0 0Zm0 0Z"/>
  <path d="M232.54 1089.4a1 1 0 0 1-1-.73c-.09-.33-2.12-8 3.12-9.46a49.79 49.79 0 0 0 11.93-4.8c2.78-1.79 14.56-10.63 16.23-12.12.41-.36 1.19-1.12 2.2-2.07 4.62-4.42 9.29-8.81 11.24-9.71 1.79-.83 17-13.36 26.79-21.62.66-.75 9-10.57 13.08-28.72 4.47-19.71 1.61-51 1.58-51.33v-.12c.08-2.55 2-62.4 3-66.36.58-2.44 1.07-6 1.65-10.21 1.31-9.47 2.94-21.26 6.65-26.85 5.55-8.36 20.53-39.31 17.34-49.73a1 1 0 0 1 1.91-.59c3.59 11.74-12.27 43.42-17.58 51.43-3.46 5.21-5.06 16.75-6.34 26-.58 4.22-1.09 7.86-1.69 10.39-.74 3.12-2.36 48.57-2.92 65.9.15 1.62 2.81 32.31-1.62 51.89-4.39 19.36-13.22 29.26-13.59 29.67l-.1.09c-2.52 2.12-24.69 20.75-27.3 22-1.81.84-7.6 6.37-10.7 9.34-1 1-1.83 1.75-2.25 2.13-1.78 1.58-13.58 10.44-16.48 12.3-3.06 2-8.48 4-12.49 5.05-3.32.91-1.73 6.94-1.71 7a1 1 0 0 1-.7 1.23 1.24 1.24 0 0 1-.25 0Z"/>
  <path d="M237.44 1085.45a6.77 6.77 0 0 1-4.13-1.24 3.28 3.28 0 0 1-1.25-2.79 1 1 0 0 1 1-1 1 1 0 0 1 1 1 1.29 1.29 0 0 0 .52 1.15 5.37 5.37 0 0 0 3.88.68c1.52-.38 9.56-2 15.87-2.78 5.64-.71 12.78-5 19.69-9.19a134.4 134.4 0 0 1 12.33-6.88c7.94-3.65 50.63-20.57 51.06-20.74a1 1 0 1 1 .73 1.85c-.43.17-43.06 17.08-50.95 20.71a133.36 133.36 0 0 0-12.14 6.77c-7.09 4.28-14.41 8.7-20.46 9.47s-14.2 2.37-15.64 2.74a7.06 7.06 0 0 1-1.51.25Z"/>
  <path d="M238 1094.15a1 1 0 0 1-.55-1.84s3.24-2.18 3.44-5.36c.14-2.1-1.06-4.26-3.55-6.41a1 1 0 1 1 1.31-1.51c3 2.59 4.42 5.3 4.24 8.06-.28 4.18-4.18 6.79-4.34 6.9a1 1 0 0 1-.55.16Zm13.27-.65a1 1 0 0 1-.38-.07 1 1 0 0 1-.55-1.31c2.46-5.95-5.24-15.33-5.32-15.43a1 1 0 0 1 1.54-1.27c.35.42 8.54 10.4 5.63 17.46a1 1 0 0 1-.92.62Zm7.73-2.91a1 1 0 0 1-.62-.23 1 1 0 0 1-.16-1.4 7.93 7.93 0 0 0 1.9-6.39c-.94-5.73-8-10.29-8.05-10.34a1 1 0 0 1 1.08-1.68c.32.2 7.86 5.1 8.94 11.69a9.83 9.83 0 0 1-2.31 8 1 1 0 0 1-.78.35Zm13.82-3.12a1.06 1.06 0 0 1-.42-.09 1 1 0 0 1-.49-1.33c6.08-13.2-8.28-21.79-8.89-22.15a1 1 0 0 1-.36-1.36 1 1 0 0 1 1.37-.37c.16.1 16.53 9.86 9.7 24.71a1 1 0 0 1-.91.59Zm14.27-9.78H287a1 1 0 0 1-.9-1.1c2-19.42-17.33-27.21-18.15-27.53a1 1 0 1 1 .73-1.86c.21.08 21.56 8.65 19.41 29.59a1 1 0 0 1-1 .9Zm10.4-6.84a1 1 0 0 1-.45-.11 1 1 0 0 1-.44-1.35c3.38-6.57 4-12.69 1.92-18.2-4-10.35-16.43-15.22-16.55-15.27a1 1 0 1 1 .71-1.87c.55.21 13.42 5.23 17.71 16.42 2.32 6.06 1.64 12.73-2 19.84a1 1 0 0 1-.9.54Zm12.03-.95a.94.94 0 0 1-.63-.23 1 1 0 0 1-.15-1.4c9.72-11.93 5-32.85 5-33.06a1 1 0 0 1 .75-1.2 1 1 0 0 1 1.2.75c.2.9 5 22.08-5.37 34.77a1 1 0 0 1-.8.37Zm20.07-2.9a1 1 0 0 1-.58-1.81c.19-.18 4.46-4.66.38-33.86a1 1 0 1 1 2-.28c4.3 30.76-.3 35.23-1.26 35.81a1 1 0 0 1-.54.14Z"/>
</svg>